<?xml version="1.0" encoding="UTF-8"?>
<svg width="188px" height="64px" viewBox="0 0 188 64" version="1.1" xmlns="http://www.w3.org/2000/svg" xmlns:xlink="http://www.w3.org/1999/xlink">
    <!-- Generator: Sketch 52.5 (67469) - http://www.bohemiancoding.com/sketch -->
    <title>COBIS</title>
    <desc>Created with Sketch.</desc>
    <g id="UI" stroke="none" stroke-width="1" fill="none" fill-rule="evenodd">
        <g id="LPO" transform="translate(-34.000000, -653.000000)">
            <g id="Certification" transform="translate(0.000000, 628.000000)">
                <g id="COBIS" transform="translate(34.000000, 25.000000)">
                    <path d="M100.9524,63.5457 C100.3454,63.4187 99.7464,63.3127 99.1524,63.1637 C97.4424,62.7347 95.9994,61.8357 94.6964,60.7017 C94.3314,60.3837 94.2214,60.4647 94.0944,60.8807 C93.9154,61.4657 93.6784,62.0177 93.4994,62.5987 C93.4234,62.8497 93.3044,62.9387 93.0454,62.9217 C92.6174,62.9047 92.1884,62.9047 91.7644,62.9217 C91.4834,62.9387 91.3864,62.8627 91.3864,62.5737 C91.4034,59.5517 91.4034,56.5347 91.3944,53.5177 C91.3864,53.2247 91.4964,53.1477 91.7684,53.1607 C92.2854,53.1777 92.8044,53.1817 93.3214,53.1607 C93.6104,53.1437 93.6784,53.2537 93.7114,53.5217 C93.7544,53.9797 93.8264,54.4427 93.9244,54.8927 C94.6194,58.1257 96.8694,59.7897 99.8484,60.6347 C101.8264,61.1947 103.7994,61.1647 105.6884,60.2097 C107.4284,59.3317 108.2254,57.7487 107.9414,55.8977 C107.7934,54.9477 107.2664,54.3027 106.4354,53.8867 C105.0094,53.1647 103.4474,52.9617 101.9024,52.7237 C99.7854,52.3927 97.6504,52.2057 95.6044,51.5307 C93.7664,50.9197 92.2444,49.9267 91.6284,47.9627 C90.5674,44.5837 91.6624,40.3357 96.1054,38.7187 C99.8824,37.3357 103.6044,37.5897 107.0504,39.8607 C107.3094,40.0307 107.5634,40.1997 107.8104,40.3657 C107.8274,40.3787 107.8444,40.3787 107.9204,40.3947 C108.1374,39.8307 108.3784,39.2577 108.5914,38.6807 C108.6804,38.4257 108.8204,38.3197 109.1004,38.3367 C109.6094,38.3667 110.2844,38.1667 110.6024,38.4217 C110.9334,38.6937 110.7044,39.3937 110.7044,39.9027 C110.7134,42.2417 110.6954,44.5837 110.7214,46.9227 C110.7214,47.3217 110.6284,47.4617 110.2214,47.4277 C109.7284,47.3847 109.1174,47.5667 108.7524,47.3427 C108.3954,47.1297 108.4684,46.4727 108.3444,46.0097 C107.1474,41.8387 104.3084,40.3227 100.0604,40.5567 C98.6354,40.6327 97.3274,41.0827 96.2414,42.0337 C95.4394,42.7337 94.9344,43.5867 94.9344,44.6857 C94.9214,45.9717 95.4944,46.8547 96.6914,47.3597 C97.9554,47.8897 99.3134,47.9957 100.6464,48.2167 C102.7514,48.5647 104.8694,48.8367 106.9524,49.3707 C112.9364,50.9077 112.8014,57.3837 110.2804,60.4007 C108.7694,62.2127 106.7834,63.0997 104.5044,63.4397 C104.3904,63.4517 104.2454,63.4057 104.1684,63.5457 L100.9524,63.5457 Z" id="Fill-62" fill="#303277"></path>
                    <path d="M30.3,51.2764 C30.275,51.9684 30.351,52.9994 30.542,54.0184 C31.255,57.8884 33.551,60.9744 38.041,61.2494 C41.139,61.4404 44.131,60.3414 45.654,57.2264 C47.657,53.1264 47.734,48.8744 45.82,44.7244 C44.432,41.6894 41.911,40.1404 38.533,40.2504 C35.109,40.3614 32.66,42.0294 31.263,45.1654 C30.453,46.9904 30.309,48.9554 30.3,51.2764 Z M36.747,63.5454 C36.182,63.2784 35.563,63.2784 34.968,63.1384 C29.757,61.8564 26.337,57.8124 25.912,52.4564 C25.713,50.0504 25.929,47.7074 26.791,45.4584 C28.093,42.0934 30.445,39.7794 33.882,38.6764 C37.646,37.4754 41.389,37.6284 44.992,39.2914 C48.286,40.8114 50.255,43.4594 51.121,46.9484 C51.787,49.6844 51.77,52.4434 50.951,55.1384 C49.589,59.5904 46.533,62.2174 42.039,63.2314 C41.529,63.3464 40.986,63.3204 40.507,63.5454 L36.747,63.5454 Z" id="Fill-63" fill="#303277"></path>
                    <path d="M0.7375,49.074 C1.0005,48.471 0.9965,47.805 1.1615,47.181 C2.2955,42.848 4.7605,39.687 9.1875,38.456 C12.9255,37.416 16.5075,37.815 19.6605,40.336 C20.1655,40.739 20.1785,40.726 20.4545,40.111 C20.6745,39.627 20.9085,39.144 21.1035,38.651 C21.2095,38.371 21.3795,38.277 21.6635,38.294 C22.0545,38.316 22.4575,38.32 22.8475,38.294 C23.1785,38.273 23.3105,38.358 23.3105,38.731 C23.2935,41.715 23.3015,44.699 23.3105,47.682 C23.3105,48.009 23.2135,48.119 22.8855,48.098 C22.3855,48.072 21.7955,48.247 21.4045,48.034 C20.9975,47.809 21.1465,47.139 21.0145,46.668 C20.1325,43.578 18.3065,41.406 15.0645,40.73 C11.4235,39.975 8.0835,41.63 6.4455,45.076 C4.7175,48.73 4.6545,52.516 6.2845,56.22 C7.5875,59.178 9.9885,60.715 13.2225,60.719 C16.4355,60.719 18.9055,59.285 20.4715,56.42 C20.9335,55.567 21.2565,54.663 21.4345,53.708 C21.4855,53.424 21.5835,53.275 21.9145,53.297 C22.4485,53.326 22.9925,53.318 23.5275,53.301 C23.8365,53.292 23.9595,53.339 23.9175,53.708 C23.2935,58.72 20.3995,62.688 14.7725,63.435 C14.6915,63.448 14.5935,63.431 14.5685,63.546 L11.0325,63.546 C10.9225,63.342 10.7105,63.427 10.5495,63.393 C5.3125,62.404 2.0875,59.251 0.9965,54.044 C0.9155,53.674 0.9755,53.267 0.7375,52.936 L0.7375,49.074 Z" id="Fill-64" fill="#303277"></path>
                    <path d="M180.8386,54.2175 C180.5326,53.5255 180.2616,52.9025 179.9386,52.1505 C179.6466,52.9105 179.4036,53.5425 179.1366,54.2175 L180.8386,54.2175 Z M187.8836,56.4715 C187.2376,56.4625 186.5926,56.4545 185.9566,56.4545 C184.3436,56.4495 182.7316,56.4545 181.1136,56.4455 C180.9486,56.4455 180.7026,56.5605 180.6936,56.2165 C180.6936,55.9155 180.9106,55.9875 181.0676,55.9875 C181.4586,55.9875 181.4916,55.8515 181.3816,55.4905 C181.2036,54.9135 180.8976,54.6335 180.2786,54.7485 C180.0276,54.7905 179.7776,54.7565 179.5226,54.7565 C178.9376,54.7565 178.6486,55.0535 178.6186,55.6395 C178.6016,56.0125 178.8776,55.9655 179.0896,55.9785 C179.2856,55.9915 179.4546,55.9785 179.4376,56.2505 C179.4216,56.5175 179.2346,56.4495 179.0816,56.4495 C178.5296,56.4545 177.9786,56.4495 177.4266,56.4545 C177.2646,56.4545 177.1376,56.4455 177.1376,56.2375 C177.1336,56.0635 177.1976,55.9785 177.3836,55.9835 C177.8296,55.9875 177.9786,55.6525 178.1136,55.3125 C178.5886,54.1235 179.0726,52.9365 179.5316,51.7385 C179.6416,51.4755 179.7436,51.2935 180.1006,51.3105 C180.4226,51.3275 180.5886,51.4035 180.7196,51.7265 C181.2286,52.9825 181.7726,54.2215 182.3156,55.4605 C182.5486,55.9915 183.5206,56.2335 183.9956,55.9065 C184.1396,55.8085 184.1316,55.6645 184.1316,55.5245 C184.1316,54.4335 184.1146,53.3425 184.1316,52.2565 C184.1396,51.8405 183.8856,51.7945 183.5886,51.7725 C183.4106,51.7725 183.2746,51.7515 183.2826,51.5185 C183.2956,51.2895 183.4566,51.3275 183.5886,51.3275 C184.2506,51.3235 184.9086,51.3275 185.5746,51.3235 C185.7276,51.3235 185.8456,51.3185 185.8456,51.5395 C185.8416,51.7385 185.7616,51.7855 185.5916,51.7725 C185.0906,51.7475 184.9636,52.0105 184.9716,52.4735 C185.0056,53.4745 185.0146,54.4765 184.9716,55.4735 C184.9546,55.8975 185.1036,56.0125 185.4816,55.9575 C185.5746,55.9365 185.6596,55.9535 185.7526,55.9535 C187.2046,55.9535 187.2636,55.9155 187.5266,54.5015 C187.5776,54.2385 187.7056,54.2345 187.8836,54.2215 L187.8836,56.4715 Z" id="Fill-65" fill="#303277"></path>
                    <path d="M59.4724,44.9746 C59.4724,46.2056 59.4894,47.4356 59.4644,48.6666 C59.4554,49.0566 59.5494,49.1796 59.9604,49.1756 C61.8484,49.1506 63.7374,49.1716 65.6344,49.1626 C66.2284,49.1586 66.8104,49.1036 67.3784,48.9636 C69.3654,48.4756 70.5144,47.0456 70.5664,45.0086 C70.6124,43.0216 69.6494,41.6346 67.8324,41.0866 C67.2814,40.9216 66.7214,40.8276 66.1524,40.8236 C64.0644,40.8196 61.9764,40.8326 59.8884,40.8156 C59.5654,40.8156 59.4644,40.8876 59.4644,41.2266 C59.4894,42.4746 59.4724,43.7266 59.4724,44.9746 M59.4724,56.0336 L59.4724,60.2646 C59.4724,60.4816 59.4384,60.6766 59.7864,60.6726 C62.1884,60.6516 64.6074,60.7576 67.0054,60.6176 C71.2114,60.3756 72.0174,57.3286 71.3504,54.6676 C70.8634,52.6936 69.0004,51.4466 66.7034,51.4206 C64.4374,51.3996 62.1714,51.4246 59.9054,51.4076 C59.5494,51.4036 59.4644,51.5186 59.4644,51.8576 C59.4814,53.2456 59.4724,54.6416 59.4724,56.0336 M70.3114,50.0246 C70.7904,50.1346 71.1564,50.2026 71.5164,50.2966 C74.1564,51.0006 75.7684,52.7826 75.9724,55.2196 C76.2314,58.3256 74.9114,60.7446 72.3054,61.9076 C70.6934,62.6296 68.9914,62.9136 67.2554,62.9176 C62.2564,62.9256 57.2484,62.9176 52.2494,62.9306 C51.8124,62.9306 51.6384,62.8246 51.6894,62.3746 C51.7314,62.0386 51.7314,61.6906 51.6894,61.3596 C51.6384,60.9096 51.8334,60.8206 52.2324,60.8376 C52.8904,60.8806 53.5564,60.8416 54.2104,60.7576 C54.9484,60.6556 55.2714,60.3416 55.4284,59.6236 C55.5004,59.3226 55.5084,59.0176 55.5084,58.7196 L55.5084,42.8056 C55.5084,42.6106 55.5084,42.4156 55.4924,42.2206 C55.3894,41.1756 54.9734,40.7646 53.9214,40.7096 C53.3104,40.6756 52.7034,40.6666 52.1054,40.6716 C51.8044,40.6756 51.6724,40.5946 51.6984,40.2806 C51.7404,39.7336 51.4774,39.0286 51.7864,38.6726 C52.0974,38.3416 52.8014,38.5746 53.3274,38.5746 C57.8174,38.5656 62.2944,38.5576 66.7804,38.5746 C68.4354,38.5786 70.0484,38.8376 71.5674,39.5256 C73.7654,40.5186 74.9114,42.4326 74.7974,44.9446 C74.6914,47.2576 73.3844,48.9756 71.1174,49.7566 C70.8964,49.8336 70.6764,49.9016 70.3114,50.0246" id="Fill-66" fill="#303277"></path>
                    <path d="M85.0715,50.7927 C85.0715,53.5937 85.0625,56.3987 85.0795,59.1997 C85.0885,60.2697 85.5125,60.6597 86.5655,60.7827 C87.2785,60.8587 87.9905,60.8547 88.7045,60.8377 C88.9805,60.8337 89.0775,60.9187 89.0605,61.1987 C89.0355,61.7457 89.2305,62.4507 88.9675,62.8107 C88.7135,63.1507 87.9665,62.9137 87.4395,62.9177 C84.1545,62.9257 80.8705,62.9087 77.5805,62.9347 C77.1265,62.9347 76.9995,62.8027 77.0375,62.3697 C77.0845,62.0177 77.0755,61.6527 77.0375,61.3007 C77.0085,60.9057 77.1695,60.8247 77.5255,60.8377 C78.2725,60.8717 79.0245,60.8637 79.7625,60.7577 C80.5645,60.6427 80.9385,60.2647 81.0185,59.4717 C81.0485,59.1877 81.0655,58.9027 81.0655,58.6137 L81.0655,42.8657 C81.0655,41.1207 80.7515,40.7817 79.0075,40.6757 C78.4885,40.6457 77.9755,40.6457 77.4575,40.6757 C77.1185,40.6927 77.0165,40.5647 77.0465,40.2467 C77.0925,39.7037 76.8215,38.9737 77.1615,38.6597 C77.4575,38.3877 78.1795,38.5657 78.7055,38.5657 C81.9905,38.5657 85.2755,38.5707 88.5685,38.5617 C88.9505,38.5577 89.1205,38.6377 89.0605,39.0537 C88.9975,39.5767 89.2905,40.2807 88.9425,40.5777 C88.6325,40.8367 87.9485,40.6497 87.4395,40.6667 C87.1175,40.6797 86.7945,40.6877 86.4805,40.7177 C85.5595,40.8157 85.1225,41.2527 85.0885,42.1687 C85.0465,43.3317 85.0465,44.4907 85.0465,45.6487 C85.0375,47.3637 85.0465,49.0737 85.0465,50.7927 L85.0715,50.7927 Z" id="Fill-67" fill="#303277"></path>
                    <path d="M89.57,30.2866 C87.372,29.5566 85.296,30.1716 83.221,30.7956 C83.149,30.8126 83.09,30.8376 83.017,30.8596 C81.867,31.2416 81.859,31.2666 82.143,32.4716 C82.491,33.9916 83.204,35.3026 84.452,36.3926 C83.174,36.6566 82.02,36.5716 80.87,36.1896 C80.619,36.1006 80.505,35.8586 80.382,35.6466 C79.775,34.6106 79.525,33.4606 79.325,32.2976 C79.275,32.0176 79.168,31.8906 78.901,31.8736 C78.829,31.8696 78.765,31.8476 78.697,31.8356 C76.686,31.4786 75.871,30.2656 76.265,28.2236 C76.38,28.1726 76.414,28.2836 76.461,28.3426 C77.051,29.0976 78.137,29.2636 78.956,28.7506 C79.109,28.6486 79.126,28.5426 79.113,28.3936 C78.803,24.3876 80.255,21.0006 82.763,17.9666 C83.658,16.8796 84.528,15.7726 85.368,14.6396 C86.675,12.8566 87.482,10.8786 87.423,8.6306 C87.389,6.9326 86.943,5.3196 86.336,3.7496 C86.268,3.5796 86.132,3.4096 86.175,3.1896 C86.382,3.1976 86.425,3.3716 86.514,3.4906 C89.625,7.7136 89.595,12.6486 86.408,16.9266 C85.428,18.2596 84.299,19.4816 83.467,20.9286 C82.376,22.8256 81.536,24.7946 81.558,27.0276 C81.558,27.6466 81.558,27.6466 82.126,27.4176 C83.845,26.7426 85.615,26.3816 87.461,26.7766 C88.912,27.0866 89.341,27.5746 89.562,29.1196 C89.612,29.5016 89.655,29.8916 89.57,30.2866" id="Fill-68" fill="#E6262A"></path>
                    <path d="M116.9089,50.708 C116.9089,54.655 116.9089,58.606 116.9009,62.552 C116.9009,62.726 117.0189,63.015 116.7819,63.066 C116.4759,63.134 116.1369,63.121 115.8309,63.058 C115.6699,63.024 115.7419,62.773 115.7419,62.62 L115.7419,54.587 C115.7419,49.371 115.7419,44.156 115.7329,38.935 C115.7329,38.528 115.7419,38.277 116.2849,38.32 C116.7219,38.354 116.9259,38.384 116.9179,38.918 C116.8919,42.853 116.9089,46.778 116.9089,50.708" id="Fill-69" fill="#E6262A"></path>
                    <path d="M88.5261,26.4585 C86.7101,25.8215 84.8851,25.9575 83.0681,26.4375 C82.7371,26.5225 82.7201,26.3605 82.7121,26.1105 C82.6481,24.4765 83.1021,22.9785 83.8581,21.5485 C84.4261,20.4705 85.0971,19.4605 85.9371,18.5775 C88.0421,16.3665 89.2311,13.7865 89.2561,10.6585 C89.6211,11.3465 89.7821,13.0695 89.6631,14.2275 C89.4761,15.9165 88.8651,17.4235 87.8891,18.8065 C86.4971,20.7755 85.3261,22.8725 84.6341,25.2065 C84.6131,25.2785 84.5371,25.3635 84.6131,25.4605 C85.0801,25.3845 85.5431,25.2785 86.0141,25.2365 C87.0911,25.1215 88.1781,25.6645 88.5171,26.4625 L88.5261,26.4585 Z" id="Fill-70" fill="#303277"></path>
                    <path d="M84.0871,0.6514 C84.2571,0.6174 84.2911,0.7614 84.3501,0.8554 C85.7931,3.2574 86.7011,5.8084 86.5911,8.6474 C86.5141,10.6164 85.9451,12.4284 84.8251,14.0624 C84.6131,14.3634 84.4861,14.4014 84.2481,14.0914 C83.3911,12.9924 82.7501,11.8344 83.0431,10.3654 C83.1151,9.9924 83.2631,9.6524 83.4551,9.3304 C85.0921,6.6314 85.0841,3.7964 84.1461,0.8894 C84.1381,0.8344 84.0951,0.7914 84.0871,0.7404 C84.0781,0.7154 84.0871,0.6814 84.0871,0.6514" id="Fill-71" fill="#E6262A"></path>
                    <path d="M150.758,47.4868 C149.429,47.4868 149.438,47.4868 149.451,48.7978 C149.46,49.2308 149.544,49.5408 150.071,49.4818 C150.258,49.4648 150.317,49.5618 150.313,49.7398 C150.308,49.9178 150.206,49.9358 150.071,49.9358 C149.374,49.9318 148.674,49.9318 147.974,49.9358 C147.804,49.9358 147.77,49.8548 147.77,49.7108 C147.77,49.5538 147.817,49.4648 147.982,49.4818 C148.585,49.5498 148.645,49.1848 148.636,48.7128 C148.619,47.7838 148.628,46.8588 148.636,45.9298 C148.636,45.5428 148.576,45.2418 148.085,45.3058 C147.906,45.3268 147.77,45.3058 147.77,45.0678 C147.77,44.8508 147.863,44.7958 148.059,44.7998 C148.7,44.8128 149.349,44.8088 149.986,44.7998 C150.155,44.7998 150.308,44.7958 150.317,45.0468 C150.325,45.3098 150.159,45.3268 149.965,45.3058 C149.578,45.2548 149.485,45.4628 149.46,45.8018 C149.366,47.0198 149.366,47.0198 150.588,47.0198 L151.708,47.0198 C151.794,47.0198 151.933,47.0458 151.963,47.0028 C152.299,46.5828 152.073,46.0948 152.116,45.6368 C152.142,45.3938 151.967,45.3008 151.738,45.3008 C151.539,45.3058 151.276,45.3938 151.31,45.0258 C151.335,44.6818 151.585,44.8178 151.751,44.8128 C152.332,44.7958 152.931,44.8128 153.517,44.7998 C153.703,44.7958 153.822,44.8298 153.822,45.0548 C153.822,45.2838 153.703,45.3308 153.517,45.3058 C153.058,45.2458 152.99,45.5048 152.99,45.8828 C153.008,46.8838 153.008,47.8858 152.99,48.8828 C152.982,49.2778 153.101,49.5068 153.525,49.4818 C153.72,49.4688 153.83,49.5068 153.822,49.7398 C153.805,49.9698 153.661,49.9318 153.525,49.9318 C152.876,49.9358 152.235,49.9358 151.594,49.9358 C151.454,49.9358 151.318,49.9608 151.31,49.7358 C151.301,49.4938 151.42,49.4688 151.602,49.4818 C152.039,49.5158 152.129,49.2688 152.133,48.8828 C152.146,47.4868 152.154,47.4868 150.758,47.4868" id="Fill-72" fill="#303277"></path>
                    <path d="M134.1472,60.5283 L134.0922,60.5283 C133.6762,60.5703 133.0442,60.3293 132.8822,60.6303 C132.6792,61.0203 132.8062,61.6063 132.8192,62.0983 C132.8322,62.3913 133.0192,62.4843 133.2942,62.4883 C133.4512,62.4883 133.6682,62.4163 133.6682,62.7183 C133.6682,63.0613 133.4182,62.9513 133.2482,62.9553 C132.6622,62.9683 132.0642,62.9593 131.4822,62.9593 C131.3302,62.9553 131.1432,63.0063 131.1262,62.7563 C131.1012,62.4803 131.2872,62.4763 131.4742,62.4883 C131.8472,62.5183 131.9832,62.3233 131.9832,61.9753 C131.9742,60.9233 131.9742,59.8703 131.9832,58.8133 C131.9832,58.4273 131.8052,58.2663 131.4232,58.2913 C131.2452,58.3043 131.1082,58.2793 131.1212,58.0453 C131.1342,57.8293 131.2782,57.8463 131.4232,57.8463 C132.0802,57.8463 132.7472,57.8503 133.4092,57.8413 C133.5792,57.8413 133.6682,57.8713 133.6722,58.0703 C133.6722,58.2833 133.5622,58.3083 133.4002,58.2913 C132.8992,58.2403 132.8022,58.5333 132.7982,58.9533 C132.7892,60.0273 132.7852,60.0273 133.8462,60.0273 C134.2922,60.0273 134.7372,60.0273 135.1782,60.0233 C135.2972,60.0233 135.4672,60.0743 135.4712,59.8833 C135.4842,59.4373 135.4972,58.9913 135.4632,58.5463 C135.4382,58.2913 135.1912,58.3083 134.9922,58.2913 C134.8432,58.2833 134.6562,58.3423 134.6562,58.0843 C134.6562,57.7783 134.8692,57.8463 135.0392,57.8463 C135.6412,57.8413 136.2442,57.8413 136.8552,57.8463 C136.9992,57.8463 137.1862,57.7823 137.1862,58.0543 C137.1942,58.3043 137.0502,58.3043 136.8802,58.2913 C136.4432,58.2663 136.3372,58.4953 136.3372,58.8943 C136.3542,59.8913 136.3542,60.8893 136.3372,61.8863 C136.3372,62.2763 136.4352,62.5143 136.8722,62.4883 C137.0422,62.4763 137.1862,62.4803 137.1862,62.7303 C137.1862,62.9813 137.0242,62.9593 136.8632,62.9593 L134.9832,62.9593 C134.8262,62.9593 134.6652,62.9733 134.6562,62.7263 C134.6562,62.4843 134.8142,62.4763 134.9792,62.4883 C135.3872,62.5143 135.5352,62.3193 135.4842,61.9333 L135.4842,61.8863 C135.4972,60.5283 135.4972,60.5283 134.1472,60.5283" id="Fill-73" fill="#303277"></path>
                    <path d="M128.8684,45.3267 L128.8684,45.3227 C128.6564,45.3227 128.4394,45.3387 128.2314,45.3227 C127.9594,45.2967 127.8624,45.4367 127.9264,45.6657 C128.0364,46.1117 127.5954,46.7487 128.1554,46.9817 C128.5754,47.1557 129.1354,47.0327 129.6234,46.9727 C130.1074,46.9177 130.3194,46.5577 130.2944,46.0947 C130.2724,45.6237 129.9884,45.3567 129.5084,45.3267 C129.2964,45.3187 129.0804,45.3267 128.8684,45.3267 M130.2044,47.3297 C130.7694,47.6567 130.8544,48.1317 130.8634,48.6497 C130.8634,48.8067 130.8634,48.9677 130.8964,49.1247 C130.9224,49.2647 130.9604,49.4217 131.1564,49.3967 C131.3334,49.3747 131.3804,49.2307 131.3894,49.0827 C131.3974,48.9037 131.3974,48.7257 131.3974,48.5477 C131.3974,48.4037 131.4914,48.3737 131.6094,48.3787 C131.6994,48.3787 131.7874,48.3867 131.8344,48.4837 C132.0804,48.9507 131.6994,49.8717 131.1934,49.9947 C130.5824,50.1477 130.1324,49.8547 130.0354,49.2347 C129.9884,48.9337 130.0104,48.6237 129.9624,48.3317 C129.8734,47.7157 129.6614,47.5287 129.0554,47.4867 C127.9134,47.4147 127.9134,47.4147 127.9134,48.5267 C127.9134,48.7427 127.9134,48.9557 127.9344,49.1677 C127.9594,49.4607 128.1974,49.4647 128.4184,49.4817 C128.5674,49.4897 128.7324,49.4437 128.7414,49.7017 C128.7454,49.9647 128.5884,49.9357 128.4224,49.9357 L126.5514,49.9357 C126.4074,49.9357 126.2584,49.9527 126.2584,49.7227 C126.2664,49.5277 126.3554,49.4727 126.5254,49.4817 C126.9584,49.5107 127.0604,49.2777 127.0514,48.8867 C127.0354,47.8647 127.0434,46.8497 127.0514,45.8317 C127.0604,45.4967 126.9794,45.2667 126.5804,45.3057 C126.4104,45.3227 126.2664,45.3007 126.2584,45.0637 C126.2584,44.7787 126.4454,44.8047 126.6234,44.8047 C127.6754,44.8047 128.7324,44.7837 129.7854,44.8127 C130.8164,44.8477 131.3084,45.4027 131.1934,46.3287 C131.1214,46.8717 130.7614,47.1477 130.2044,47.3297" id="Fill-74" fill="#303277"></path>
                    <path d="M143.1272,51.8452 C142.9492,51.8452 142.7712,51.8622 142.6012,51.8412 C142.2282,51.7942 142.1172,51.9302 142.1262,52.3082 C142.1342,53.5252 142.1172,53.5252 143.3482,53.5172 C143.4922,53.5172 143.6362,53.5172 143.7682,53.5002 C144.2992,53.4282 144.5532,53.1142 144.5152,52.5832 C144.4852,52.0782 144.1892,51.8622 143.7222,51.8452 C143.5182,51.8412 143.3232,51.8452 143.1272,51.8452 M144.4512,53.8562 C145.0202,54.1332 145.0972,54.6292 145.0972,55.1682 C145.1052,55.3292 145.1142,55.4912 145.1392,55.6472 C145.1562,55.7752 145.2112,55.9022 145.3592,55.9152 C145.5382,55.9282 145.6022,55.7872 145.6232,55.6432 C145.6482,55.4482 145.6402,55.2532 145.6482,55.0582 C145.6572,54.9562 145.6992,54.8842 145.8092,54.8882 C145.8952,54.8882 145.9872,54.8622 146.0472,54.9512 C146.3312,55.3462 145.9502,56.3612 145.4792,56.4882 C144.7742,56.6742 144.3202,56.3522 144.2652,55.6222 C144.2312,55.3552 144.2312,55.0872 144.1972,54.8202 C144.1032,54.2002 143.9002,54.0262 143.2802,54.0052 C142.1342,53.9712 142.1342,53.9712 142.1342,55.1212 C142.1342,55.5752 142.0922,56.0632 142.7882,55.9872 C142.9662,55.9702 142.9922,56.0892 142.9922,56.2292 C142.9922,56.3772 142.9402,56.4542 142.7712,56.4542 C142.0922,56.4502 141.4082,56.4502 140.7342,56.4542 C140.5902,56.4542 140.5042,56.4112 140.5042,56.2412 C140.4962,56.0632 140.5552,55.9742 140.7422,55.9872 C141.2472,56.0252 141.3112,55.7072 141.3112,55.3042 C141.2942,54.3402 141.2942,53.3732 141.3112,52.4092 C141.3112,52.0402 141.2392,51.7642 140.7932,51.7822 C140.6152,51.7852 140.4962,51.7602 140.5042,51.5222 C140.5092,51.2472 140.7042,51.3312 140.8442,51.3272 C141.8972,51.3232 142.9492,51.3192 144.0022,51.3272 C144.8502,51.3362 145.3092,51.6672 145.4362,52.3332 C145.5642,53.0292 145.2662,53.5002 144.4512,53.8562" id="Fill-75" fill="#303277"></path>
                    <path d="M137.4153,56.4543 L135.2683,56.4543 C135.0983,56.4543 134.9033,56.5003 134.9033,56.2073 C134.9113,55.9623 135.0723,55.9743 135.2333,55.9833 C135.6663,56.0043 135.7773,55.7663 135.7693,55.3803 C135.7603,54.3783 135.7603,53.3813 135.7773,52.3843 C135.7773,51.9813 135.6323,51.7773 135.2253,51.7773 C135.0643,51.7773 134.9033,51.8023 134.9033,51.5483 C134.9033,51.2803 135.0723,51.3273 135.2253,51.3273 C136.6603,51.3273 138.0813,51.3363 139.5073,51.3193 C139.8003,51.3143 139.8813,51.4033 139.8643,51.6793 C139.8513,52.1083 139.8643,52.5373 139.8553,52.9693 C139.8553,53.1053 139.8983,53.2583 139.6653,53.2583 C139.4693,53.2583 139.4013,53.2073 139.3673,52.9953 C139.2063,51.9643 139.0533,51.8453 138.0263,51.8403 L137.8053,51.8403 C136.6133,51.8403 136.6133,51.8403 136.6303,53.0423 C136.6393,53.2243 136.4733,53.5553 136.8803,53.5513 C137.2793,53.5513 137.7383,53.6743 137.9123,53.1313 C137.9413,53.0333 137.9333,52.9233 137.9333,52.8133 C137.9243,52.6553 137.9753,52.5833 138.1453,52.5883 C138.2983,52.5963 138.4213,52.6133 138.4213,52.8173 C138.4133,53.4623 138.4133,54.1023 138.4133,54.7433 C138.4213,54.9053 138.3913,55.0193 138.1963,55.0283 C137.9673,55.0413 137.9153,54.9303 137.9333,54.7353 C137.9503,54.3193 137.7893,54.0563 137.3343,54.0093 C136.6393,53.9373 136.6303,53.9453 136.6223,54.6463 C136.6223,55.9873 136.6223,55.9873 137.9583,55.9533 C139.1683,55.9193 139.3083,55.7923 139.4353,54.5693 C139.4523,54.3783 139.4693,54.2173 139.7323,54.2343 C139.9783,54.2513 139.9533,54.4173 139.9533,54.5693 C139.9533,55.0963 139.9363,55.6093 139.9533,56.1273 C139.9613,56.3903 139.8553,56.4623 139.6053,56.4583 C138.8753,56.4453 138.1453,56.4543 137.4153,56.4543" id="Fill-76" fill="#303277"></path>
                    <path d="M176.0261,54.905 C176.0261,54.014 176.0261,53.123 176.0341,52.231 C176.0341,51.854 175.7921,51.79 175.5081,51.782 C175.3301,51.773 175.2021,51.765 175.2111,51.527 C175.2151,51.255 175.4061,51.332 175.5501,51.328 C176.0261,51.323 176.5101,51.323 176.9931,51.328 C177.1541,51.328 177.3331,51.285 177.3331,51.544 C177.3331,51.743 177.2141,51.782 177.0531,51.782 C176.6751,51.786 176.5941,51.998 176.6031,52.346 C176.6201,53.556 176.6111,54.769 176.6031,55.987 C176.6031,56.144 176.7131,56.386 176.4591,56.437 C176.2301,56.484 175.9751,56.509 175.7881,56.246 C175.3301,55.592 174.8381,54.956 174.3541,54.311 C173.8871,53.687 173.4161,53.059 172.8261,52.439 L172.8261,53.347 C172.8261,54.027 172.8351,54.706 172.8181,55.38 C172.8091,55.771 172.9191,56.013 173.3521,55.983 C173.5391,55.97 173.6581,56.017 173.6501,56.242 C173.6321,56.45 173.5131,56.454 173.3611,56.454 C172.8261,56.45 172.2911,56.45 171.7561,56.454 C171.5911,56.454 171.4771,56.437 171.4771,56.229 C171.4771,56.042 171.5611,55.974 171.7311,55.987 C172.1641,56.008 172.2661,55.784 172.2571,55.385 C172.2321,54.387 172.2321,53.386 172.2571,52.388 C172.2661,51.989 172.1551,51.769 171.7391,51.777 C171.5701,51.782 171.4771,51.743 171.4771,51.544 C171.4771,51.328 171.5911,51.323 171.7481,51.323 C172.1721,51.328 172.6051,51.34 173.0291,51.323 C173.2841,51.311 173.3611,51.497 173.4711,51.65 C174.2941,52.745 175.1011,53.844 175.9161,54.939 C175.9531,54.931 175.9921,54.917 176.0261,54.905" id="Fill-77" fill="#303277"></path>
                    <path d="M123.4441,45.3352 C122.5201,45.3222 122.5201,45.3222 122.5201,46.2262 L122.5201,46.8162 C122.5201,46.9272 122.5451,47.0372 122.6891,47.0332 C123.2071,47.0072 123.7411,47.1262 124.2631,46.9432 C124.6841,46.7992 124.8151,46.4812 124.7941,46.0692 C124.7681,45.6192 124.4881,45.4072 124.0761,45.3392 C123.8731,45.3052 123.6571,45.3352 123.4441,45.3352 M122.5201,48.4412 C122.5201,49.4472 122.5201,49.4512 123.5161,49.4432 C123.7411,49.4432 123.9791,49.4302 124.2081,49.4092 C124.7001,49.3452 124.9721,49.0612 125.0061,48.5602 C125.0481,48.0852 124.7681,47.6782 124.2941,47.5842 C124.0221,47.5252 123.7291,47.5292 123.4531,47.5292 C122.5201,47.5252 122.5201,47.5252 122.5201,48.4412 M124.9681,47.2112 C125.8381,47.6312 126.0421,47.9662 125.9401,48.7422 C125.8631,49.3502 125.4221,49.7872 124.6291,49.8802 C123.4441,50.0162 122.2481,49.9102 121.0591,49.9352 C120.9151,49.9352 120.8721,49.8672 120.8721,49.7402 C120.8721,49.6092 120.8641,49.4682 121.0511,49.4852 C121.6791,49.5452 121.6701,49.1502 121.6621,48.7002 C121.6451,47.7712 121.6451,46.8462 121.6621,45.9202 C121.6701,45.5262 121.6191,45.2332 121.1191,45.3012 C120.9411,45.3262 120.8721,45.2332 120.8721,45.0552 C120.8721,44.8722 120.9491,44.8002 121.1271,44.8092 C122.2651,44.8432 123.4101,44.7152 124.5481,44.8852 C125.2181,44.9872 125.6001,45.3142 125.7021,45.8312 C125.8131,46.4052 125.6091,46.8072 124.9681,47.2112" id="Fill-78" fill="#303277"></path>
                    <path d="M121.6872,62.4421 C121.6242,62.5911 121.5772,62.6711 121.5602,62.7561 C121.5182,62.9381 121.3902,62.9681 121.2332,62.9551 C121.0252,62.9431 121.0512,62.7811 121.0512,62.6411 L121.0512,61.1941 C121.0512,61.0251 121.0512,60.8891 121.2972,60.8761 C121.5182,60.8681 121.5432,61.0031 121.5942,61.1641 C121.8992,62.1531 122.6852,62.6591 123.6572,62.4801 C124.1152,62.3951 124.4712,62.1751 124.5102,61.6651 C124.5562,61.1181 124.1272,60.9861 123.7242,60.9061 C123.2152,60.7961 122.6932,60.7491 122.1962,60.6381 C121.4162,60.4691 121.0512,60.0651 121.0172,59.3901 C120.9822,58.7201 121.3902,58.0961 122.0522,57.8671 C122.7732,57.6131 123.4872,57.6381 124.1702,58.0071 C124.3532,58.1051 124.5392,58.2911 124.6332,57.9261 C124.6712,57.7611 124.8022,57.7701 124.9292,57.7781 C125.1162,57.7911 125.0912,57.9391 125.0912,58.0581 L125.0912,59.3951 C125.0912,59.5261 125.1422,59.6921 124.9132,59.7091 C124.6962,59.7261 124.6662,59.6201 124.5992,59.4501 C124.2342,58.4911 123.7082,58.1641 122.7652,58.2911 C122.4942,58.3251 122.2482,58.4321 122.0522,58.6271 C121.6622,59.0171 121.7722,59.5481 122.3072,59.7001 C122.7822,59.8361 123.2832,59.8871 123.7712,59.9811 C124.9382,60.1971 125.4562,60.6931 125.3622,61.5381 C125.2562,62.5101 124.4372,63.1341 123.3342,63.0911 C122.7232,63.0661 122.1802,62.8791 121.6872,62.4421" id="Fill-79" fill="#303277"></path>
                    <path d="M143.781,49.4346 C143.705,49.5786 143.654,49.6726 143.62,49.7696 C143.56,49.9696 143.407,49.9356 143.272,49.9266 C143.085,49.9096 143.127,49.7536 143.127,49.6386 L143.127,48.2466 C143.127,48.0766 143.076,47.8896 143.361,47.8686 C143.636,47.8516 143.636,48.0296 143.679,48.1956 C143.917,49.0446 144.63,49.5496 145.509,49.5026 C145.826,49.4856 146.107,49.3926 146.344,49.1716 C146.769,48.7646 146.658,48.1996 146.107,47.9796 C145.623,47.7926 145.097,47.7796 144.588,47.6946 C143.506,47.5036 143.043,47.0536 143.094,46.2226 C143.149,45.3606 143.832,44.7626 144.8,44.6986 C145.326,44.6646 145.835,44.7366 146.294,45.0206 C146.463,45.1276 146.603,45.1946 146.693,44.9366 C146.752,44.7456 146.913,44.7786 147.049,44.7956 C147.236,44.8176 147.163,44.9876 147.163,45.0976 C147.176,45.5046 147.176,45.9166 147.163,46.3236 C147.159,46.4636 147.253,46.6586 146.989,46.6976 C146.735,46.7446 146.718,46.5576 146.65,46.3916 C146.311,45.4586 145.623,45.0766 144.689,45.3136 C144.257,45.4196 143.904,45.6446 143.9,46.1286 C143.891,46.6246 144.316,46.7016 144.681,46.7786 C145.152,46.8676 145.632,46.9176 146.098,47.0156 C147.066,47.2196 147.456,47.6696 147.422,48.4756 C147.388,49.2946 146.799,49.9186 145.928,50.0326 C145.143,50.1306 144.405,50.0246 143.781,49.4346" id="Fill-80" fill="#303277"></path>
                    <path d="M125.1589,52.4521 C125.1589,53.4791 125.1669,54.5101 125.1589,55.5421 C125.1509,55.9231 125.3969,55.9701 125.6849,55.9831 C125.8379,55.9871 126.0119,55.9531 126.0159,56.2081 C126.0249,56.5011 125.8209,56.4541 125.6469,56.4541 C125.1509,56.4541 124.6499,56.4581 124.1489,56.4541 C124.0009,56.4501 123.8139,56.5011 123.8009,56.2461 C123.7919,56.0081 123.9289,55.9741 124.1069,55.9831 C124.5439,56.0001 124.6239,55.7281 124.6239,55.3631 C124.6159,54.3621 124.6159,53.3641 124.6239,52.3631 C124.6329,51.9981 124.4969,51.7851 124.1149,51.7771 C123.9459,51.7731 123.7919,51.7731 123.8009,51.5311 C123.8049,51.2591 124.0009,51.3481 124.1489,51.3271 L124.1999,51.3271 C125.5579,51.2891 125.5579,51.2891 126.3599,52.3841 C126.9919,53.2411 127.6249,54.0991 128.3669,54.9221 C128.3669,53.9921 128.3709,53.0591 128.3629,52.1251 C128.3629,51.8321 128.1209,51.8191 127.9089,51.7771 C127.7559,51.7521 127.5269,51.8621 127.5349,51.5521 C127.5349,51.1961 127.7939,51.3401 127.9599,51.3361 C128.4019,51.3101 128.8509,51.3141 129.3009,51.3311 C129.4329,51.3361 129.6319,51.2381 129.6579,51.5101 C129.6829,51.7351 129.5559,51.7771 129.3779,51.7851 C129.0039,51.7981 128.9189,52.0191 128.9279,52.3631 C128.9359,53.5381 128.9359,54.7181 128.9189,55.8981 C128.9189,56.0801 129.0679,56.3561 128.7749,56.4411 C128.4859,56.5261 128.2479,56.4241 128.0449,56.1441 C127.4169,55.2611 126.7549,54.3911 126.1009,53.5251 C125.8259,53.1571 125.5409,52.7871 125.2649,52.4221 C125.2359,52.4311 125.2009,52.4431 125.1589,52.4521" id="Fill-81" fill="#303277"></path>
                    <path d="M150.9021,55.0662 L150.9021,52.1842 C150.9021,51.8372 150.6351,51.8022 150.3841,51.7772 C150.2231,51.7642 150.0581,51.7942 150.0621,51.5442 C150.0621,51.2722 150.2441,51.3272 150.3931,51.3272 C150.8941,51.3232 151.3901,51.3232 151.8951,51.3272 C152.0231,51.3272 152.1841,51.2762 152.1931,51.5142 C152.1931,51.6802 152.1581,51.7822 151.9631,51.7772 C151.4881,51.7692 151.4281,52.0742 151.4371,52.4602 C151.4451,53.6312 151.4451,54.8112 151.4281,55.9872 C151.4281,56.1442 151.5511,56.3822 151.2931,56.4412 C151.0641,56.4882 150.8211,56.4922 150.6351,56.2292 C149.9011,55.2102 149.1281,54.2002 148.3731,53.1912 C148.1771,52.9312 147.9821,52.6772 147.7961,52.4182 C147.6091,52.4942 147.6941,52.6432 147.6941,52.7442 C147.6861,53.6362 147.7021,54.5272 147.6771,55.4192 C147.6691,55.8042 147.7961,55.9912 148.1861,55.9832 C148.3391,55.9832 148.5261,55.9532 148.5261,56.2032 C148.5341,56.4962 148.3391,56.4542 148.1601,56.4542 C147.6601,56.4582 147.1631,56.4542 146.6621,56.4582 C146.4851,56.4582 146.3311,56.4542 146.3441,56.2122 C146.3441,56.0172 146.4631,55.9792 146.6241,55.9832 C147.0661,56.0002 147.1421,55.7452 147.1331,55.3682 C147.1171,54.3662 147.1171,53.3682 147.1331,52.3672 C147.1421,51.9942 147.0191,51.7852 146.6411,51.7772 C146.4551,51.7772 146.3231,51.7392 146.3441,51.5102 C146.3611,51.2852 146.5231,51.3272 146.6541,51.3272 C147.0101,51.3232 147.3711,51.3442 147.7281,51.3192 C148.0161,51.2972 148.1771,51.4172 148.3391,51.6372 C149.0481,52.6172 149.7691,53.5932 150.4911,54.5662 C150.5971,54.7012 150.7071,54.8282 150.9021,55.0662" id="Fill-82" fill="#303277"></path>
                    <path d="M154.3484,61.8945 C154.3484,61.6655 154.3564,61.4325 154.3484,61.1985 C154.3484,61.0245 154.3564,60.8805 154.5944,60.8755 C154.8024,60.8725 154.8574,60.9655 154.8834,61.1565 C155.0104,62.1445 156.1134,62.6585 157.0004,62.4715 C157.4544,62.3745 157.8034,62.1405 157.8114,61.6185 C157.8194,61.1265 157.4544,60.9955 157.0724,60.9185 C156.5464,60.8125 156.0204,60.7525 155.4944,60.6385 C154.7554,60.4775 154.3904,60.1085 154.3314,59.4965 C154.2634,58.7885 154.6074,58.1725 155.2654,57.9015 C155.9864,57.6035 156.7244,57.6215 157.4374,57.9815 C157.6164,58.0755 157.8194,58.3085 157.9384,57.9055 C157.9894,57.7525 158.1344,57.7655 158.2574,57.7775 C158.4524,57.7945 158.4014,57.9565 158.4054,58.0665 C158.4094,58.4785 158.4184,58.8855 158.4014,59.3015 C158.3884,59.4455 158.5244,59.6795 158.2104,59.7045 C157.9644,59.7265 157.9304,59.5515 157.8744,59.3825 C157.5564,58.5245 156.9924,58.1815 156.0924,58.2875 C155.8974,58.3085 155.7104,58.3635 155.5404,58.4745 C155.2734,58.6445 155.0774,58.8775 155.1204,59.2165 C155.1594,59.5475 155.4264,59.6925 155.7144,59.7475 C156.1734,59.8405 156.6274,59.8995 157.0894,59.9855 C158.3204,60.2095 158.7364,60.6685 158.6304,61.6695 C158.5414,62.5185 157.6974,63.1345 156.6524,63.0915 C156.1394,63.0705 155.6304,62.9595 155.2054,62.6115 C155.0534,62.4805 154.9254,62.4595 154.8834,62.7015 C154.8274,62.9255 154.6874,62.9985 154.4844,62.9475 C154.2594,62.8875 154.3654,62.6795 154.3564,62.5395 C154.3394,62.3225 154.3484,62.1065 154.3484,61.8945" id="Fill-83" fill="#303277"></path>
                    <path d="M142.4397,42.0674 C142.4397,40.9934 142.4487,40.0554 142.4397,39.1224 C142.4397,38.7954 142.1897,38.7864 141.9477,38.7824 C141.8037,38.7824 141.6077,38.8504 141.5997,38.5874 C141.5827,38.2864 141.7947,38.3414 141.9567,38.3414 C142.4567,38.3374 142.9577,38.3374 143.4547,38.3374 C143.6117,38.3374 143.7387,38.3374 143.7387,38.5534 C143.7387,38.7534 143.6497,38.7994 143.4837,38.7864 C142.9917,38.7484 142.9917,39.0884 142.9917,39.4194 C142.9827,40.5824 142.9917,41.7404 142.9827,42.8994 C142.9747,43.0694 143.1187,43.3324 142.8387,43.3954 C142.5757,43.4634 142.3377,43.4214 142.1427,43.1534 C141.2817,41.9694 140.4027,40.8024 139.5287,39.6314 C139.4567,39.5504 139.3937,39.4744 139.2397,39.2914 C139.2397,40.4844 139.2317,41.5584 139.2487,42.6364 C139.2487,42.9464 139.5117,42.9714 139.7577,42.9664 C139.9107,42.9634 140.0807,42.9284 140.0807,43.1874 C140.0807,43.4544 139.9107,43.4084 139.7577,43.4084 C139.2397,43.4124 138.7227,43.4124 138.1997,43.4124 C138.0387,43.4124 137.8737,43.4254 137.8737,43.1834 C137.8737,42.9244 138.0607,42.9634 138.2087,42.9664 C138.5477,42.9844 138.6887,42.8274 138.6887,42.4834 C138.6707,41.4134 138.6707,40.3444 138.6887,39.2704 C138.6887,38.9444 138.5647,38.7694 138.2177,38.7824 C138.0687,38.7914 137.8817,38.8424 137.8737,38.5794 C137.8647,38.2864 138.0777,38.3414 138.2477,38.3414 C138.5827,38.3324 138.9217,38.3544 139.2657,38.3324 C139.5627,38.3114 139.7497,38.4174 139.9187,38.6634 C140.6407,39.6654 141.3787,40.6454 142.1177,41.6304 C142.1897,41.7404 142.2787,41.8504 142.4397,42.0674" id="Fill-84" fill="#303277"></path>
                    <path d="M163.761,40.8623 C163.778,40.5393 163.714,40.1873 163.6,39.8523 C163.324,39.1013 162.7,38.6553 161.988,38.6803 C161.215,38.7103 160.57,39.2243 160.379,40.0093 C160.235,40.5943 160.23,41.1803 160.379,41.7573 C160.646,42.7933 161.563,43.2853 162.569,42.9663 C163.324,42.7213 163.753,41.9823 163.761,40.8623 M164.712,40.9003 C164.703,42.5173 163.651,43.5613 162.017,43.5613 C160.391,43.5573 159.301,42.4833 159.313,40.9003 C159.326,39.2323 160.375,38.1843 162.021,38.1883 C163.689,38.1973 164.72,39.2323 164.712,40.9003" id="Fill-85" fill="#303277"></path>
                    <path d="M166.6892,54.0054 C166.7152,54.1924 166.7232,54.4814 166.7912,54.7524 C166.9652,55.4224 167.3682,55.9064 168.0682,56.0344 C168.8192,56.1734 169.5032,55.9194 169.8302,55.3084 C170.3312,54.3704 170.3642,53.3904 169.8132,52.4604 C169.2272,51.4724 167.7752,51.4544 167.0972,52.3844 C166.7662,52.8424 166.7322,53.3774 166.6892,54.0054 M168.4422,56.5774 C166.8122,56.5774 165.7392,55.5124 165.7472,53.9164 C165.7562,52.2524 166.8042,51.1914 168.4422,51.2044 C170.0932,51.2174 171.1282,52.2394 171.1372,53.8614 C171.1492,55.5034 170.0852,56.5774 168.4422,56.5774" id="Fill-86" fill="#303277"></path>
                    <path d="M147.8977,60.3289 C147.9317,60.0439 147.8517,59.6959 147.7367,59.3609 C147.4607,58.6309 146.8667,58.1939 146.1667,58.2069 C145.3937,58.2149 144.7827,58.6779 144.5577,59.4499 C144.3577,60.1329 144.3497,60.8249 144.5917,61.5049 C144.9007,62.3489 145.7417,62.7599 146.6247,62.5099 C147.4527,62.2809 147.8977,61.5469 147.8977,60.3289 M143.4877,60.4089 C143.4877,58.7579 144.5157,57.7059 146.1237,57.7059 C147.7827,57.7019 148.8607,58.7539 148.8657,60.3839 C148.8697,62.0089 147.7617,63.1129 146.1487,63.0999 C144.5197,63.0829 143.4797,62.0479 143.4877,60.4089" id="Fill-87" fill="#303277"></path>
                    <path d="M127.3235,40.8662 C127.3235,41.1292 127.3155,41.3972 127.3905,41.6602 C127.6155,42.5592 128.1885,43.0562 129.0295,43.0562 C129.8785,43.0602 130.4805,42.5812 130.6975,41.6812 C130.8495,41.0362 130.8495,40.3782 130.5915,39.7462 C130.3415,39.1432 129.8955,38.7572 129.2285,38.6982 C128.5715,38.6342 128.0365,38.8892 127.6715,39.4362 C127.3835,39.8602 127.3065,40.3572 127.3235,40.8662 M131.7365,40.8832 C131.7365,42.5212 130.7185,43.5442 129.0675,43.5612 C127.4215,43.5742 126.3435,42.5042 126.3515,40.8662 C126.3725,39.2412 127.4125,38.1922 129.0385,38.1922 C130.7265,38.1922 131.7365,39.1982 131.7365,40.8832" id="Fill-88" fill="#303277"></path>
                    <path d="M141.9221,60.4136 C141.9141,60.2016 141.9141,59.9806 141.8801,59.7726 C141.7181,58.8346 141.0311,58.1986 140.1991,58.2066 C139.3121,58.2106 138.6291,58.8396 138.4931,59.8026 C138.4131,60.3496 138.3961,60.9096 138.5911,61.4406 C138.8241,62.0816 139.2661,62.4886 139.9531,62.5656 C140.6241,62.6376 141.1921,62.4296 141.5661,61.8436 C141.8411,61.4066 141.9391,60.9266 141.9221,60.4136 M137.4961,60.4306 C137.4961,58.7626 138.5611,57.6886 140.1821,57.7016 C141.8411,57.7146 142.8901,58.7586 142.8811,60.4176 C142.8731,62.0346 141.8201,63.0826 140.1991,63.0996 C138.5741,63.1086 137.5051,62.0476 137.4961,60.4306" id="Fill-89" fill="#303277"></path>
                    <path d="M154.7981,52.1506 C154.5181,52.8806 154.2631,53.5296 153.9871,54.2296 C154.4931,54.2296 154.9301,54.2296 155.3751,54.2346 C155.6511,54.2436 155.6591,54.1326 155.5701,53.9166 C155.3161,53.3566 155.0741,52.7876 154.7981,52.1506 M156.8271,56.4496 C156.4871,56.4496 156.1481,56.4496 155.8041,56.4546 C155.6591,56.4546 155.5701,56.4076 155.5621,56.2456 C155.5531,56.0676 155.6171,55.9996 155.8001,55.9786 C155.9991,55.9576 156.4021,56.0806 156.2831,55.7156 C156.1641,55.3636 156.2241,54.7986 155.6341,54.7606 C155.2271,54.7346 154.8061,54.8036 154.4071,54.7436 C153.8811,54.6716 153.6861,54.9176 153.5421,55.3636 C153.4141,55.7746 153.4691,55.9916 153.9321,55.9836 C154.1281,55.9836 154.3061,55.9836 154.2801,56.2546 C154.2551,56.5086 154.0681,56.4496 153.9241,56.4496 C153.3811,56.4546 152.8461,56.4496 152.3161,56.4496 C152.1461,56.4546 151.9881,56.4626 151.9881,56.2166 C151.9881,56.0166 152.1071,55.9836 152.2601,55.9836 C152.6891,55.9786 152.8291,55.6646 152.9561,55.3416 C153.4401,54.1366 153.9411,52.9356 154.4161,51.7226 C154.5221,51.4376 154.6451,51.3066 154.9761,51.3106 C155.2951,51.3186 155.4471,51.4126 155.5701,51.7006 C156.0801,52.9406 156.6141,54.1666 157.1401,55.3926 C157.2721,55.6986 157.4081,56.0296 157.8541,55.9916 C158.0101,55.9746 158.0661,56.0726 158.0661,56.2206 C158.0661,56.4246 157.9551,56.4546 157.7861,56.4546 C157.4671,56.4496 157.1491,56.4496 156.8271,56.4496" id="Fill-90" fill="#303277"></path>
                    <path d="M83.1955,31.2117 C85.1185,30.6557 87.0575,30.2737 89.0735,30.7147 C89.4385,30.7957 89.5915,30.9487 89.4725,31.3307 C89.0355,32.8627 89.2645,32.7817 87.7115,32.7737 C86.2345,32.7697 84.8595,32.3617 83.5865,31.6067 C83.4455,31.5217 83.2505,31.4837 83.1955,31.2117" id="Fill-91" fill="#303277"></path>
                    <path d="M148.738,39.2878 C148.738,39.4828 148.755,39.6828 148.738,39.8728 C148.721,40.0258 148.852,40.2508 148.568,40.3018 C148.301,40.3528 148.271,40.1748 148.203,39.9708 C147.936,39.1258 147.303,38.6938 146.476,38.7738 C145.538,38.8628 144.918,39.7718 144.952,41.0148 C144.99,42.1398 145.623,42.8988 146.556,42.9458 C147.253,42.9758 147.881,42.5808 148.169,41.9228 C148.22,41.8088 148.28,41.6938 148.292,41.5708 C148.347,41.2988 148.559,41.3668 148.721,41.3888 C148.942,41.4178 148.835,41.5958 148.814,41.7238 C148.611,42.8738 147.758,43.5608 146.54,43.5568 C145.245,43.5568 144.26,42.7808 144.052,41.5798 C143.925,40.8578 143.972,40.1538 144.312,39.4958 C144.944,38.2778 146.472,37.8108 147.66,38.4858 C147.898,38.6168 148.101,38.8338 148.237,38.3918 C148.288,38.2178 148.47,38.2568 148.611,38.2818 C148.784,38.3158 148.738,38.4768 148.738,38.5918 C148.746,38.8208 148.738,39.0538 148.738,39.2878" id="Fill-92" fill="#303277"></path>
                    <path d="M130.6423,58.8091 L130.6423,59.5561 C130.6423,59.7001 130.6673,59.8451 130.4473,59.8531 C130.2603,59.8621 130.1843,59.7681 130.1543,59.6111 C130.0993,59.3481 129.9883,59.1021 129.8183,58.8941 C129.1273,58.0161 127.8323,58.0801 127.2383,59.0381 C126.7383,59.8581 126.7383,60.7321 127.1233,61.5971 C127.3913,62.1621 127.8793,62.4551 128.4953,62.4631 C129.1573,62.4761 129.6703,62.1921 129.9973,61.6151 C130.0813,61.4571 130.1623,61.2881 130.1963,61.1221 C130.2603,60.8511 130.4553,60.9021 130.6253,60.9271 C130.8463,60.9651 130.7483,61.1521 130.7353,61.2711 C130.5613,62.3401 129.7333,63.0281 128.5453,63.0911 C127.2463,63.1591 126.2153,62.3531 125.9563,61.0801 C125.6643,59.6621 126.3303,58.2661 127.5273,57.8711 C128.2653,57.6301 129.0123,57.6301 129.6783,58.0801 C129.8873,58.2071 130.0263,58.2701 130.1073,57.9821 C130.1753,57.7821 130.3193,57.7531 130.4893,57.7821 C130.7353,57.8201 130.6253,58.0281 130.6423,58.1641 C130.6593,58.3761 130.6423,58.5971 130.6423,58.8091" id="Fill-93" fill="#303277"></path>
                    <path d="M125.7361,39.313 C125.7361,39.529 125.7441,39.746 125.7281,39.958 C125.7191,40.103 125.7961,40.289 125.5321,40.306 C125.2951,40.323 125.2861,40.17 125.2361,40.017 C124.8961,39.105 124.3611,38.715 123.5381,38.77 C122.5791,38.838 121.9511,39.716 121.9671,40.955 C121.9761,42.114 122.6001,42.895 123.5631,42.946 C124.3191,42.988 124.9891,42.526 125.2531,41.732 C125.3371,41.461 125.4471,41.295 125.7191,41.388 C126.0041,41.481 125.8251,41.732 125.7961,41.889 C125.5751,42.882 124.8111,43.472 123.7081,43.557 C122.5621,43.637 121.5771,43.056 121.2041,42.029 C120.8301,40.993 120.9151,39.979 121.5941,39.088 C122.3161,38.137 123.6821,37.908 124.7261,38.52 C124.9431,38.651 125.1081,38.782 125.2271,38.418 C125.2781,38.252 125.4391,38.257 125.5831,38.277 C125.7701,38.299 125.7281,38.452 125.7281,38.566 C125.7361,38.817 125.7361,39.067 125.7361,39.313" id="Fill-94" fill="#303277"></path>
                    <path d="M167.53,38.3413 C168.204,38.3413 168.884,38.3493 169.558,38.3373 C169.847,38.3283 169.987,38.3873 169.97,38.7143 C169.944,39.1223 169.966,39.5333 169.961,39.9453 C169.957,40.0893 170.025,40.2763 169.758,40.2893 C169.525,40.2983 169.516,40.1743 169.482,39.9963 C169.312,38.9993 169.066,38.8033 168.009,38.8033 C166.774,38.7993 166.766,38.7993 166.791,40.0173 C166.791,40.2123 166.647,40.5393 167.054,40.5143 C167.424,40.4883 167.886,40.6713 168.039,40.1233 C168.073,40.0093 168.073,39.8823 168.064,39.7503 C168.064,39.5423 168.187,39.5383 168.344,39.5333 C168.506,39.5333 168.569,39.6013 168.569,39.7543 C168.561,40.4333 168.561,41.1173 168.569,41.7953 C168.569,41.9993 168.455,42.0163 168.294,42.0203 C168.09,42.0203 168.064,41.9023 168.064,41.7403 C168.064,41.4053 168.026,41.0953 167.597,41.0273 C166.863,40.9133 166.783,40.9723 166.783,41.7283 C166.783,41.9233 166.8,42.1183 166.783,42.3173 C166.736,42.7463 166.855,43.0223 167.36,42.9663 C167.521,42.9463 167.623,42.9843 167.623,43.1873 C167.623,43.4043 167.513,43.4173 167.352,43.4173 C166.694,43.4133 166.031,43.4133 165.374,43.4173 C165.204,43.4173 165.098,43.3793 165.098,43.1793 C165.098,42.9663 165.234,42.9543 165.382,42.9663 C165.811,43.0053 165.934,42.7893 165.926,42.3893 C165.917,41.3713 165.917,40.3573 165.926,39.3383 C165.934,38.9693 165.845,38.7443 165.425,38.7823 C165.263,38.7993 165.089,38.8123 165.098,38.5573 C165.107,38.3033 165.285,38.3413 165.437,38.3413 L167.53,38.3413" id="Fill-95" fill="#303277"></path>
                    <path d="M132.6618,40.6711 L132.6618,39.3341 C132.6618,38.9821 132.5598,38.7441 132.1358,38.7821 C131.9998,38.8001 131.8478,38.8081 131.8438,38.5871 C131.8298,38.3411 131.9748,38.3371 132.1528,38.3371 L134.0198,38.3371 C134.1638,38.3371 134.3078,38.3321 134.3078,38.5491 C134.3168,38.7481 134.2198,38.8041 134.0458,38.7861 C133.5958,38.7311 133.5188,38.9901 133.5278,39.3721 C133.5448,40.1751 133.5278,40.9761 133.5368,41.7791 C133.5448,42.4871 133.8848,42.8561 134.5928,42.9461 C135.3868,43.0391 136.0228,42.6951 136.1338,42.0461 C136.2948,41.0741 136.1848,40.0891 136.1888,39.1131 C136.1888,38.8001 135.9298,38.7781 135.6798,38.7861 C135.5308,38.7911 135.3528,38.8291 135.3528,38.5701 C135.3528,38.3031 135.5218,38.3411 135.6758,38.3371 C136.2098,38.3371 136.7448,38.3411 137.2798,38.3371 C137.4408,38.3371 137.5598,38.3581 137.5598,38.5661 C137.5678,38.7701 137.4408,38.8041 137.2838,38.7861 C136.8468,38.7361 136.7358,38.9731 136.7448,39.3641 C136.7618,40.1831 136.7578,41.0061 136.7488,41.8291 C136.7358,42.7721 136.2138,43.3531 135.2848,43.5101 C134.8608,43.5821 134.4358,43.5651 134.0158,43.4931 C133.1498,43.3451 132.6788,42.7841 132.6618,41.9021 L132.6618,40.6711" id="Fill-96" fill="#303277"></path>
                    <path d="M160.1877,51.3276 C160.8457,51.3276 161.5117,51.3396 162.1657,51.3236 C162.4417,51.3146 162.5557,51.3826 162.5387,51.6756 C162.5217,52.0996 162.5307,52.5286 162.5387,52.9616 C162.5387,53.1266 162.5477,53.2756 162.2967,53.2756 C162.0597,53.2796 162.0767,53.1306 162.0597,52.9656 C161.9617,52.0406 161.7027,51.7946 160.9347,51.8366 C160.6967,51.8536 160.6337,51.9296 160.6377,52.1546 C160.6377,53.2756 160.6457,54.4046 160.6337,55.5246 C160.6287,55.8976 160.8337,55.9706 161.1387,55.9836 C161.2917,55.9916 161.5117,55.9106 161.5167,56.2126 C161.5207,56.5516 161.2657,56.4456 161.1047,56.4496 C160.4717,56.4586 159.8487,56.4546 159.2247,56.4546 C159.0757,56.4546 158.8977,56.4876 158.8897,56.2376 C158.8727,56.0036 159.0077,55.9706 159.1897,55.9836 C159.6447,56.0166 159.7547,55.7746 159.7427,55.3636 C159.7257,54.4166 159.7507,53.4706 159.7297,52.5246 C159.7257,52.2996 159.9417,51.9256 159.4917,51.8456 C158.9397,51.7556 158.5497,51.9516 158.4057,52.3966 C158.3457,52.5966 158.3127,52.8126 158.2987,53.0206 C158.2907,53.1906 158.2657,53.2796 158.0697,53.2796 C157.8627,53.2756 157.8457,53.1646 157.8457,53.0036 C157.8537,52.5416 157.8627,52.0786 157.8457,51.6116 C157.8367,51.3696 157.9297,51.3186 158.1587,51.3236 C158.8297,51.3356 159.5127,51.3276 160.1877,51.3276" id="Fill-97" fill="#303277"></path>
                    <path d="M151.5984,62.9597 C150.9574,62.9597 150.3084,62.9637 149.6714,62.9557 C149.5014,62.9557 149.2464,63.0487 149.2384,62.7267 C149.2304,62.4337 149.4514,62.4847 149.6204,62.4847 C149.9774,62.4887 150.0664,62.3057 150.0614,61.9837 C150.0574,60.9487 150.0444,59.9087 150.0664,58.8727 C150.0754,58.4697 149.9524,58.2617 149.5274,58.2917 C149.3834,58.3007 149.2464,58.3087 149.2304,58.0877 C149.2304,57.8457 149.3704,57.8417 149.5444,57.8457 C150.1894,57.8457 150.8344,57.8457 151.4794,57.8417 C151.6494,57.8417 151.7934,57.8417 151.7854,58.0837 C151.7854,58.3037 151.6494,58.3037 151.5054,58.2917 C151.0044,58.2487 150.9114,58.5207 150.9194,58.9537 C150.9364,59.9677 150.9364,60.9867 150.9194,62.0047 C150.9114,62.3577 151.0204,62.4887 151.3694,62.4547 C151.5814,62.4337 151.8024,62.4507 152.0144,62.4507 C153.0494,62.4507 153.3294,62.1957 153.4574,61.1647 C153.4824,61.0037 153.3594,60.7357 153.7074,60.7577 C154.0634,60.7747 153.9074,61.0367 153.9154,61.1947 C153.9324,61.6397 153.8944,62.0857 153.9324,62.5357 C153.9574,62.9087 153.8054,62.9897 153.4734,62.9637 C153.1514,62.9427 152.8294,62.9597 152.5154,62.9597 L151.5984,62.9597" id="Fill-98" fill="#303277"></path>
                    <path d="M154.7048,43.417 C154.0508,43.417 153.3848,43.421 152.7268,43.413 C152.5828,43.413 152.3958,43.485 152.3788,43.218 C152.3538,42.92 152.5488,42.954 152.7268,42.967 C153.1088,42.992 153.2368,42.784 153.2368,42.441 L153.2368,39.283 C153.2368,38.94 153.0918,38.749 152.7098,38.782 C152.5748,38.8 152.3878,38.851 152.3788,38.579 C152.3708,38.277 152.5658,38.341 152.7358,38.341 C153.3468,38.337 153.9498,38.333 154.5598,38.341 C154.7138,38.346 154.9428,38.243 154.9588,38.545 C154.9758,38.846 154.7648,38.804 154.6028,38.782 C154.1868,38.74 154.0678,38.957 154.0678,39.322 C154.0678,40.395 154.0728,41.465 154.0598,42.538 C154.0598,42.878 154.1868,42.98 154.5008,42.95 C154.6708,42.929 154.8578,42.946 155.0358,42.946 C156.2328,42.946 156.4448,42.755 156.5978,41.554 C156.6108,41.371 156.6268,41.252 156.8518,41.248 C157.0988,41.244 157.1068,41.384 157.1068,41.558 C157.0988,42.063 157.0898,42.56 157.1068,43.06 C157.1238,43.345 157.0178,43.43 156.7418,43.421 C156.0628,43.408 155.3838,43.417 154.7048,43.417" id="Fill-99" fill="#303277"></path>
                    <path d="M137.2961,44.8047 C137.9371,44.8047 138.5871,44.8217 139.2231,44.7957 C139.5371,44.7877 139.6811,44.8557 139.6561,45.2037 C139.6221,45.6317 139.6481,46.0607 139.6481,46.4937 C139.6481,46.6417 139.6481,46.7737 139.4351,46.7737 C139.2401,46.7737 139.1891,46.6767 139.1641,46.5147 C139.1471,46.3197 139.1381,46.1157 139.0881,45.9297 C138.9681,45.4537 138.2551,45.1317 137.8311,45.3307 C137.6701,45.4077 137.7211,45.5387 137.7211,45.6537 C137.7211,46.7397 137.7301,47.8307 137.7121,48.9217 C137.7121,49.2987 137.8561,49.4897 138.2381,49.4897 C138.4001,49.4897 138.6291,49.4047 138.6291,49.7017 C138.6291,50.0497 138.3661,49.9227 138.2041,49.9317 C137.5761,49.9437 136.9571,49.9397 136.3241,49.9317 C136.1851,49.9317 135.9891,50.0037 135.9811,49.7277 C135.9721,49.4857 136.1171,49.4777 136.2911,49.4857 C136.7361,49.5107 136.8721,49.2907 136.8631,48.8667 C136.8421,47.8437 136.8421,46.8247 136.8681,45.8107 C136.8801,45.4077 136.7781,45.2797 136.3711,45.3187 C135.8021,45.3647 135.5391,45.5727 135.4461,46.1537 C135.4161,46.3117 135.3991,46.4687 135.3781,46.6297 C135.3531,46.7697 135.2381,46.7697 135.1321,46.7737 C135.0041,46.7737 134.9371,46.7227 134.9371,46.5827 L134.9371,45.0297 C134.9281,44.7787 135.0981,44.8047 135.2591,44.8047 L137.2961,44.8047" id="Fill-100" fill="#303277"></path>
                    <path d="M132.2888,51.3276 C132.9298,51.3276 133.5788,51.3396 134.2108,51.3236 C134.4958,51.3146 134.6398,51.3656 134.6148,51.6926 C134.5848,52.1166 134.6148,52.5456 134.6058,52.9776 C134.6058,53.1056 134.6478,53.2626 134.4148,53.2756 C134.1858,53.2836 134.1858,53.1606 134.1558,52.9826 C134.0118,51.9976 133.8118,51.8116 133.0358,51.8366 C132.7888,51.8456 132.6878,51.9046 132.6958,52.1716 C132.7048,53.2756 132.7048,54.3876 132.6958,55.4906 C132.6958,55.8726 132.8998,55.9866 133.2308,55.9836 C133.4088,55.9786 133.6128,55.9616 133.5958,56.2416 C133.5788,56.5306 133.3498,56.4496 133.1968,56.4496 C132.5558,56.4586 131.9148,56.4496 131.2698,56.4546 C131.0968,56.4546 130.9518,56.4496 130.9598,56.2076 C130.9648,55.9996 131.0838,55.9706 131.2448,55.9836 C131.7708,56.0336 131.8438,55.7416 131.8348,55.2956 C131.8048,54.3666 131.8388,53.4366 131.8128,52.5116 C131.8048,52.2996 132.0388,51.9216 131.6178,51.8616 C131.2028,51.7946 130.7478,51.7986 130.5228,52.2996 C130.4338,52.4816 130.4298,52.6766 130.3998,52.8686 C130.3748,53.0376 130.4468,53.2926 130.1248,53.2706 C129.8188,53.2496 129.9118,53.0296 129.9208,52.8716 C129.9288,52.3756 129.7048,51.7386 129.9968,51.4246 C130.2938,51.1106 130.9388,51.3576 131.4318,51.3316 C131.7118,51.3146 132.0048,51.3276 132.2888,51.3276" id="Fill-101" fill="#303277"></path>
                    <path d="M150.6394,43.417 C150.2994,43.417 149.9604,43.408 149.6204,43.421 C149.4294,43.425 149.3744,43.345 149.3744,43.166 C149.3834,42.988 149.4634,42.946 149.6124,42.967 C150.1634,43.043 150.2104,42.712 150.2024,42.279 C150.1854,41.316 150.1854,40.357 150.2024,39.394 C150.2104,38.982 150.1214,38.728 149.6414,38.787 C149.4804,38.804 149.3744,38.779 149.3744,38.566 C149.3744,38.366 149.4674,38.337 149.6414,38.337 C150.2994,38.341 150.9614,38.341 151.6194,38.337 C151.7804,38.337 151.8874,38.354 151.8954,38.558 C151.8954,38.757 151.8024,38.808 151.6324,38.787 C151.1654,38.728 151.0554,38.978 151.0634,39.385 C151.0804,40.387 151.0764,41.384 151.0634,42.382 C151.0594,42.763 151.1484,43.014 151.5984,42.967 C151.7804,42.946 151.9044,42.976 151.8954,43.218 C151.8784,43.438 151.7434,43.417 151.5984,43.417 L150.6394,43.417" id="Fill-102" fill="#303277"></path>
                    <path d="M141.175,49.9314 C140.853,49.9314 140.535,49.9274 140.208,49.9314 C140.047,49.9354 139.945,49.9184 139.945,49.7104 C139.945,49.5114 140.038,49.4684 140.208,49.4814 C140.666,49.5154 140.785,49.2824 140.776,48.8574 C140.751,47.8814 140.755,46.9014 140.768,45.9164 C140.776,45.5264 140.721,45.2284 140.225,45.3054 C140.012,45.3394 139.936,45.2464 139.945,45.0334 C139.953,44.8434 140.038,44.8004 140.208,44.8004 C140.874,44.8094 141.532,44.8094 142.19,44.8004 C142.36,44.8004 142.457,44.8434 142.457,45.0334 C142.466,45.2464 142.384,45.3394 142.177,45.3054 C141.685,45.2284 141.625,45.5174 141.625,45.9164 C141.642,46.8964 141.646,47.8774 141.625,48.8574 C141.621,49.2774 141.736,49.5154 142.185,49.4814 C142.355,49.4734 142.457,49.5064 142.457,49.7064 C142.466,49.9734 142.296,49.9314 142.143,49.9314 L141.175,49.9314" id="Fill-103" fill="#303277"></path>
                    <path d="M122.1286,51.3276 L123.0876,51.3276 C123.2496,51.3276 123.4196,51.2936 123.4196,51.5526 C123.4106,51.7606 123.2826,51.7816 123.1266,51.7726 C122.6806,51.7556 122.5706,51.9816 122.5786,52.4056 C122.6046,53.4196 122.5996,54.4386 122.5786,55.4486 C122.5786,55.8086 122.6976,55.9866 123.0626,55.9836 C123.2406,55.9786 123.4366,55.9576 123.4106,56.2416 C123.3936,56.5306 123.1686,56.4496 123.0116,56.4496 C122.4046,56.4586 121.7976,56.4546 121.1956,56.4546 C121.0336,56.4546 120.8726,56.4796 120.8646,56.2286 C120.8646,55.9916 120.9996,55.9706 121.1736,55.9836 C121.6456,56.0166 121.7386,55.7366 121.7296,55.3416 C121.7176,54.3616 121.7126,53.3856 121.7386,52.4056 C121.7386,51.9816 121.5856,51.7646 121.1526,51.7816 C120.9616,51.7856 120.8556,51.7476 120.8646,51.5186 C120.8806,51.2896 121.0256,51.3276 121.1656,51.3276 L122.1286,51.3276" id="Fill-104" fill="#303277"></path>
                    <path d="M133.3752,49.9314 L132.4072,49.9314 C132.2542,49.9314 132.0842,49.9654 132.0842,49.7064 C132.0932,49.4984 132.2122,49.4814 132.3732,49.4854 C132.8322,49.5194 132.9252,49.2774 132.9212,48.8664 C132.8992,47.8514 132.9042,46.8244 132.9212,45.8104 C132.9212,45.4494 132.8232,45.2634 132.4412,45.3054 C132.2422,45.3264 132.0762,45.3184 132.0842,45.0384 C132.0932,44.7544 132.2972,44.8044 132.4672,44.8044 C133.0742,44.8044 133.6762,44.8094 134.2922,44.8044 C134.4872,44.8004 134.6402,44.8044 134.6312,45.0764 C134.6232,45.3224 134.4702,45.3224 134.3002,45.3054 C133.8422,45.2544 133.7652,45.5174 133.7652,45.8914 C133.7742,46.8924 133.7822,47.8894 133.7652,48.8914 C133.7652,49.2904 133.9092,49.5024 134.3252,49.4854 C134.4952,49.4814 134.6402,49.4894 134.6312,49.7324 C134.6232,50.0034 134.4272,49.9224 134.2922,49.9274 C133.9862,49.9354 133.6762,49.9314 133.3752,49.9314" id="Fill-105" fill="#303277"></path>
                    <path d="M164.1262,51.3276 L165.0852,51.3276 C165.2212,51.3276 165.3742,51.2936 165.3742,51.5266 C165.3742,51.7096 165.3142,51.7856 165.1272,51.7726 C164.5802,51.7346 164.5002,52.0536 164.5082,52.5156 C164.5332,53.4576 164.5252,54.4086 164.5082,55.3546 C164.5002,55.7666 164.6102,56.0086 165.0682,55.9836 C165.2472,55.9746 165.3822,55.9916 165.3742,56.2336 C165.3652,56.4916 165.1952,56.4546 165.0432,56.4546 L163.1162,56.4546 C162.9712,56.4546 162.8272,56.4666 162.8102,56.2506 C162.7972,56.0206 162.9292,55.9706 163.1072,55.9836 C163.6172,56.0256 163.6802,55.7236 163.6762,55.3126 C163.6592,54.3486 163.6592,53.3856 163.6762,52.4226 C163.6852,52.0146 163.5832,51.7606 163.1292,51.7726 C162.9552,51.7816 162.8022,51.7726 162.8102,51.5306 C162.8192,51.2596 163.0142,51.3316 163.1542,51.3316 C163.4802,51.3236 163.8042,51.3276 164.1262,51.3276" id="Fill-106" fill="#303277"></path>
                    <path d="M81.7956,18.2844 C80.8016,19.7694 79.8176,21.2594 79.1556,22.9364 C78.5016,24.6044 78.3066,26.3474 78.2856,28.1264 C77.8996,27.7184 77.8566,27.2474 77.8566,26.7724 C77.8566,24.1114 78.6886,21.7394 80.3776,19.6774 C80.7936,19.1714 81.2346,18.6874 81.6766,18.1994 C81.7106,18.2294 81.7526,18.2544 81.7956,18.2844" id="Fill-107" fill="#303277"></path>
                    <path d="M82.5505,31.7588 C83.7895,33.2578 85.2195,34.4368 87.2185,35.0058 C86.6845,35.5318 86.0775,35.8328 85.4455,36.0838 C85.3095,36.1388 85.1855,35.9898 85.0795,35.9008 C83.7265,34.8318 83.0125,33.3678 82.5505,31.7588" id="Fill-108" fill="#303277"></path>
                    <path d="M87.5837,24.8625 C86.8797,24.4975 86.2257,24.4255 85.4877,24.7695 C86.2167,22.4315 87.2277,20.3605 88.5857,18.4465 C87.7107,20.4745 86.8707,22.4945 87.5837,24.8625" id="Fill-109" fill="#E6262A"></path>
                    <path d="M84.5876,32.8032 C85.8526,33.4392 87.2396,33.2482 88.5936,33.4092 C88.1186,34.3472 87.9356,34.4412 86.9896,34.1952 C86.0646,33.9612 85.2666,33.4942 84.5876,32.8032" id="Fill-110" fill="#E6262A"></path>
                    <path d="M77.7976,28.3853 C76.9486,28.6403 76.4056,28.2623 76.4146,27.4473 C76.4146,26.8363 76.6306,26.1063 77.0336,25.4313 C77.1016,26.4963 77.1266,27.5283 77.7976,28.3853" id="Fill-111" fill="#303277"></path>
                    <path d="M78.3152,33.8557 C78.5612,33.7157 78.6462,33.4057 78.9522,33.2867 C79.1682,34.1357 79.3382,34.9887 79.8172,35.7567 C79.0872,35.4717 78.5022,35.0097 78.0652,34.3647 C77.9162,34.1307 78.2982,34.0417 78.3322,33.8387 L78.3152,33.8557 Z" id="Fill-112" fill="#303277"></path>
                    <path d="M76.864,31.7168 C77.415,31.9718 77.878,32.3358 78.493,32.2558 C78.528,32.4508 78.374,32.5148 78.281,32.6118 C77.399,33.5198 77.314,33.4988 76.97,32.2678 C76.924,32.0988 76.906,31.9248 76.864,31.7168" id="Fill-113" fill="#303277"></path>
                    <path d="M77.5681,26.6453 C77.1951,25.3843 77.6021,24.2343 78.0861,23.0933 C77.8491,24.2643 77.4871,25.4273 77.5681,26.6453" id="Fill-114" fill="#E6262A"></path>
                    <path d="M78.3152,33.8557 L78.3322,33.8387 C78.0942,33.7317 77.6912,34.1827 77.6192,33.6767 C77.5602,33.3167 78.0352,33.3297 78.2222,33.1167 C78.2732,33.0577 78.3742,33.0447 78.4422,33.0027 L78.4382,32.9897 C78.5992,33.3077 78.0442,33.5247 78.3152,33.8557" id="Fill-115" fill="#E6262A"></path>
                    <path d="M88.5173,26.4626 C88.5433,26.4756 88.5683,26.4876 88.5943,26.4966 C88.5773,26.5096 88.5513,26.5176 88.5343,26.5306 C88.5343,26.5056 88.5263,26.4836 88.5263,26.4586 L88.5173,26.4626 Z" id="Fill-116" fill="#303277"></path>
                    <path d="M78.4509,32.9983 C78.4679,32.9773 78.4849,32.9553 78.5019,32.9383 C78.5109,32.9513 78.5109,32.9683 78.5149,32.9813 C78.4849,32.9853 78.4679,32.9853 78.4429,32.9853 L78.4509,32.9983 Z" id="Fill-117" fill="#E6262A"></path>
                </g>
            </g>
        </g>
    </g>
</svg>