<?xml version="1.0" encoding="UTF-8"?>
<svg width="16px" height="16px" viewBox="0 0 16 16" version="1.1" xmlns="http://www.w3.org/2000/svg" xmlns:xlink="http://www.w3.org/1999/xlink">
    <!-- Generator: Sketch 53 (72520) - https://sketchapp.com -->
    <title>Artboard</title>
    <desc>Created with Sketch.</desc>
    <g id="Artboard" stroke="none" stroke-width="1" fill="none" fill-rule="evenodd">
        <g id="double-right-copy" transform="translate(8.000000, 8.000000) rotate(-270.000000) translate(-8.000000, -8.000000) " fill-rule="nonzero">
            <path d="M8.51442308,7.52490942 L2.37740385,0.138134058 C2.30528846,0.0498188406 2.19230769,0 2.07451923,0 L0.216346154,0 C0.0552884615,0 -0.0336538462,0.174365942 0.0649038462,0.292119565 L6.44471154,7.97101449 L0.0649038462,15.6499094 C-0.0336538462,15.767663 0.0552884615,15.942029 0.216346154,15.942029 L2.07451923,15.942029 C2.19230769,15.942029 2.30528846,15.8899457 2.37740385,15.8038949 L8.51442308,8.41938406 C8.73317308,8.15443841 8.73317308,7.78759058 8.51442308,7.52490942 Z" id="Path" fill="#696969"></path>
            <path d="M15.8221154,7.52490942 L9.68509615,0.138134058 C9.61298077,0.0498188406 9.5,0 9.38221154,0 L7.52403846,0 C7.36298077,0 7.27403846,0.174365942 7.37259615,0.292119565 L13.7524038,7.97101449 L7.37259615,15.6499094 C7.27403846,15.767663 7.36298077,15.942029 7.52403846,15.942029 L9.38221154,15.942029 C9.5,15.942029 9.61298077,15.8899457 9.68509615,15.8038949 L15.8221154,8.41938406 C16.0408654,8.15443841 16.0408654,7.78759058 15.8221154,7.52490942 Z" id="Path" fill="#AAAAAA"></path>
        </g>
    </g>
</svg>