<?xml version="1.0" encoding="UTF-8"?>
<svg width="12px" height="12px" viewBox="0 0 12 12" version="1.1" xmlns="http://www.w3.org/2000/svg" xmlns:xlink="http://www.w3.org/1999/xlink">
    <!-- Generator: Sketch 53 (72520) - https://sketchapp.com -->
    <title>icon-chat</title>
    <desc>Created with Sketch.</desc>
    <g id="icon-chat" stroke="none" stroke-width="1" fill="none" fill-rule="evenodd">
        <path d="M11.25,0.5 C11.4609386,0.5 11.6386712,0.572264902 11.7832031,0.716796875 C11.9277351,0.861328848 12,1.03906145 12,1.25 L12,8.01171875 C12,8.2226573 11.9277351,8.4003899 11.7832031,8.54492188 C11.6386712,8.68945385 11.4609386,8.76171875 11.25,8.76171875 L5.05078125,8.76171875 L2.8828125,10.8945312 C2.8437498,10.9335939 2.80273459,10.9609374 2.75976562,10.9765625 C2.71679666,10.9921876 2.67187523,11 2.625,11 C2.59374984,11 2.56640637,10.9980469 2.54296875,10.9941406 C2.51953113,10.9902344 2.49609387,10.984375 2.47265625,10.9765625 C2.4023434,10.9453123 2.34765645,10.8984378 2.30859375,10.8359375 C2.26953105,10.7734372 2.25,10.7031254 2.25,10.625 L2.25,8.76171875 L0.75,8.76171875 C0.539061445,8.76171875 0.361328848,8.68945385 0.216796875,8.54492188 C0.0722649023,8.4003899 0,8.2226573 0,8.01171875 L0,1.25 C0,1.03906145 0.0722649023,0.861328848 0.216796875,0.716796875 C0.361328848,0.572264902 0.539061445,0.5 0.75,0.5 L11.25,0.5 Z M11.25,8.01171875 L11.25,1.25 L0.75,1.25 L0.75,8.01171875 L3,8.01171875 L3,9.734375 L4.74609375,8.01171875 L11.25,8.01171875 Z M2.625,5.01171875 C2.52343699,5.01171875 2.43554725,4.97460975 2.36132812,4.90039062 C2.287109,4.8261715 2.25,4.73828176 2.25,4.63671875 C2.25,4.53515574 2.287109,4.447266 2.36132812,4.37304688 C2.43554725,4.29882775 2.52343699,4.26171875 2.625,4.26171875 L9.375,4.26171875 C9.47656301,4.26171875 9.56445275,4.29882775 9.63867188,4.37304688 C9.712891,4.447266 9.75,4.53515574 9.75,4.63671875 C9.75,4.73828176 9.712891,4.8261715 9.63867188,4.90039062 C9.56445275,4.97460975 9.47656301,5.01171875 9.375,5.01171875 L2.625,5.01171875 Z M2.625,3.51171875 C2.52343699,3.51171875 2.43554725,3.47460975 2.36132812,3.40039062 C2.287109,3.3261715 2.25,3.23828176 2.25,3.13671875 C2.25,3.03515574 2.287109,2.947266 2.36132812,2.87304688 C2.43554725,2.79882775 2.52343699,2.76171875 2.625,2.76171875 L9.375,2.76171875 C9.47656301,2.76171875 9.56445275,2.79882775 9.63867188,2.87304688 C9.712891,2.947266 9.75,3.03515574 9.75,3.13671875 C9.75,3.23828176 9.712891,3.3261715 9.63867188,3.40039062 C9.56445275,3.47460975 9.47656301,3.51171875 9.375,3.51171875 L2.625,3.51171875 Z M2.625,6.51171875 C2.52343699,6.51171875 2.43554725,6.47460975 2.36132812,6.40039062 C2.287109,6.3261715 2.25,6.23828176 2.25,6.13671875 C2.25,6.03515574 2.287109,5.947266 2.36132812,5.87304688 C2.43554725,5.79882775 2.52343699,5.76171875 2.625,5.76171875 L7.125,5.76171875 C7.22656301,5.76171875 7.31445275,5.79882775 7.38867188,5.87304688 C7.462891,5.947266 7.5,6.03515574 7.5,6.13671875 C7.5,6.23828176 7.462891,6.3261715 7.38867188,6.40039062 C7.31445275,6.47460975 7.22656301,6.51171875 7.125,6.51171875 L2.625,6.51171875 Z" id="" fill="#FFFFFF" fill-rule="nonzero"></path>
    </g>
</svg>