<?xml version="1.0" encoding="UTF-8"?>
<svg width="12px" height="12px" viewBox="0 0 12 12" version="1.1" xmlns="http://www.w3.org/2000/svg" xmlns:xlink="http://www.w3.org/1999/xlink">
    <!-- Generator: Sketch 53 (72520) - https://sketchapp.com -->
    <title>icon-position</title>
    <desc>Created with Sketch.</desc>
    <g id="icon-position" stroke="none" stroke-width="1" fill="none" fill-rule="evenodd">
        <g id="icon_gps_fill-copy-10" transform="translate(1.000000, 0.000000)" fill="#696969" fill-rule="nonzero">
            <path d="M2.50012159,4.77607494 C2.49856264,6.09326706 3.61652466,7.15984448 4.99717525,7.15835719 C6.37782583,7.15685719 7.49831947,6.0878645 7.49989174,4.77067239 C7.50145069,3.45348027 6.38348867,2.38690284 5.00285141,2.38840284 C3.6221875,2.38989014 2.50168053,3.45888282 2.50012159,4.77607494 Z M8.75152314,7.91852752 L5.45751647,11.7883156 C5.25189589,12.0298795 4.87994806,12.0666803 4.62674639,11.8705106 C4.59544743,11.8462603 4.5668331,11.8190165 4.54135096,11.7892055 L1.22418667,7.90831988 C0.460544414,7.07135711 -0.00118253906,5.97690252 0.000243164063,4.77876986 C0.003374375,2.14439835 2.24437497,0.00640026087 5.00566283,0.00341296894 C7.76695068,0.000425677019 10.002888,2.13359325 9.99975684,4.76796476 C9.99831781,5.9748559 9.52719723,7.0775605 8.75152314,7.91852752 Z" id="Shape"></path>
        </g>
    </g>
</svg>