<?xml version="1.0" encoding="UTF-8"?>
<svg width="12px" height="12px" viewBox="0 0 12 12" version="1.1" xmlns="http://www.w3.org/2000/svg" xmlns:xlink="http://www.w3.org/1999/xlink">
    <!-- Generator: Sketch 53 (72520) - https://sketchapp.com -->
    <title>icon-phone</title>
    <desc>Created with Sketch.</desc>
    <g id="icon-phone" stroke="none" stroke-width="1" fill="none" fill-rule="evenodd">
        <g id="icon_phone_fill-copy-10" fill="#696969" fill-rule="nonzero">
            <path d="M8.77910065,11.9997153 C8.93560965,11.9997153 9.09389522,11.9947551 9.25391474,11.9848489 C9.91819679,11.9431919 10.529537,11.6980674 11.0703117,11.2606182 C11.243421,11.1205816 11.4022182,10.9660055 11.5421127,10.8019496 C11.6154496,10.7159492 11.677786,10.6342127 11.7257535,10.5611031 C11.8185617,10.4321097 11.9053864,10.2558026 11.9545619,10.0903396 C12.0456504,9.78378837 11.9996016,9.54545751 11.8177231,9.37186499 C11.3391854,8.91636582 9.36352219,7.54551925 8.93511222,7.37238153 C8.81900961,7.32562212 8.70285014,7.30212871 8.58917787,7.30212871 C8.24143853,7.30212871 7.94121186,7.49098556 7.58026903,7.94320162 C7.53625265,7.9983891 7.49873142,8.04776362 7.41781917,8.15694471 C7.01909928,8.6951185 6.90089319,8.78208531 6.57975981,8.68055058 C5.99670268,8.49737878 5.48830425,8.14057181 4.77316957,7.41398176 C4.08410076,6.71357131 3.83050558,6.38530321 3.62020194,5.91928672 C3.60178738,5.87768614 3.58271644,5.83637921 3.56299629,5.7953814 C3.39619737,5.44904911 3.50883212,5.26877667 4.11944746,4.75015939 C4.19028299,4.68978432 4.19028299,4.68978432 4.22506118,4.65986683 C4.24673537,4.64109201 4.24673537,4.64109201 4.25738061,4.63183961 C4.26519753,4.62500336 4.26519753,4.62500336 4.27723558,4.61441499 C4.81580732,4.14159067 5.02386537,3.55500882 4.81539517,3.14557264 C4.39622336,2.32311871 3.19467712,0.584819931 2.78340751,0.209024944 C2.42200987,-0.121602444 1.91041362,-0.0607583611 1.27786828,0.408797056 C1.06374146,0.567878528 0.834648778,0.808213361 0.634677694,1.08838607 C0.260303958,1.61290156 0.0490622917,2.20171479 0.00986397222,2.83993097 C-0.115945833,4.88873211 1.00667792,7.43520115 2.87345846,9.32258994 C4.63266394,11.1003571 6.61887285,11.9997153 8.77910065,11.9997153 Z" id="Path"></path>
        </g>
    </g>
</svg>