<?xml version="1.0" encoding="UTF-8"?>
<svg width="42px" height="42px" viewBox="0 0 42 42" version="1.1" xmlns="http://www.w3.org/2000/svg" xmlns:xlink="http://www.w3.org/1999/xlink">
    <!-- Generator: Sketch 52.5 (67469) - http://www.bohemiancoding.com/sketch -->
    <title>icon_cn</title>
    <desc>Created with Sketch.</desc>
    <g id="icon_cn" stroke="none" stroke-width="1" fill="none" fill-rule="evenodd">
        <g id="中国国旗">
            <path d="M0,21 C0,32.5979193 9.40203967,42 21,42 C32.5979603,42 42,32.5979603 42,21 C42,9.40199862 32.5979603,0 21,0 C9.40203967,0 0,9.40203967 0,21 Z" id="Path" fill="#DE2910"></path>
            <path d="M14.4415679,10.8780286 L16.4461198,16.7388761 L22.929467,16.7388761 L17.676617,20.5476941 L19.6215887,26.3625096 L14.4481112,22.9076509 L9.26809047,26.3625096 L11.2130621,20.5476941 L6,16.7388761 L12.4833472,16.7388761 L14.4416492,10.8780286 L14.4415679,10.8780286 Z M35.2478511,22.5667804 L35.8962021,24.4614634 L38,24.4614634 L36.2931458,25.7003814 L36.9282884,27.5819354 L35.2480137,26.4675415 L33.5742415,27.5819354 L34.2029221,25.7003814 L32.5158603,24.4614634 L34.612993,24.4614634 L35.2481356,22.5667804 L35.2478917,22.5667804 L35.2478511,22.5667804 Z M33.8387759,13.9068393 L35.2743492,15.3228778 L37.1532381,14.4050564 L36.1808132,16.253788 L37.5899291,17.6698265 L35.5920018,17.4010043 L34.5864136,19.1382603 L34.3085895,17.1780531 L32.2379956,16.810844 L34.1232245,15.8930628 L33.8388165,13.9068393 L33.8387759,13.9068393 Z M26.9848611,8.94415995 L28.8902888,9.62586084 L30.2002398,8 L30.1140395,10.0912958 L31.9863039,10.7797222 L30.0612465,11.376286 L29.895755,13.3693157 L28.8042104,11.7107129 L26.773323,12.2482365 L28.0898173,10.6223757 L26.9848205,8.94420022 L26.9848611,8.94415995 Z M26.9848611,29.5619166 L28.8902888,30.2502223 L30.2002398,28.6244017 L30.1140395,30.7156572 L31.9863039,31.4039629 L30.0612465,32.0005266 L29.895755,34 L28.8042104,32.3349535 L26.773323,32.8659529 L28.0898173,31.2401323 L26.9848205,29.5619569 L26.9848611,29.5619166 Z" id="Shape" fill="#FFDC00" fill-rule="nonzero"></path>
        </g>
    </g>
</svg>