<?xml version="1.0" encoding="UTF-8"?>
<svg width="42px" height="42px" viewBox="0 0 42 42" version="1.1" xmlns="http://www.w3.org/2000/svg" xmlns:xlink="http://www.w3.org/1999/xlink">
    <!-- Generator: Sketch 52.5 (67469) - http://www.bohemiancoding.com/sketch -->
    <title>icon_uk</title>
    <desc>Created with Sketch.</desc>
    <g id="icon_uk" stroke="none" stroke-width="1" fill="none" fill-rule="evenodd">
        <g id="英国-(1)">
            <path d="M0,21 C1.42034288e-15,32.5979797 9.40202025,42 21,42 C32.5979797,42 42,32.5979797 42,21 C42,9.40202025 32.5979797,7.10171439e-16 21,0 C9.40202025,-7.10171439e-16 1.42034288e-15,9.40202025 0,21 Z" id="Path" fill="#F0F0F0"></path>
            <path d="M4.6425761,8 C2.98164862,10.0559853 1.72924207,12.4256767 1,15 L12,15 L4.6425761,8 Z M41,15 C40.270747,12.4257263 39.018239,10.0560084 37.3573692,8 L30,15 L41,15 Z M1,27 C1.72934109,29.5743026 2.98177586,31.9440472 4.64265816,34 L12,27 L1,27 Z M34,4.64268605 C31.9439916,2.9817461 29.5743522,1.72933014 27,1 L27,12 L34,4.64268605 Z M8,37.3572866 C10.0560084,39.018239 12.4257263,40.2706644 15,41 L15,30 L8,37.3572866 Z M15,1 C12.4256974,1.72933562 10.0559528,2.98176098 8,4.6426308 L15,12 L15,1 Z M27,41 C29.5743026,40.2706644 31.9440472,39.018239 34,37.3573692 L27,30 L27,41 Z M30,27 L37.3573692,34 C39.018239,31.9440702 40.270747,29.5742737 41,27 L30,27 Z" id="Shape" fill="#0052B4" fill-rule="nonzero"></path>
            <path d="M41.8222383,18.2608946 L23.7391875,18.2608946 L23.7391875,0.177761719 C22.8309212,0.059423852 21.915943,4.56263152e-05 21,0 C20.084084,3.7566455e-05 19.1691326,0.0594158334 18.2608945,0.177761719 L18.2608945,18.2608126 L0.177761719,18.2608126 C0.0594238518,19.1690789 4.56263151e-05,20.0840571 0,21.0000001 C0,21.9285118 0.06103125,22.842504 0.177761719,23.7391055 L18.2608125,23.7391055 L18.2608125,41.8222384 C20.0792194,42.0592539 21.9206986,42.0592539 23.7391055,41.8222384 L23.7391055,23.7391876 L41.8222383,23.7391876 C41.9405814,22.8309217 41.9999597,21.9159432 42,21.0000001 C42,20.0716524 41.9389688,19.1574961 41.8222383,18.2608946 Z" id="Path" fill="#D80027"></path>
            <path d="M26,27 L35.719656,36 C36.1664818,35.5857654 36.5936658,35.1537556 37,34.7051918 L28.6786145,27 L26,27 Z M15,26 L14.9998424,26 L6,35.719646 C6.4142346,36.1664754 6.84624445,36.5936626 7.29480816,37 L15,28.67838 L15,26 Z M16,15 L16,14.9998424 L6.28034405,6 C5.83351815,6.41422735 5.40633422,6.84622963 5,7.29478549 L13.3214706,14.9999212 L16,15 Z M27,16 L36,6.28024906 C35.5857849,5.83343171 35.1537741,5.40627852 34.7051918,5 L27,13.3214062 L27,16 Z" id="Shape" fill="#D80027" fill-rule="nonzero"></path>
        </g>
    </g>
</svg>