<?xml version="1.0" encoding="UTF-8"?>
<svg width="124px" height="30px" viewBox="0 0 124 30" version="1.1" xmlns="http://www.w3.org/2000/svg" xmlns:xlink="http://www.w3.org/1999/xlink">
    <!-- Generator: Sketch 53 (72520) - https://sketchapp.com -->
    <title>Artboard</title>
    <desc>Created with Sketch.</desc>
    <g id="Artboard" stroke="none" stroke-width="1" fill="none" fill-rule="evenodd">
        <g id="IEGLogo2019cn_IEGLogoDark_ChineseVer-Copy" fill="#FFFFFF" fill-rule="nonzero">
            <path d="M38.9343612,0.516055046 C38.6895869,0.265866377 38.3543543,0.126767288 38.0057269,0.130733945 C37.6392464,0.119318813 37.2838812,0.258386612 37.0211013,0.516055046 C36.7628329,0.767903829 36.6211618,1.11731951 36.6305286,1.4793578 L36.6305286,12.4885321 C36.6225553,12.8481142 36.7611779,13.1952769 37.0140779,13.4490827 C37.266978,13.7028884 37.6120538,13.8411566 37.9688546,13.8316514 C38.3207251,13.8335802 38.6593939,13.696774 38.912511,13.4504587 L38.912511,13.4504587 C39.1804461,13.2038504 39.3297706,12.8527455 39.3222026,12.487156 L39.3222026,1.47798165 C39.3318967,1.11683137 39.1912715,0.768051929 38.9343612,0.516055046 L38.9343612,0.516055046 Z" id="Path"></path>
            <path d="M49.4361233,4.41880734 L49.4361233,4.41880734 C48.9171806,3.60825688 47.9803524,3.19678899 46.6502203,3.19678899 C45.9880318,3.19262001 45.3374671,3.37210444 44.7697357,3.71559633 C44.3818263,3.94660074 44.0267243,4.22944261 43.7140969,4.55642202 C43.6872005,4.26130644 43.5598214,3.98465328 43.3535683,3.7733945 C42.8361224,3.26126294 42.0069173,3.26126294 41.4894714,3.7733945 C41.2452579,4.02565109 41.112324,4.36649657 41.1207489,4.71880734 L41.1207489,12.4981651 C41.112324,12.8504759 41.2452579,13.1913214 41.4894714,13.443578 C42.0069173,13.9557095 42.8361224,13.9557095 43.3535683,13.443578 C43.5977818,13.1913214 43.7307156,12.8504759 43.7222907,12.4981651 L43.7222907,7.68165138 C43.7022725,7.1354824 43.9068354,6.60520242 44.2876652,6.21605505 C44.6618502,5.83348624 45.1917181,5.63807339 45.8608811,5.63807339 C46.4959031,5.63807339 46.9438326,5.81284404 47.1937445,6.15825688 C47.4436564,6.50366972 47.5897797,7.03348624 47.5897797,7.68165138 L47.5897797,12.4981651 C47.5808358,12.8503052 47.7132894,13.1911818 47.9571366,13.443578 C48.4745825,13.9557095 49.3037876,13.9557095 49.8212335,13.443578 C50.0650503,13.1910632 50.1979158,12.8503928 50.1899559,12.4981651 L50.1899559,7.68165138 C50.1899559,6.3 49.9345815,5.20458716 49.4361233,4.41880734 Z" id="Path"></path>
            <path d="M56.7969163,11.333945 C56.6320417,11.3357597 56.4691458,11.3703667 56.3175771,11.4357798 C56.2004595,11.4745987 56.0787854,11.4977327 55.9556828,11.5045872 C55.796091,11.5143184 55.6384082,11.4654273 55.5118502,11.3669725 C55.4053047,11.2480755 55.3554459,11.0883046 55.3752863,10.9293578 L55.3752863,6.00550459 L56.5237885,6.00550459 C56.8481075,6.01389748 57.1621295,5.89039725 57.3950661,5.66284404 C57.6271118,5.44087054 57.7555295,5.1305965 57.7487665,4.80825688 C57.7571051,4.47727327 57.6302932,4.157342 57.3979647,3.92322584 C57.1656362,3.68910967 56.8481479,3.56132202 56.5196916,3.56972477 L55.3711894,3.56972477 L55.3711894,2.54449541 C55.3711894,2.17018349 55.2469163,1.31697248 55.002467,1.06376147 C54.7647956,0.812395933 54.4333349,0.673099798 54.0888546,0.679816514 C53.737029,0.671580509 53.3973061,0.809410923 53.1492952,1.06100917 C52.8980176,1.31559633 52.7696476,2.17018349 52.7696476,2.54449541 L52.7696476,3.57798165 L52.0868282,3.57798165 C51.7625634,3.56990022 51.4486567,3.69335508 51.2155507,3.9206422 C50.9835049,4.1426157 50.8550873,4.45288973 50.8618502,4.77522936 C50.8535116,5.10621297 50.9803235,5.42614423 51.212652,5.6602604 C51.4449805,5.89437657 51.7624688,6.02216422 52.0909251,6.01376147 L52.7737445,6.01376147 L52.7737445,11.0325688 C52.7737445,12.1747706 53.0700881,12.9385321 53.6532159,13.3045872 C54.2730245,13.67148 54.9831864,13.8542033 55.701674,13.8316514 C56.1742012,13.8375433 56.6385526,13.7071929 57.04,13.4559633 C57.4619824,13.1889908 57.675022,12.8490826 57.675022,12.4458716 C57.6865287,12.1612809 57.5953199,11.882127 57.4182819,11.6600917 C57.2721717,11.4606136 57.0428739,11.3402581 56.7969163,11.333945 L56.7969163,11.333945 Z" id="Path"></path>
            <path d="M67.4065639,5.58990826 C66.9719951,4.81551194 66.3499755,4.16456182 65.5984581,3.69770642 C64.8727157,3.23911005 64.0338076,2.99498937 63.1771806,2.99311927 C62.3165894,2.99243312 61.4717048,3.22536386 60.7313216,3.66743119 C59.9535436,4.13456016 59.3166785,4.80629683 58.8890749,5.61055046 C58.4126991,6.51173853 58.1733874,7.5208858 58.1939648,8.54174312 C58.1828629,9.48293485 58.4118695,10.411222 58.8590308,11.2376147 C59.2928897,12.0331019 59.9422251,12.6879109 60.7313216,13.1256881 C62.1699472,13.8821827 63.8520875,14.0163189 65.3908811,13.4972477 C65.9168147,13.3316397 66.4092974,13.073019 66.8452863,12.7334862 C67.2385903,12.4224771 67.4379736,12.0646789 67.4379736,11.6683486 C67.4387948,11.3714049 67.3182814,11.0872137 67.1047577,10.8825688 C66.7223789,10.4972477 66.1952423,10.4311927 65.5779736,10.7449541 L65.22837,10.9637615 C65.0258731,11.0805553 64.8104419,11.1729335 64.5865198,11.2389908 C64.2153594,11.341936 63.8309989,11.3883214 63.4462115,11.3766055 C62.8275868,11.3806609 62.2261951,11.1713706 61.7418943,10.7834862 C61.2875748,10.4236909 60.9643731,9.92233378 60.8228194,9.35779817 L66.7660793,9.35779817 C67.0949526,9.36146947 67.4142412,9.24624652 67.6660352,9.03302752 C67.9264893,8.81862378 68.0798825,8.49940672 68.0852863,8.16055046 C68.0884985,7.2582798 67.8543042,6.37127533 67.4065639,5.58990826 L67.4065639,5.58990826 Z M63.1730837,5.42614679 C63.7048835,5.42272271 64.2208494,5.60837933 64.6302203,5.95045872 C65.007344,6.23084586 65.2576104,6.65149636 65.3253304,7.11880734 L60.839207,7.11880734 C61.1287225,5.98073394 61.8948458,5.42614679 63.1771806,5.42614679 L63.1730837,5.42614679 Z" id="Shape"></path>
            <path d="M75.5635242,3.5587156 L75.5635242,3.5587156 C75.2651748,3.31416332 74.8895859,3.18572466 74.5051542,3.19678899 C73.8805499,3.19432352 73.2640758,3.33949426 72.7052423,3.6206422 C72.3189604,3.81242884 71.9773452,4.08444711 71.7028634,4.41880734 C71.654081,4.17347437 71.5354468,3.94776958 71.3614537,3.76926606 C70.8440078,3.2571345 70.0148027,3.2571345 69.4973568,3.76926606 C69.254039,4.0220058 69.1216762,4.36264884 69.13,4.7146789 L69.13,12.4940367 C69.1216762,12.8460668 69.254039,13.1867098 69.4973568,13.4394495 C70.0148027,13.9515811 70.8440078,13.9515811 71.3614537,13.4394495 C71.6056672,13.187193 71.7386011,12.8463475 71.7301762,12.4940367 L71.7301762,8.02981651 C71.7188502,7.55636917 71.8121445,7.08630838 72.003304,6.65366972 C72.1505045,6.3158573 72.3866398,6.02507974 72.6861233,5.81284404 C72.9303064,5.63729059 73.2219568,5.54124662 73.5218943,5.53761468 C73.6473906,5.53672839 73.7724015,5.55340127 73.893348,5.58715596 L74.1323348,5.6587156 C74.7823789,5.89954128 75.280837,5.83211009 75.6645815,5.45917431 C75.8994714,5.2293578 76.0182819,4.89220183 76.0182819,4.45321101 C76.013682,4.09983159 75.8454506,3.76892534 75.5635242,3.5587156 L75.5635242,3.5587156 Z" id="Path"></path>
            <path d="M87.5087665,6.71972477 L87.5087665,6.71972477 C87.2694977,6.46967017 86.93702,6.33236035 86.5924229,6.3412844 L83.5770925,6.3412844 C83.2330952,6.33355293 82.9004462,6.46545456 82.6539207,6.70733945 C82.1535072,7.22074029 82.1535072,8.04347989 82.6539207,8.55688073 C82.9004141,8.7986622 83.2332093,8.93012572 83.5770925,8.92155963 L85.1311894,8.92155963 L85.1311894,11.0256881 C84.8420295,11.1115777 84.5472353,11.1768762 84.2489868,11.2211009 C83.8931631,11.279484 83.5333673,11.3098511 83.1728634,11.3119266 C82.4376784,11.3171365 81.7154226,11.1170831 81.0861674,10.733945 C79.7988186,9.95407958 79.0113964,8.55123912 79.0113964,7.03761468 C79.0113964,5.52399024 79.7988186,4.12114978 81.0861674,3.3412844 C81.7136678,2.95872738 82.4340121,2.75867977 83.1674009,2.76330275 C83.8515422,2.76375997 84.5284661,2.90421279 85.1571366,3.17614679 C85.8003524,3.46376147 86.3343172,3.3646789 86.7125991,2.93807339 C86.9405674,2.68474409 87.0649754,2.35387794 87.060837,2.01192661 C87.0642639,1.56303238 86.8150741,1.150918 86.4176211,0.948165138 C85.4985463,0.441743119 84.4060352,0.18440367 83.1674009,0.18440367 C81.9543132,0.177336875 80.7612577,0.496064678 79.7109692,1.10779817 C78.6738529,1.70544729 77.8084862,2.56419542 77.1995595,3.6 C75.9635328,5.72447936 75.9635328,8.35625458 77.1995595,10.4807339 C77.8080887,11.5168519 78.6735481,12.375692 79.7109692,12.9729358 C80.7606589,13.5864374 81.9539525,13.9061789 83.1674009,13.8990826 C84.5986923,13.9079081 86.0029814,13.5065271 87.2165198,12.7417431 C87.6300638,12.5101531 87.8820054,12.0665254 87.8706608,11.5899083 L87.8706608,7.65 C87.8788515,7.3035259 87.7484372,6.96828662 87.5087665,6.71972477 L87.5087665,6.71972477 Z" id="Path"></path>
            <path d="M95.5018502,3.5587156 L95.5018502,3.5587156 C95.2035008,3.31416332 94.8279119,3.18572466 94.4434802,3.19678899 C93.8188759,3.19432352 93.2024018,3.33949426 92.6435683,3.6206422 C92.2571034,3.81275823 91.9151052,4.08471089 91.6398238,4.41880734 C91.5921082,4.17338647 91.4738595,3.94751154 91.2997797,3.76926606 C90.7823338,3.2571345 89.9531287,3.2571345 89.4356828,3.76926606 C89.1918356,4.02166223 89.059382,4.36253883 89.068326,4.7146789 L89.068326,12.4940367 C89.059382,12.8461768 89.1918356,13.1870534 89.4356828,13.4394495 C89.9531287,13.9515811 90.7823338,13.9515811 91.2997797,13.4394495 C91.5439932,13.187193 91.6769271,12.8463475 91.6685022,12.4940367 L91.6685022,8.02981651 C91.6571762,7.55636917 91.7504705,7.08630838 91.94163,6.65366972 C92.0888305,6.3158573 92.3249658,6.02507974 92.6244493,5.81284404 C92.8682113,5.63747781 93.1593702,5.54143877 93.4588546,5.53761468 C93.5848002,5.53672515 93.7102625,5.55339693 93.831674,5.58715596 L94.0706608,5.6587156 C94.7207048,5.89954128 95.219163,5.83211009 95.6029075,5.45917431 C95.8377974,5.2293578 95.9566079,4.89220183 95.9566079,4.45321101 C95.9513781,4.09998942 95.7832815,3.76934824 95.5018502,3.5587156 L95.5018502,3.5587156 Z" id="Path"></path>
            <path d="M104.954802,5.58990826 C104.519756,4.8154177 103.897273,4.1644742 103.14533,3.69770642 C102.419648,3.23897394 101.580701,2.99484175 100.724053,2.99311927 C99.8634887,2.99263649 99.0186565,3.22555277 98.2781938,3.66743119 C97.500528,4.13426222 96.8640349,4.80610459 96.4373128,5.61055046 C95.9609369,6.51173853 95.7216253,7.5208858 95.7422026,8.54174312 C95.7290159,9.48215881 95.9551643,10.4102953 96.3990749,11.2376147 C96.8334849,12.0331529 97.4832677,12.6879355 98.2727313,13.1256881 C99.7113569,13.8821827 101.393497,14.0163189 102.932291,13.4972477 C103.458224,13.3316397 103.950707,13.073019 104.386696,12.7334862 C104.78,12.4224771 104.978018,12.0646789 104.978018,11.6683486 C104.978712,11.3717087 104.858783,11.0877319 104.646167,10.8825688 C104.263789,10.4972477 103.735286,10.4311927 103.119383,10.7449541 L102.76978,10.9637615 C102.566789,11.0805286 102.35091,11.1729027 102.126564,11.2389908 C101.755419,11.3420175 101.371047,11.3884043 100.986256,11.3766055 C100.367577,11.3809941 99.7660778,11.1716666 99.2819383,10.7834862 C98.8295796,10.423414 98.5090927,9.92179594 98.3710573,9.35779817 L104.314317,9.35779817 C104.642866,9.36199935 104.961903,9.24669221 105.212907,9.03302752 C105.473814,8.81898406 105.627316,8.49954093 105.632159,8.16055046 C105.635201,7.25848142 105.40152,6.37163603 104.954802,5.58990826 Z M100.721322,5.42614679 C101.25349,5.42298777 101.769799,5.60859387 102.179824,5.95045872 C102.556948,6.23084586 102.807214,6.65149636 102.874934,7.11880734 L98.3860793,7.11880734 C98.6755947,5.98073394 99.4430837,5.42614679 100.724053,5.42614679 L100.721322,5.42614679 Z" id="Shape"></path>
            <path d="M115.903128,3.64266055 C115.663897,3.40100734 115.336302,3.26955845 114.997709,3.2793578 C114.412681,3.26465439 113.898499,3.66765097 113.768634,4.24266055 C113.434373,3.98346393 113.066875,3.77098965 112.676123,3.61100917 C112.135594,3.38692663 111.55628,3.2732597 110.971806,3.2766055 C110.14882,3.2709948 109.342056,3.50723488 108.65022,3.95642202 C107.938873,4.42118352 107.366656,5.07249756 106.995066,5.84036697 C106.585981,6.68335109 106.380107,7.61172685 106.394185,8.55 C106.379533,9.48737973 106.589399,10.4144989 107.005991,11.2527523 C107.385002,12.018155 107.962625,12.665848 108.677533,13.1270642 C109.385597,13.5782204 110.207856,13.8137989 111.045551,13.8055046 C111.635921,13.8062176 112.218721,13.6716315 112.749868,13.4119266 C113.12731,13.2356091 113.476636,13.0037155 113.786388,12.7238532 C113.843962,12.9262893 113.950477,13.1111694 114.096388,13.2619266 C114.331783,13.5052878 114.65791,13.6376415 114.994978,13.6266055 C115.335879,13.6350768 115.664728,13.499331 115.901762,13.2522936 C116.139282,13.0070067 116.268745,12.6756511 116.260925,12.3330275 L116.260925,4.57431193 C116.273264,4.22749656 116.143939,3.89075279 115.903128,3.64266055 L115.903128,3.64266055 Z M113.821894,8.55275229 C113.821894,9.38669725 113.585639,10.0844037 113.11859,10.6307339 C112.675054,11.1648232 112.012132,11.4633018 111.32141,11.4399083 C110.633183,11.4644893 109.972673,11.165507 109.533789,10.6307339 C109.072203,10.0802752 108.838678,9.39220183 108.838678,8.55275229 C108.838678,7.71330275 109.074934,7.01834862 109.543348,6.46788991 C109.993576,5.94752361 110.645183,5.64886712 111.330286,5.64886712 C112.01539,5.64886712 112.666997,5.94752361 113.117225,6.46788991 C113.585639,7.01834862 113.821894,7.72018349 113.821894,8.55275229 Z" id="Shape"></path>
            <path d="M122.93207,11.333945 C122.767196,11.3357597 122.6043,11.3703667 122.452731,11.4357798 C122.335614,11.4745987 122.21394,11.4977327 122.090837,11.5045872 C121.930844,11.5141542 121.772789,11.4652978 121.645639,11.3669725 C121.540205,11.2474378 121.490508,11.0881865 121.509075,10.9293578 L121.509075,6.00550459 L122.657577,6.00550459 C122.982284,6.01380237 123.296695,5.89034288 123.53022,5.66284404 C123.762266,5.44087054 123.890684,5.1305965 123.883921,4.80825688 C123.891469,4.4775045 123.764403,4.15804012 123.53225,3.92410102 C123.300098,3.69016193 122.983073,3.56211823 122.654846,3.56972477 L121.506344,3.56972477 L121.506344,2.01192661 C121.515179,1.65994984 121.382157,1.31937605 121.137621,1.06788991 C120.900273,0.816880723 120.569383,0.677616036 120.225374,0.683944954 C119.873715,0.677157105 119.534451,0.814842726 119.285616,1.06533282 C119.036781,1.31582291 118.899796,1.65755469 118.906167,2.01192661 L118.906167,3.57798165 L118.223348,3.57798165 C117.898668,3.56983908 117.584315,3.69327603 117.350705,3.9206422 C117.11959,4.1431521 116.991763,4.45319553 116.99837,4.77522936 C116.990031,5.10621297 117.116843,5.42614423 117.349172,5.6602604 C117.5815,5.89437657 117.898989,6.02216422 118.227445,6.01376147 L118.910264,6.01376147 L118.910264,11.0325688 C118.910264,12.1747706 119.205242,12.9385321 119.78837,13.3045872 C120.408264,13.6712702 121.118365,13.8539777 121.836828,13.8316514 C122.309336,13.83739 122.773645,13.7070514 123.175154,13.4559633 C123.597137,13.1889908 123.810176,12.8490826 123.810176,12.4458716 C123.821926,12.1610177 123.730155,11.8816273 123.55207,11.6600917 C123.406666,11.4605026 123.177703,11.3400581 122.93207,11.333945 Z" id="Path"></path>
            <path d="M14.8854626,0.137614679 C8.91608629,0.134831746 3.53308579,3.75659176 1.24742848,9.31347977 C-1.03822884,14.8703678 0.223774521,21.2675724 4.44476141,25.521038 C8.66574829,29.7745036 15.0141049,31.0462176 20.5285615,28.7429731 C26.043018,26.4397286 29.6371229,21.0153081 29.6343612,15 C29.6298407,6.79361885 23.0291812,0.142169985 14.8854626,0.137614679 Z M18.679207,17.5788991 C18.6284151,21.0616812 15.8121781,23.8581886 12.3556167,23.8581886 C8.89905535,23.8581886 6.08281841,21.0616812 6.03202643,17.5788991 C6.03202643,16.875116 6.59819885,16.3045872 7.29660793,16.3045872 C7.99501701,16.3045872 8.56118943,16.875116 8.56118943,17.5788991 C8.60041509,19.6623575 10.2876952,21.330669 12.3556167,21.330669 C14.4235383,21.330669 16.1108184,19.6623575 16.1500441,17.5788991 L16.1500441,12.4279817 C16.1500441,11.7241986 16.7162165,11.1536697 17.4146256,11.1536697 C18.1130346,11.1536697 18.679207,11.7241986 18.679207,12.4279817 L18.679207,17.5788991 Z M22.4743172,13.7105505 C22.1385812,13.710917 21.8165114,13.5765882 21.5792382,13.3372311 C21.341965,13.0978739 21.2090096,12.7731812 21.2097357,12.4348624 C21.17051,10.3514039 19.48323,8.68309245 17.4153084,8.68309245 C15.3473868,8.68309245 13.6601067,10.3514039 13.6208811,12.4348624 L13.6208811,17.5788991 C13.6208811,18.2826821 13.0547086,18.853211 12.3562996,18.853211 C11.6578905,18.853211 11.0917181,18.2826821 11.0917181,17.5788991 L11.0917181,12.4279817 C11.14251,8.94519953 13.958747,6.14869213 17.4153084,6.14869213 C20.8718698,6.14869213 23.6881067,8.94519953 23.7388987,12.4279817 C23.7396343,12.7674975 23.605743,13.0932409 23.3669893,13.332798 C23.1282356,13.5723551 22.804406,13.7058728 22.467489,13.7036697 L22.4743172,13.7105505 Z" id="Shape"></path>
            <path d="M42.8482819,26.4220183 C43.6854185,27.6811927 45.1698678,28.3981651 47.2879736,28.6637615 C47.0180814,28.9599725 46.79389,29.2953681 46.6229075,29.6587156 C44.4078414,29.2885321 42.9356828,28.4105505 41.9988546,26.8720183 C41.4034361,28.0169725 40.0719383,28.9995413 37.2955947,29.6587156 C37.1125849,29.3311509 36.8891157,29.0282792 36.6305286,28.7573394 C39.3153744,28.190367 40.4734361,27.3577982 40.9787225,26.4178899 L36.8599559,26.4178899 L36.8599559,25.4229358 L38.0070925,25.4229358 L38.0070925,22.7655963 L41.3228634,22.7655963 L41.3228634,21.5174312 L42.435859,21.5174312 L42.435859,22.7655963 L45.9346256,22.7655963 L45.9346256,25.4243119 L47.0011894,25.4243119 L47.0011894,26.4220183 L42.8482819,26.4220183 Z M39.3303965,20.9738532 L36.9869604,20.9738532 L36.9869604,20.0105505 L39.3303965,20.0105505 L39.3303965,19.0321101 L40.3860352,19.0321101 L40.3860352,20.0146789 L43.4273128,20.0146789 L43.4273128,19.0321101 L44.4938767,19.0321101 L44.4938767,20.0146789 L46.8414097,20.0146789 L46.8414097,20.9779817 L44.4884141,20.9779817 L44.4884141,22.0995413 L43.4273128,22.0995413 L43.4273128,20.9779817 L40.3819383,20.9779817 L40.3819383,22.0995413 L39.3303965,22.0995413 L39.3303965,20.9738532 Z M41.2928194,25.4243119 C41.315087,25.2057575 41.3264816,24.9862166 41.3269604,24.7665138 L41.3269604,23.7027523 L39.0326872,23.7027523 L39.0326872,25.4243119 L41.2928194,25.4243119 Z M42.4399559,23.7027523 L42.4399559,24.7775229 C42.4397402,24.9936078 42.4278873,25.2095216 42.4044493,25.4243119 L44.8625991,25.4243119 L44.8625991,23.7027523 L42.4399559,23.7027523 Z" id="Shape"></path>
            <path d="M62.177533,27.459633 L57.6463436,27.459633 L57.6463436,29.6201835 L56.5907048,29.6201835 L56.5907048,27.459633 L52.0936564,27.459633 L52.0936564,26.4770642 L56.5907048,26.4770642 L56.5907048,25.7600917 L57.3022026,25.7600917 C57.1301322,25.5866972 56.9239207,25.4133028 56.7969163,25.3087156 C57.807489,24.8697248 58.5981938,24.1417431 58.8972687,23.146789 L59.8600441,23.3091743 C59.7691533,23.6311386 59.634011,23.9387066 59.4585463,24.2229358 C60.1834209,24.6251677 60.8777029,25.0810044 61.5356828,25.5866972 L60.8009692,26.2458716 C60.4103965,25.8756881 59.6429075,25.3431193 58.9546256,24.9165138 C58.5729023,25.3211467 58.1316409,25.6641543 57.6463436,25.9334862 L57.6463436,26.4770642 L62.177533,26.4770642 L62.177533,27.459633 Z M54.6173568,20.8004587 L52.129163,20.8004587 L52.129163,19.8536697 L54.6173568,19.8536697 L54.6173568,19.0279817 L55.6620705,19.0279817 L55.6620705,19.8536697 L58.540837,19.8536697 L58.540837,19.0279817 L59.5732599,19.0279817 L59.5732599,19.8536697 L62.1543172,19.8536697 L62.1543172,20.8004587 L59.5732599,20.8004587 L59.5732599,21.6330275 L58.540837,21.6330275 L58.540837,20.8004587 L55.6620705,20.8004587 L55.6620705,21.6330275 L54.6173568,21.6330275 L54.6173568,20.8004587 Z M61.6039648,23.0201835 L52.6672247,23.0201835 L52.6672247,22.0844037 L56.5907048,22.0844037 C56.4759912,21.840367 56.3612775,21.6110092 56.2465639,21.3963303 L57.2557709,21.0949541 C57.4278414,21.383945 57.6354185,21.7665138 57.7842731,22.0899083 L61.6080617,22.0899083 L61.6039648,23.0201835 Z M55.7877093,23.3325688 C55.6992493,23.5906524 55.5919821,23.8417951 55.4667841,24.083945 C55.941406,24.3647858 56.3906094,24.6871275 56.809207,25.0472477 L56.1263877,25.7353211 C55.7793621,25.4014693 55.4032023,25.0997919 55.002467,24.833945 C54.5674748,25.4155164 54.0214322,25.9035306 53.3964758,26.2692661 C53.1685241,26.0221868 52.9229662,25.792217 52.6617621,25.5811927 C53.6745842,25.0919206 54.4541925,24.2187489 54.8303965,23.1522936 L55.7877093,23.3325688 Z" id="Shape"></path>
            <path d="M76.8854626,22.1422018 C76.6328194,23.9215596 76.2190308,25.3899083 75.5662555,26.5926606 C76.112511,27.5050459 76.815815,28.2440367 77.6993833,28.7077982 C77.4072489,28.9805349 77.1527866,29.2915719 76.9428194,29.6325688 C76.1148292,29.1266424 75.418637,28.4288676 74.9121145,27.5972477 C74.219527,28.4610682 73.3509878,29.1650003 72.3651982,29.6614679 C72.1892964,29.3166363 71.97782,28.9914458 71.7342731,28.6912844 C72.7828375,28.230443 73.6842488,27.4859507 74.3385463,26.540367 C73.939031,25.634062 73.6315614,24.6893404 73.420837,23.7206422 C73.2218889,24.1048928 72.9935945,24.4729744 72.7380176,24.8215596 C72.5318988,24.6004737 72.3095841,24.3953089 72.0729515,24.2077982 C71.5741098,24.7711666 71.0164369,25.2786874 70.4096035,25.7215596 L70.4096035,26.1605505 C71.1443172,26.090367 71.9008811,26.0325688 72.6465198,25.9527523 L72.6465198,26.8775229 L70.4137004,27.1100917 L70.4137004,28.5550459 C70.4137004,29.0394495 70.3222026,29.306422 69.9671366,29.4454128 C69.62163,29.606422 69.1177093,29.606422 68.3829956,29.606422 C68.3315252,29.2852726 68.2227977,28.9761621 68.0620705,28.6940367 C68.5782819,28.7050459 69.0712775,28.7050459 69.2214978,28.6940367 C69.3717181,28.6830275 69.4154185,28.6582569 69.4154185,28.5316514 L69.4154185,27.2133028 L67.156652,27.4334862 L67.0419383,26.4701835 C67.6947137,26.4123853 68.5209251,26.3422018 69.4154185,26.2623853 L69.4154185,25.4876147 L69.4044934,25.4752294 C69.8131281,25.2062101 70.1970396,24.9008627 70.55163,24.562844 L69.553348,24.562844 C68.9773187,25.0797045 68.3509529,25.5366108 67.6837885,25.9266055 C67.4657662,25.6319537 67.2241501,25.3558003 66.9613656,25.1009174 C67.3297315,24.9070901 67.6859245,24.6906268 68.0279295,24.4527523 L68.0279295,23.7013761 L68.9907048,23.7013761 C69.243348,23.4701835 69.4959912,23.2279817 69.7254185,22.9733945 L67.0637885,22.9733945 L67.0637885,22.0376147 L68.933348,22.0376147 L68.933348,21.066055 L67.5226432,21.066055 L67.5226432,20.1522936 L68.933348,20.1522936 L68.933348,19.0321101 L69.9207048,19.0321101 L69.9207048,20.1646789 L71.2057709,20.1646789 L71.2057709,20.962844 C71.5051789,20.4340399 71.7618382,19.881796 71.9732599,19.3114679 L72.9715419,19.5866972 C72.6278849,20.4455664 72.2054365,21.270243 71.7096916,22.05 L72.5823348,22.05 L72.5823348,22.9513761 C73.1285903,21.8408257 73.5218943,20.4536697 73.7403965,19.0211009 L74.8192511,19.1944954 C74.710308,19.8494672 74.564865,20.4977403 74.3836123,21.1362385 L77.5942291,21.1362385 L77.5942291,22.1422018 L76.8854626,22.1422018 Z M70.5065639,22.05 C70.736447,21.7394926 70.9471534,21.4150264 71.137489,21.0784404 L69.9207048,21.0784404 L69.9207048,22.05 L70.5065639,22.05 Z M71.969163,23.9683486 C72.1997086,23.661424 72.399607,23.3323035 72.5659471,22.9857798 L71.0337004,22.9857798 C70.8433186,23.2389019 70.6400198,23.4818897 70.4246256,23.7137615 L71.3655507,23.7137615 L71.560837,23.6559633 L71.969163,23.9683486 Z M74.1022907,22.1422018 C74.2777283,23.2492402 74.5698051,24.3342726 74.9735683,25.3788991 C75.3904854,24.3422354 75.6661194,23.2534362 75.7929515,22.1422018 L74.1022907,22.1422018 Z" id="Shape"></path>
            <path d="M92.5534361,21.0550459 L89.7538767,21.0550459 C90.5568722,21.703211 91.529207,22.5 92.0836564,23.0201835 L91.2000881,23.6449541 C90.9938767,23.4481651 90.7289427,23.1825688 90.4203084,22.9045872 C84.7638326,23.2279817 84.1219824,23.2513761 83.6863436,23.4247706 C83.5905492,23.0555797 83.4714972,22.6929177 83.3299119,22.3389908 C83.5593392,22.303211 83.8010573,22.1655963 84.0987665,21.9688073 C84.5103521,21.6883646 84.9048237,21.3832264 85.2800441,21.0550459 L82.5269163,21.0550459 L82.5269163,20.1068807 L87.1509692,20.1068807 C87.0007489,19.8068807 86.8177533,19.4834862 86.6688987,19.2178899 L87.7463877,18.9165138 C87.9539648,19.2633028 88.217533,19.7422018 88.4128194,20.1068807 L92.5534361,20.1068807 L92.5534361,21.0550459 Z M91.1085903,28.5233945 C91.1085903,29.1013761 90.9365198,29.3490826 90.4885903,29.493578 C90.0406608,29.6380734 89.295022,29.6311927 88.1833921,29.6311927 C88.1036859,29.323919 87.983827,29.0286762 87.8269604,28.753211 C88.6067401,28.7876147 89.5025991,28.7876147 89.7197357,28.7642202 C89.949163,28.7642202 90.0297357,28.6954128 90.0297357,28.4986239 L90.0297357,27.712844 L85.0861233,27.712844 L85.0861233,29.6311927 L84.0181938,29.6312447 L84.0181938,23.8073394 L91.1085903,23.8073394 L91.1085903,28.5233945 Z M85.0861233,24.6853211 L85.0861233,25.4366972 L90.0297357,25.4366972 L90.0297357,24.6853211 L85.0861233,24.6853211 Z M90.0297357,26.9394495 L90.0297357,26.1990826 L85.0861233,26.1990826 L85.0861233,26.9394495 L90.0297357,26.9394495 Z M89.4834802,22.0720183 C89.1734802,21.8188073 88.886696,21.5642202 88.6122026,21.3330275 L89.0587665,21.0577982 L86.8737445,21.0577982 C86.3879482,21.4879339 85.8801466,21.8921564 85.3524229,22.2688073 L89.4834802,22.0720183 Z" id="Shape"></path>
            <path d="M104.173656,26.962844 C105.24022,27.6674312 106.743789,28.2688073 108.062996,28.5811927 C107.808914,28.8447428 107.589106,29.1397675 107.408855,29.4591743 C105.985859,29.0311927 104.379868,28.256422 103.232731,27.3440367 L103.232731,29.6091743 L102.178458,29.6091743 L102.178458,27.3674312 C100.934197,28.3305703 99.5272172,29.0588217 98.0255507,29.5169725 C97.8151551,29.2063121 97.5809132,28.9127521 97.324978,28.6389908 C98.6674009,28.3142202 100.192819,27.6908257 101.271674,26.962844 L97.634978,26.962844 L97.634978,26.0944954 L102.178458,26.0944954 L102.178458,25.3899083 L103.232731,25.3899083 L103.232731,26.0944954 L107.810352,26.0944954 L107.810352,26.962844 L104.173656,26.962844 Z M98.954185,22.1298165 C98.688657,22.3951619 98.4092109,22.6459801 98.1170485,22.8811927 C97.9021646,22.6086653 97.6469991,22.3710299 97.3604846,22.1766055 C98.4755006,21.3367531 99.3888737,20.2550349 100.03304,19.0114679 L101.133744,19.2206422 C100.948021,19.5580001 100.745183,19.8854979 100.526035,20.2018349 L102.773877,20.2018349 C102.652095,19.8793672 102.506473,19.5665625 102.338238,19.266055 L103.302379,18.9908257 C103.533826,19.375964 103.729488,19.7818153 103.886872,20.203211 L107.190352,20.203211 L107.190352,21.0481651 L103.589163,21.0481651 L103.589163,21.6949541 L106.697357,21.6949541 L106.697357,22.4229358 L103.589163,22.4229358 L103.589163,23.0477064 L106.720573,23.0477064 L106.720573,23.7880734 L103.589163,23.7880734 L103.589163,24.4458716 L107.511278,24.4458716 L107.511278,25.2894495 L100.009824,25.2894495 L100.009824,25.6252294 L98.954185,25.6252294 L98.954185,22.1298165 Z M102.567665,21.0440367 L100.009824,21.0440367 L100.009824,21.6908257 L102.567665,21.6908257 L102.567665,21.0440367 Z M102.567665,22.4201835 L100.009824,22.4201835 L100.009824,23.0449541 L102.567665,23.0449541 L102.567665,22.4201835 Z M102.567665,23.7853211 L100.009824,23.7853211 L100.009824,24.4431193 L102.567665,24.4431193 L102.567665,23.7853211 Z" id="Shape"></path>
            <path d="M122.699912,19.5068807 L122.699912,29.6325688 L121.565066,29.6325688 L121.565066,29.1811927 L114.245242,29.1811927 L114.245242,29.6325688 L113.152731,29.6325688 L113.152731,19.5068807 L122.699912,19.5068807 Z M121.565066,28.2110092 L121.565066,20.4894495 L114.245242,20.4894495 L114.245242,28.2110092 L121.565066,28.2110092 Z M121.018811,23.2279817 L119.412819,23.2279817 L119.412819,26.5692661 C119.412819,27.0784404 119.321322,27.3550459 118.977181,27.5050459 C118.63304,27.6550459 118.157797,27.6908257 117.451762,27.6908257 C117.370575,27.35703 117.251431,27.0337908 117.096696,26.7275229 C117.589692,26.7509174 118.052643,26.7509174 118.189207,26.7399083 C118.325771,26.7288991 118.383128,26.6931193 118.383128,26.5555046 L118.383128,24.3729358 C117.499871,25.3264788 116.479234,26.1406421 115.355507,26.7880734 C115.155583,26.5171711 114.926589,26.2693395 114.672687,26.0490826 C115.965295,25.3439069 117.104401,24.384618 118.022599,23.2279817 L114.888458,23.2279817 L114.888458,22.2811927 L118.374934,22.2811927 L118.374934,20.9050459 L119.407357,20.9050459 L119.407357,22.2811927 L121.013348,22.2811927 L121.018811,23.2279817 Z" id="Shape"></path>
        </g>
    </g>
</svg>