<svg id="Layer_1" data-name="Layer 1" xmlns="http://www.w3.org/2000/svg" xmlns:xlink="http://www.w3.org/1999/xlink" viewBox="0 0 1200 500"><defs><style>.cls-1{fill:#62626b;}.cls-2{fill:url(#linear-gradient);}</style><linearGradient id="linear-gradient" x1="146.9" y1="250" x2="363" y2="250" gradientUnits="userSpaceOnUse"><stop offset="0" stop-color="#8f8f9b"/><stop offset="1" stop-color="#62626b"/></linearGradient></defs><title>IEGLogo2019cn</title><path class="cls-1" d="M431.1,144.75a9.4,9.4,0,0,0-6.8-2.8,9.9,9.9,0,0,0-7.21,2.8,9.4,9.4,0,0,0-2.86,7v80a9.55,9.55,0,0,0,9.8,9.76,9.87,9.87,0,0,0,6.91-2.77h0a9.22,9.22,0,0,0,3-7v-80A9.4,9.4,0,0,0,431.1,144.75Z"/><path class="cls-1" d="M508,173.11h0c-3.8-5.89-10.66-8.88-20.4-8.88A26.43,26.43,0,0,0,473.83,168a36.57,36.57,0,0,0-7.73,6.11,9.33,9.33,0,0,0-2.64-5.69,9.74,9.74,0,0,0-13.65,0,9.51,9.51,0,0,0-2.7,6.87v56.53a9.51,9.51,0,0,0,2.7,6.87,9.74,9.74,0,0,0,13.65,0,9.51,9.51,0,0,0,2.7-6.87v-35a14.41,14.41,0,0,1,4.14-10.65c2.74-2.78,6.62-4.2,11.52-4.2,4.65,0,7.93,1.27,9.76,3.78s2.9,6.36,2.9,11.07v35a9.5,9.5,0,0,0,2.69,6.87,9.74,9.74,0,0,0,13.65,0,9.54,9.54,0,0,0,2.7-6.87v-35C513.52,186.78,511.65,178.82,508,173.11Z"/><path class="cls-1" d="M561.9,223.36a9.17,9.17,0,0,0-3.51.74,10.3,10.3,0,0,1-2.65.5,4.84,4.84,0,0,1-3.25-1,4,4,0,0,1-1-3.18V184.64h8.41a8.84,8.84,0,0,0,6.38-2.49,8.32,8.32,0,0,0,2.59-6.21,8.78,8.78,0,0,0-9-9h-8.41v-7.45c0-2.72-.91-8.92-2.7-10.76a9,9,0,0,0-6.69-2.79,9.39,9.39,0,0,0-6.88,2.77c-1.84,1.85-2.78,8.06-2.78,10.78V167h-5a8.86,8.86,0,0,0-6.38,2.49,8.32,8.32,0,0,0-2.59,6.21,8.78,8.78,0,0,0,9,9h5v36.47c0,8.3,2.17,13.85,6.44,16.51a27.9,27.9,0,0,0,15,3.83,18.15,18.15,0,0,0,9.8-2.73c3.09-1.94,4.65-4.41,4.65-7.34a8.56,8.56,0,0,0-1.88-5.71A5.84,5.84,0,0,0,561.9,223.36Z"/><path class="cls-1" d="M639.59,181.62a38.3,38.3,0,0,0-13.24-13.75,33.51,33.51,0,0,0-17.73-5.12,35.08,35.08,0,0,0-17.91,4.9,36.51,36.51,0,0,0-13.49,14.12,43.43,43.43,0,0,0-5.09,21.3A39.93,39.93,0,0,0,577,222.66a34.79,34.79,0,0,0,13.71,13.72,43.74,43.74,0,0,0,34.12,2.7,34,34,0,0,0,10.65-5.55c2.88-2.26,4.34-4.86,4.34-7.74a7.85,7.85,0,0,0-2.44-5.71c-2.8-2.8-6.66-3.28-11.18-1l-2.56,1.59a21.78,21.78,0,0,1-4.7,2,28.25,28.25,0,0,1-8.35,1,19.85,19.85,0,0,1-12.48-4.31A19.14,19.14,0,0,1,591.38,209H634.9a10.07,10.07,0,0,0,6.59-2.36,8.36,8.36,0,0,0,3.07-6.34A37.09,37.09,0,0,0,639.59,181.62Zm-31-1.19a16.55,16.55,0,0,1,10.67,3.81,12.86,12.86,0,0,1,5.09,8.49H591.5C593.62,184.46,599.23,180.43,608.62,180.43Z"/><path class="cls-1" d="M699.32,166.86h0a11.75,11.75,0,0,0-7.75-2.63,29.25,29.25,0,0,0-13.18,3.08,22.34,22.34,0,0,0-7.34,5.8,9.36,9.36,0,0,0-2.5-4.72,9.74,9.74,0,0,0-13.65,0,9.54,9.54,0,0,0-2.69,6.87v56.53a9.54,9.54,0,0,0,2.69,6.87,9.74,9.74,0,0,0,13.65,0,9.51,9.51,0,0,0,2.7-6.87V199.35a23.21,23.21,0,0,1,2-10,14.69,14.69,0,0,1,5-6.11,10.76,10.76,0,0,1,6.12-2,9.93,9.93,0,0,1,2.72.36l1.75.52c4.76,1.75,8.41,1.26,11.22-1.45,1.72-1.67,2.59-4.12,2.59-7.31A8.22,8.22,0,0,0,699.32,166.86Z"/><path class="cls-1" d="M786.79,189.83h0a9,9,0,0,0-6.71-2.75H758a9.39,9.39,0,0,0-6.76,2.66,9.59,9.59,0,0,0,0,13.44,9.36,9.36,0,0,0,6.76,2.65h11.38v15.29a47.1,47.1,0,0,1-6.46,1.42,50.84,50.84,0,0,1-7.88.66A29.15,29.15,0,0,1,739.76,219a31.34,31.34,0,0,1,0-53.72,29.09,29.09,0,0,1,15.24-4.2,37,37,0,0,1,14.57,3c4.71,2.09,8.62,1.37,11.39-1.73a9.84,9.84,0,0,0,2.55-6.73,8.59,8.59,0,0,0-4.71-7.73c-6.73-3.68-14.73-5.55-23.8-5.55a50,50,0,0,0-25.31,6.71,50.53,50.53,0,0,0-18.39,18.11,49.43,49.43,0,0,0,0,50,50.45,50.45,0,0,0,18.39,18.11A49.87,49.87,0,0,0,755,242a55.28,55.28,0,0,0,29.65-8.41,9.32,9.32,0,0,0,4.79-8.37V196.59A9.38,9.38,0,0,0,786.79,189.83Z"/><path class="cls-1" d="M845.32,166.86h0a11.75,11.75,0,0,0-7.75-2.63,29.25,29.25,0,0,0-13.18,3.08,22.48,22.48,0,0,0-7.35,5.8,9.27,9.27,0,0,0-2.49-4.72,9.74,9.74,0,0,0-13.65,0,9.5,9.5,0,0,0-2.69,6.87v56.53a9.5,9.5,0,0,0,2.69,6.87,9.74,9.74,0,0,0,13.65,0,9.51,9.51,0,0,0,2.7-6.87V199.35a23.21,23.21,0,0,1,2-10,14.69,14.69,0,0,1,5-6.11,10.75,10.75,0,0,1,6.11-2,10,10,0,0,1,2.73.36l1.75.52c4.76,1.75,8.41,1.26,11.22-1.45,1.72-1.67,2.59-4.12,2.59-7.31A8.25,8.25,0,0,0,845.32,166.86Z"/><path class="cls-1" d="M914.54,181.62a38.32,38.32,0,0,0-13.25-13.75,33.49,33.49,0,0,0-17.73-5.12,35.11,35.11,0,0,0-17.91,4.9,36.42,36.42,0,0,0-13.48,14.12,43.43,43.43,0,0,0-5.09,21.3,40,40,0,0,0,4.81,19.59,34.82,34.82,0,0,0,13.72,13.72,43.74,43.74,0,0,0,34.12,2.7,34,34,0,0,0,10.65-5.55c2.88-2.26,4.33-4.86,4.33-7.74a7.88,7.88,0,0,0-2.43-5.71c-2.8-2.8-6.67-3.28-11.18-1l-2.56,1.59a21.89,21.89,0,0,1-4.71,2,28.21,28.21,0,0,1-8.35,1A19.82,19.82,0,0,1,873,219.36,19,19,0,0,1,866.33,209h43.52a10,10,0,0,0,6.58-2.36,8.33,8.33,0,0,0,3.07-6.34A37.18,37.18,0,0,0,914.54,181.62Zm-31-1.19a16.6,16.6,0,0,1,10.68,3.81,12.86,12.86,0,0,1,5.09,8.49H866.44C868.56,184.46,874.18,180.43,883.56,180.43Z"/><path class="cls-1" d="M994.71,167.47a9,9,0,0,0-6.63-2.64,9,9,0,0,0-9,7,34.27,34.27,0,0,0-8-4.59,32.32,32.32,0,0,0-12.48-2.43,31,31,0,0,0-17,4.94,34.16,34.16,0,0,0-12.12,13.69,43.33,43.33,0,0,0-4.4,19.69,42.37,42.37,0,0,0,4.48,19.64,34.42,34.42,0,0,0,12.24,13.62,31.86,31.86,0,0,0,17.34,4.93,28.51,28.51,0,0,0,12.48-2.86,30.73,30.73,0,0,0,7.59-5,9.25,9.25,0,0,0,2.27,3.91,8.79,8.79,0,0,0,6.58,2.65,8.93,8.93,0,0,0,6.64-2.72,9.26,9.26,0,0,0,2.63-6.68V174.24A9.21,9.21,0,0,0,994.71,167.47Zm-15.24,35.68c0,6.06-1.73,11.13-5.15,15.1a16.44,16.44,0,0,1-13.16,5.88,16.24,16.24,0,0,1-13.09-5.88c-3.38-4-5.09-9-5.09-15.1S944.71,192,948.14,188a17.36,17.36,0,0,1,26.17,0C977.74,192,979.47,197.1,979.47,203.15Z"/><path class="cls-1" d="M1046.18,223.36a9.17,9.17,0,0,0-3.51.74,10.3,10.3,0,0,1-2.65.5,4.88,4.88,0,0,1-3.26-1,4.07,4.07,0,0,1-1-3.18V184.64h8.41a8.87,8.87,0,0,0,6.39-2.49,8.32,8.32,0,0,0,2.59-6.21,8.8,8.8,0,0,0-9-9h-8.41V155.62a9.46,9.46,0,0,0-2.7-6.86,9,9,0,0,0-6.68-2.79,9.48,9.48,0,0,0-9.66,9.65V167h-5a8.88,8.88,0,0,0-6.39,2.49,8.35,8.35,0,0,0-2.58,6.21,8.78,8.78,0,0,0,9,9h5v36.47c0,8.3,2.16,13.85,6.43,16.51a27.93,27.93,0,0,0,15,3.83,18.17,18.17,0,0,0,9.8-2.73c3.09-1.94,4.65-4.41,4.65-7.34a8.51,8.51,0,0,0-1.89-5.71A5.81,5.81,0,0,0,1046.18,223.36Z"/><path class="cls-2" d="M255,142A108.05,108.05,0,1,0,363,250,108.06,108.06,0,0,0,255,142Zm27.78,126.74a46.31,46.31,0,0,1-92.61,0,9.26,9.26,0,1,1,18.52,0,27.79,27.79,0,0,0,55.57,0V231.31a9.26,9.26,0,0,1,18.52,0Zm27.79-28.11a9.25,9.25,0,0,1-9.26-9.27,27.79,27.79,0,0,0-55.57,0v37.38a9.26,9.26,0,1,1-18.52,0V231.31a46.31,46.31,0,0,1,92.61,0A9.25,9.25,0,0,1,310.52,240.58Z"/><path class="cls-1" d="M459.76,333c6.13,9.15,17,14.36,32.51,16.29a29.17,29.17,0,0,0-4.87,7.23c-16.22-2.69-27-9.07-33.86-20.25-4.36,8.32-14.11,15.46-34.44,20.25a32.33,32.33,0,0,0-4.87-6.55c19.66-4.12,28.14-10.17,31.84-17H415.91v-7.23h8.4V306.43h24.28v-9.07h8.15v9.07h25.62v19.32h7.81V333ZM434,293.41H416.84v-7H434V279.3h7.73v7.14H464V279.3h7.81v7.14H489v7H471.77v8.15H464v-8.15H441.7v8.15H434Zm14.37,32.34a47.83,47.83,0,0,0,.25-4.78v-7.73h-16.8v12.51Zm8.4-12.51v7.81a43.4,43.4,0,0,1-.26,4.7h18V313.24Z"/><path class="cls-1" d="M601.3,340.54H568.12v15.7h-7.73v-15.7H527.46V333.4h32.93v-5.21h5.21c-1.26-1.26-2.77-2.52-3.7-3.28,7.4-3.19,13.19-8.48,15.38-15.71l7.05,1.18a26.08,26.08,0,0,1-2.94,6.64,122.59,122.59,0,0,1,15.21,9.91l-5.38,4.79c-2.86-2.69-8.48-6.56-13.52-9.66a39.53,39.53,0,0,1-9.58,7.39v3.95H601.3Zm-55.36-48.39H527.72v-6.88h18.22v-6h7.65v6h21.08v-6h7.56v6h18.9v6.88h-18.9v6.05h-7.56v-6.05H553.59v6.05h-7.65Zm51.16,16.13H531.66v-6.8h28.73q-1.26-2.66-2.52-5l7.39-2.19c1.26,2.1,2.78,4.88,3.87,7.23h28Zm-42.59,2.27a40.27,40.27,0,0,1-2.35,5.46,68.77,68.77,0,0,1,9.83,7l-5,5a58.51,58.51,0,0,0-8.23-6.55A39.68,39.68,0,0,1,537,331.89a50.34,50.34,0,0,0-5.38-5,31.14,31.14,0,0,0,15.88-17.65Z"/><path class="cls-1" d="M709,301.9c-1.85,12.93-4.88,23.6-9.66,32.34,4,6.63,9.15,12,15.62,15.37a32.57,32.57,0,0,0-5.54,6.72,44.55,44.55,0,0,1-14.87-14.79,56.38,56.38,0,0,1-18.65,15,40.1,40.1,0,0,0-4.62-7.05,45.35,45.35,0,0,0,19.07-15.63,106.81,106.81,0,0,1-6.72-20.49,60.76,60.76,0,0,1-5,8,44,44,0,0,0-4.87-4.46,76.32,76.32,0,0,1-12.18,11v3.19c5.38-.51,10.92-.93,16.38-1.51v6.72L661.61,338v10.5c0,3.52-.67,5.46-3.27,6.47-2.53,1.17-6.22,1.17-11.6,1.17a19.59,19.59,0,0,0-2.35-6.63c3.78.08,7.39.08,8.49,0s1.42-.26,1.42-1.18v-9.58l-16.54,1.6-.84-7c4.78-.42,10.83-.93,17.38-1.51v-5.63l-.08-.09a59.88,59.88,0,0,0,8.4-6.63h-7.31a83.87,83.87,0,0,1-13.69,9.91,48.89,48.89,0,0,0-5.29-6,74.25,74.25,0,0,0,7.81-4.71v-5.46h7.05c1.85-1.68,3.7-3.44,5.38-5.29H637.08v-6.8h13.69v-7.06H640.44v-6.64h10.33V279.3H658v8.23h9.41v5.8a82.4,82.4,0,0,0,5.62-12l7.31,2a108.16,108.16,0,0,1-9.24,17.9h6.39v6.55c4-8.07,6.88-18.15,8.48-28.56l7.9,1.26a128.6,128.6,0,0,1-3.19,14.11h23.51v7.31Zm-46.71-.67a68.63,68.63,0,0,0,4.62-7.06H658v7.06ZM673,315.17a42.48,42.48,0,0,0,4.37-7.14H666.15a66.66,66.66,0,0,1-4.46,5.29h6.89l1.43-.42Zm15.62-13.27A114.6,114.6,0,0,0,695,325.42a90,90,0,0,0,6-23.52Z"/><path class="cls-1" d="M823.73,294h-20.5c5.88,4.71,13,10.5,17.06,14.28l-6.47,4.54c-1.51-1.43-3.45-3.36-5.71-5.38-41.42,2.35-46.12,2.52-49.31,3.78a65.25,65.25,0,0,0-2.61-7.89c1.68-.26,3.45-1.26,5.63-2.69a90.72,90.72,0,0,0,8.65-6.64H750.31v-6.89h33.86c-1.1-2.18-2.44-4.53-3.53-6.46l7.89-2.19c1.52,2.52,3.45,6,4.88,8.65h30.32Zm-10.58,54.27c0,4.2-1.26,6-4.54,7.05s-8.74,1-16.88,1a26.06,26.06,0,0,0-2.61-6.38c5.71.25,12.27.25,13.86.08,1.68,0,2.27-.5,2.27-1.93v-5.71h-36.2v13.94h-7.82V314h51.92Zm-44.1-27.89v5.46h36.2v-5.46Zm36.2,16.38v-5.38h-36.2v5.38Zm-4-35.37c-2.27-1.84-4.37-3.69-6.38-5.37l3.27-2h-16A135.73,135.73,0,0,1,771,302.82Z"/><path class="cls-1" d="M908.82,336.93c7.81,5.12,18.82,9.49,28.48,11.76a31.51,31.51,0,0,0-4.79,6.38c-10.42-3.11-22.18-8.74-30.58-15.37v16.46h-7.72V339.87a95.21,95.21,0,0,1-30.41,15.62,52.29,52.29,0,0,0-5.13-6.38c9.83-2.36,21-6.89,28.9-12.18H860.94v-6.31h33.27V325.5h7.72v5.12h33.52v6.31ZM870.6,301.81a76.66,76.66,0,0,1-6.13,5.46,24.69,24.69,0,0,0-5.54-5.12,68,68,0,0,0,19.57-23l8.06,1.52a81.67,81.67,0,0,1-4.45,7.13h16.46a50.12,50.12,0,0,0-3.19-6.8l7.06-2a53.15,53.15,0,0,1,4.28,8.81h24.19v6.14H904.54v4.7H927.3v5.29H904.54v4.54h22.93v5.38H904.54v4.78h28.72v6.13H878.33v2.44H870.6Zm26.46-7.89H878.33v4.7h18.73Zm0,10H878.33v4.54h18.73Zm0,9.92H878.33v4.78h18.73Z"/><path class="cls-1" d="M1044.48,282.75v73.58h-8.31v-3.28h-53.6v3.28h-8V282.75ZM1036.17,346V289.89h-53.6V346Zm-4-36.21h-11.76v24.28c0,3.7-.67,5.71-3.19,6.8s-6,1.35-11.17,1.35a32.46,32.46,0,0,0-2.6-7c3.61.17,7,.17,8,.09s1.42-.34,1.42-1.34V318.11a94.47,94.47,0,0,1-22.17,17.55,33.33,33.33,0,0,0-5-5.37,80.48,80.48,0,0,0,24.53-20.5H987.28v-6.88h25.53v-10h7.56v10h11.76Z"/></svg>