<?xml version="1.0" encoding="UTF-8"?>
<svg width="170px" height="62px" viewBox="0 0 170 62" version="1.1" xmlns="http://www.w3.org/2000/svg" xmlns:xlink="http://www.w3.org/1999/xlink">
    <!-- Generator: Sketch 52.5 (67469) - http://www.bohemiancoding.com/sketch -->
    <title>logo_LPO</title>
    <desc>Created with Sketch.</desc>
    <defs>
        <linearGradient x1="11.6668884%" y1="99.9358931%" x2="88.5132641%" y2="-4.61551261%" id="linearGradient-1">
            <stop stop-color="#7C4B0A" offset="6.080596%"></stop>
            <stop stop-color="#C59517" offset="28.93%"></stop>
            <stop stop-color="#C78903" offset="47.67%"></stop>
            <stop stop-color="#E7C85E" offset="56.42%"></stop>
            <stop stop-color="#F4E182" offset="59.7%"></stop>
            <stop stop-color="#C59517" offset="73.01%"></stop>
            <stop stop-color="#F1C870" offset="94.51%"></stop>
        </linearGradient>
    </defs>
    <g id="logo_LPO" stroke="none" stroke-width="1" fill="none" fill-rule="evenodd">
        <g id="LpoLogo-02-01" transform="translate(2.000000, 12.000000)">
            <polygon id="Path" fill="#000000" points="50.3113924 19.8972222 37.2579114 19.8972222 37.2579114 0.738888889 40.0588608 0.738888889 40.0588608 17.6277778 50.3113924 17.6277778"></polygon>
            <path d="M63.2063291,0.422222222 C64.6860759,0.422222222 66.0072785,0.633333333 67.2227848,1.16111111 C68.4382911,1.63611111 69.5481013,2.32222222 70.3936709,3.16666667 C71.2920886,4.01111111 71.9791139,5.06666667 72.5075949,6.28055556 C72.9832278,7.49444444 73.2474684,8.86666667 73.2474684,10.3444444 C73.2474684,11.8222222 72.9832278,13.1416667 72.5075949,14.3555556 C72.031962,15.5694444 71.2920886,16.625 70.446519,17.4694444 C69.5481013,18.3666667 68.4911392,19 67.2756329,19.475 C66.0601266,19.95 64.6860759,20.2138889 63.2063291,20.2138889 C61.7265823,20.2138889 60.3525316,20.0027778 59.1370253,19.475 C57.921519,19 56.8117089,18.3138889 55.9661392,17.4694444 C55.0677215,16.625 54.3806962,15.5694444 53.9050633,14.3555556 C53.4294304,13.1416667 53.1651899,11.7694444 53.1651899,10.2916667 C53.1651899,8.81388889 53.4294304,7.44166667 53.9050633,6.22777778 C54.4335443,5.01388889 55.1205696,3.95833333 56.0189873,3.11388889 C56.9174051,2.26944444 57.9743671,1.58333333 59.1898734,1.10833333 C60.4053797,0.633333333 61.7265823,0.422222222 63.2063291,0.422222222 M63.2063291,18.05 C64.2632911,18.05 65.214557,17.8916667 66.1129747,17.5222222 C67.0113924,17.1527778 67.7512658,16.6777778 68.385443,15.9916667 C69.0196203,15.3055556 69.4952532,14.5138889 69.8651899,13.5638889 C70.2351266,12.6138889 70.3936709,11.5055556 70.3936709,10.2916667 C70.3936709,9.07777778 70.2351266,7.96944444 69.8651899,7.01944444 C69.4952532,6.06944444 69.0196203,5.27777778 68.385443,4.59166667 C67.7512658,3.95833333 67.0113924,3.43055556 66.1129747,3.11388889 C65.214557,2.79722222 64.2632911,2.58611111 63.2591772,2.58611111 C62.2022152,2.58611111 61.2509494,2.74444444 60.3525316,3.11388889 C59.4541139,3.48333333 58.7142405,3.95833333 58.0800633,4.64444444 C57.4458861,5.33055556 56.9174051,6.12222222 56.5474684,7.07222222 C56.1775316,8.02222222 56.0189873,9.13055556 56.0189873,10.2916667 C56.0189873,11.5055556 56.1775316,12.6138889 56.5474684,13.5638889 C56.9174051,14.5138889 57.393038,15.3055556 58.0272152,15.9916667 C58.6613924,16.625 59.4012658,17.1527778 60.2996835,17.5222222 C61.1981013,17.8916667 62.1493671,18.05 63.2063291,18.05" id="Shape" fill="#000000" fill-rule="nonzero"></path>
            <polygon id="Path" fill="#000000" points="94.968038 19.8972222 92.1142405 19.8972222 81.0161392 4.80277778 81.0161392 19.8972222 78.3737342 19.8972222 78.3737342 0.738888889 81.2803797 0.738888889 92.2727848 15.8861111 92.2727848 0.738888889 94.968038 0.738888889"></polygon>
            <path d="M119.489557,10.2388889 C119.489557,16.6777778 115.895886,19.8972222 108.761392,19.8972222 L102.049684,19.8972222 L102.049684,0.738888889 L108.761392,0.738888889 C115.895886,0.738888889 119.489557,3.90555556 119.489557,10.2388889 M116.635759,10.2388889 C116.635759,9.13055556 116.530063,8.12777778 116.265823,7.23055556 C116.001582,6.33333333 115.578797,5.59444444 114.997468,4.96111111 C114.416139,4.32777778 113.57057,3.85277778 112.566456,3.53611111 C111.562342,3.21944444 110.293987,3.06111111 108.708544,3.06111111 L104.850633,3.06111111 L104.850633,17.6277778 L108.708544,17.6277778 C110.241139,17.6277778 111.509494,17.4694444 112.513608,17.1 C113.517722,16.7833333 114.363291,16.3083333 114.94462,15.675 C115.525949,15.0416667 115.948734,14.25 116.212975,13.3527778 C116.530063,12.4027778 116.635759,11.4 116.635759,10.2388889" id="Shape" fill="#000000" fill-rule="nonzero"></path>
            <path d="M133.864241,0.422222222 C135.343987,0.422222222 136.66519,0.633333333 137.880696,1.16111111 C139.096203,1.63611111 140.206013,2.32222222 141.051582,3.16666667 C141.95,4.01111111 142.637025,5.06666667 143.165506,6.28055556 C143.641139,7.49444444 143.90538,8.86666667 143.90538,10.3444444 C143.90538,11.8222222 143.641139,13.1416667 143.165506,14.3555556 C142.689873,15.5694444 141.95,16.625 141.10443,17.4694444 C140.206013,18.3666667 139.149051,19 137.933544,19.475 C136.718038,19.95 135.343987,20.2138889 133.864241,20.2138889 C132.384494,20.2138889 131.010443,20.0027778 129.794937,19.475 C128.57943,19 127.46962,18.3138889 126.624051,17.4694444 C125.725633,16.625 125.038608,15.5694444 124.562975,14.3555556 C124.087342,13.1416667 123.823101,11.7694444 123.823101,10.2916667 C123.823101,8.81388889 124.087342,7.44166667 124.562975,6.22777778 C125.091456,5.01388889 125.778481,3.95833333 126.676899,3.11388889 C127.575316,2.26944444 128.632278,1.58333333 129.847785,1.10833333 C131.063291,0.633333333 132.437342,0.422222222 133.864241,0.422222222 M133.864241,18.05 C134.921203,18.05 135.872468,17.8916667 136.770886,17.5222222 C137.669304,17.1527778 138.409177,16.6777778 139.043354,15.9916667 C139.677532,15.3055556 140.206013,14.5138889 140.523101,13.5638889 C140.893038,12.6138889 141.051582,11.5055556 141.051582,10.2916667 C141.051582,9.07777778 140.893038,7.96944444 140.523101,7.01944444 C140.153165,6.06944444 139.677532,5.27777778 139.043354,4.59166667 C138.409177,3.95833333 137.669304,3.43055556 136.770886,3.11388889 C135.872468,2.79722222 134.974051,2.58611111 133.917089,2.58611111 C132.860127,2.58611111 131.908861,2.74444444 131.010443,3.11388889 C130.112025,3.48333333 129.372152,3.95833333 128.737975,4.64444444 C128.103797,5.33055556 127.575316,6.12222222 127.258228,7.07222222 C126.888291,8.02222222 126.729747,9.13055556 126.729747,10.2916667 C126.729747,11.5055556 126.888291,12.6138889 127.258228,13.5638889 C127.628165,14.5138889 128.103797,15.3055556 128.737975,15.9916667 C129.372152,16.625 130.112025,17.1527778 131.010443,17.5222222 C131.856013,17.8916667 132.807278,18.05 133.864241,18.05" id="Shape" fill="#000000" fill-rule="nonzero"></path>
            <polygon id="Path" fill="#000000" points="165.943038 19.8972222 163.089241 19.8972222 151.991139 4.80277778 151.991139 19.8972222 149.348734 19.8972222 149.348734 0.738888889 152.25538 0.738888889 163.247785 15.8861111 163.247785 0.738888889 165.943038 0.738888889"></polygon>
            <path d="M37.2579114,27.1805556 L41.4857595,27.1805556 C42.0670886,27.1805556 42.5955696,27.2333333 43.1240506,27.3388889 C43.6525316,27.4444444 44.1281646,27.6027778 44.4981013,27.8138889 C44.9208861,28.025 45.2379747,28.3416667 45.4493671,28.7111111 C45.6607595,29.0805556 45.8193038,29.6083333 45.8193038,30.1888889 C45.8193038,31.2444444 45.4493671,32.0361111 44.7623418,32.5638889 C44.0224684,33.0916667 42.9655063,33.3555556 41.5914557,33.3555556 L38.7376582,33.3555556 L38.7376582,37.4722222 L37.2579114,37.4722222 L37.2579114,27.1805556 Z M38.7376582,32.1416667 L41.6443038,32.1416667 C42.1199367,32.1416667 42.5427215,32.0888889 42.8598101,32.0361111 C43.1768987,31.9305556 43.4939873,31.825 43.7053797,31.6666667 C43.9167722,31.5083333 44.0753165,31.2972222 44.1810127,31.0861111 C44.2867089,30.8222222 44.339557,30.5583333 44.339557,30.2416667 C44.339557,29.8722222 44.2867089,29.5555556 44.1281646,29.2916667 C43.9696203,29.0277778 43.8110759,28.8694444 43.5468354,28.7638889 C43.2825949,28.6055556 43.0183544,28.5527778 42.7012658,28.5 C42.3841772,28.4472222 42.0142405,28.4472222 41.6443038,28.4472222 L38.7905063,28.4472222 L38.7905063,32.1416667 L38.7376582,32.1416667 Z" id="Shape" fill="#000000" fill-rule="nonzero"></path>
            <path d="M57.2873418,37.525 L55.6490506,37.525 L54.5920886,34.7805556 C54.4863924,34.5166667 54.3806962,34.3055556 54.2221519,34.1472222 C54.0636076,33.9361111 53.8522152,33.7777778 53.6408228,33.6194444 C53.4294304,33.4611111 53.218038,33.3555556 52.9537975,33.3027778 C52.689557,33.1972222 52.4253165,33.1972222 52.1082278,33.1972222 L49.3072785,33.1972222 L49.3072785,37.5777778 L47.8275316,37.5777778 L47.8275316,27.2861111 L52.8481013,27.2861111 C53.1651899,27.2861111 53.4294304,27.2861111 53.6936709,27.2861111 C53.9579114,27.2861111 54.2221519,27.3388889 54.4863924,27.3916667 C54.7506329,27.4444444 54.9620253,27.4972222 55.1734177,27.6027778 C55.3848101,27.7083333 55.5962025,27.8138889 55.8075949,27.9722222 C56.1775316,28.2361111 56.3889241,28.5527778 56.6003165,28.975 C56.7588608,29.3444444 56.864557,29.7666667 56.864557,30.1888889 C56.864557,30.5583333 56.8117089,30.875 56.7060127,31.1916667 C56.6003165,31.5083333 56.4417722,31.7722222 56.1775316,31.9833333 C55.9661392,32.1944444 55.7018987,32.4055556 55.3848101,32.5638889 C55.0677215,32.7222222 54.6977848,32.8277778 54.3278481,32.9333333 C55.1205696,33.1444444 55.7018987,33.7777778 56.1246835,34.7805556 L57.2873418,37.525 Z M49.3072785,31.8777778 L52.689557,31.8777778 C53.1651899,31.8777778 53.5351266,31.825 53.9050633,31.7722222 C54.2221519,31.7194444 54.5392405,31.6138889 54.7506329,31.4555556 C54.9620253,31.2972222 55.1205696,31.1388889 55.2262658,30.875 C55.331962,30.6638889 55.3848101,30.3472222 55.3848101,30.0305556 C55.3848101,29.45 55.1734177,29.0277778 54.803481,28.7111111 C54.3806962,28.4472222 53.7993671,28.2888889 53.0066456,28.2888889 L49.4129747,28.2888889 L49.4129747,31.8777778 L49.3072785,31.8777778 Z" id="Shape" fill="#000000" fill-rule="nonzero"></path>
            <rect id="Rectangle" fill="#000000" x="59.506962" y="27.1805556" width="1.47974684" height="10.2916667"></rect>
            <polygon id="Path" fill="#000000" points="72.8775316 27.1805556 68.4911392 37.525 66.9056962 37.525 62.5193038 27.1805556 64.1047468 27.1805556 67.6984177 36.0472222 71.2920886 27.1805556"></polygon>
            <path d="M83.6056962,37.525 L81.914557,37.525 L80.5933544,34.4111111 L75.8370253,34.4111111 L74.5686709,37.525 L72.9832278,37.525 L77.3167722,27.2333333 L78.9550633,27.2333333 L83.6056962,37.525 Z M80.1177215,33.3027778 L78.1094937,28.5527778 L76.206962,33.3027778 L80.1177215,33.3027778 Z" id="Shape" fill="#000000" fill-rule="nonzero"></path>
            <polygon id="Path" fill="#000000" points="92.906962 28.4472222 89.1547468 28.4472222 89.1547468 37.525 87.675 37.525 87.675 28.4472222 83.9227848 28.4472222 83.9227848 27.1805556 92.906962 27.1805556"></polygon>
            <polygon id="Path" fill="#000000" points="103.000949 37.525 94.5452532 37.525 94.5452532 27.1805556 102.736709 27.1805556 102.736709 28.4472222 96.025 28.4472222 96.025 31.5611111 102.313924 31.5611111 102.313924 32.775 96.025 32.775 96.025 36.2583333 103.000949 36.2583333"></polygon>
            <path d="M115.525949,27.0222222 C116.318671,27.0222222 117.058544,27.1277778 117.692722,27.3916667 C118.379747,27.6555556 118.908228,28.025 119.436709,28.4472222 C119.912342,28.9222222 120.282278,29.45 120.546519,30.1361111 C120.810759,30.7694444 120.969304,31.5083333 120.969304,32.3 C120.969304,33.0916667 120.810759,33.8305556 120.546519,34.4638889 C120.282278,35.0972222 119.912342,35.6777778 119.436709,36.1527778 C118.961076,36.6277778 118.379747,36.9972222 117.74557,37.2611111 C117.058544,37.525 116.371519,37.6305556 115.578797,37.6305556 C114.786076,37.6305556 114.046203,37.525 113.412025,37.2611111 C112.725,36.9972222 112.196519,36.6277778 111.668038,36.2055556 C111.192405,35.7305556 110.822468,35.15 110.558228,34.5166667 C110.293987,33.8833333 110.135443,33.1444444 110.135443,32.3527778 C110.135443,31.5611111 110.293987,30.8222222 110.558228,30.1888889 C110.822468,29.5555556 111.192405,28.975 111.668038,28.5 C112.143671,28.025 112.725,27.6555556 113.412025,27.4444444 C113.993354,27.1277778 114.733228,27.0222222 115.525949,27.0222222 M115.525949,36.5222222 C116.107278,36.5222222 116.635759,36.4166667 117.111392,36.2583333 C117.587025,36.0472222 118.00981,35.7833333 118.326899,35.4666667 C118.643987,35.0972222 118.961076,34.675 119.11962,34.1472222 C119.331013,33.6194444 119.383861,33.0388889 119.383861,32.4055556 C119.383861,31.7194444 119.278165,31.1388889 119.066772,30.6638889 C118.85538,30.1361111 118.591139,29.7138889 118.274051,29.3444444 C117.904114,28.975 117.534177,28.7111111 117.058544,28.5527778 C116.582911,28.3416667 116.107278,28.2888889 115.525949,28.2888889 C114.94462,28.2888889 114.416139,28.3944444 113.940506,28.5527778 C113.464873,28.7638889 113.042089,29.0277778 112.725,29.3444444 C112.355063,29.7138889 112.090823,30.1361111 111.932278,30.6638889 C111.720886,31.1916667 111.61519,31.7722222 111.61519,32.4055556 C111.61519,33.0388889 111.720886,33.6194444 111.87943,34.1472222 C112.090823,34.675 112.355063,35.0972222 112.672152,35.4666667 C113.042089,35.8361111 113.412025,36.1 113.887658,36.2583333 C114.416139,36.4166667 114.94462,36.5222222 115.525949,36.5222222" id="Shape" fill="#000000" fill-rule="nonzero"></path>
            <polygon id="Path" fill="#000000" points="130.587658 28.4472222 124.457278 28.4472222 124.457278 31.6138889 129.794937 31.6138889 129.794937 32.8277778 124.457278 32.8277778 124.457278 37.525 122.924684 37.525 122.924684 27.1805556 130.587658 27.1805556"></polygon>
            <polygon id="Path" fill="#000000" points="140.311709 28.4472222 134.128481 28.4472222 134.128481 31.6138889 139.466139 31.6138889 139.466139 32.8277778 134.128481 32.8277778 134.128481 37.525 132.648734 37.525 132.648734 27.1805556 140.311709 27.1805556"></polygon>
            <rect id="Rectangle" fill="#000000" x="142.531329" y="27.1805556" width="1.47974684" height="10.2916667"></rect>
            <path d="M156.113291,30.3472222 L154.580696,30.3472222 C154.580696,30.0305556 154.475,29.7138889 154.316456,29.45 C154.157911,29.1861111 153.946519,28.975 153.682278,28.7638889 C153.418038,28.5527778 153.100949,28.4472222 152.731013,28.3416667 C152.361076,28.2361111 151.991139,28.1833333 151.568354,28.1833333 C150.987025,28.1833333 150.458544,28.2888889 150.035759,28.4472222 C149.560127,28.6583333 149.19019,28.9222222 148.873101,29.2388889 C148.556013,29.6083333 148.291772,30.0305556 148.133228,30.5583333 C147.974684,31.0861111 147.868987,31.6666667 147.868987,32.3527778 C147.868987,33.0388889 147.974684,33.6194444 148.133228,34.1472222 C148.291772,34.675 148.556013,35.0972222 148.873101,35.4666667 C149.19019,35.8361111 149.560127,36.1 150.035759,36.2583333 C150.511392,36.4694444 150.987025,36.5222222 151.568354,36.5222222 C151.991139,36.5222222 152.413924,36.4694444 152.783861,36.3638889 C153.153797,36.2583333 153.470886,36.1 153.735127,35.9416667 C153.999367,35.7305556 154.210759,35.5194444 154.369304,35.2555556 C154.527848,34.9916667 154.633544,34.6222222 154.686392,34.3055556 L156.218987,34.3055556 C156.166139,34.8333333 156.007595,35.3611111 155.743354,35.7833333 C155.479114,36.2055556 155.162025,36.575 154.739241,36.8388889 C154.316456,37.1555556 153.893671,37.3666667 153.312342,37.525 C152.783861,37.6833333 152.202532,37.7361111 151.568354,37.7361111 C150.775633,37.7361111 150.035759,37.6305556 149.401582,37.3666667 C148.767405,37.1027778 148.186076,36.7333333 147.710443,36.3111111 C147.23481,35.8361111 146.917722,35.3083333 146.653481,34.6222222 C146.389241,33.9361111 146.283544,33.25 146.283544,32.4055556 C146.283544,31.6138889 146.389241,30.875 146.653481,30.1888889 C146.917722,29.5555556 147.23481,28.975 147.710443,28.5 C148.186076,28.025 148.714557,27.6555556 149.348734,27.4444444 C149.982911,27.1805556 150.722785,27.075 151.515506,27.075 C152.096835,27.075 152.678165,27.1277778 153.206646,27.2861111 C153.735127,27.4444444 154.210759,27.6555556 154.633544,27.9722222 C155.056329,28.2361111 155.373418,28.6055556 155.637658,29.0277778 C155.901899,29.3972222 156.060443,29.8194444 156.113291,30.3472222" id="Path" fill="#000000"></path>
            <polygon id="Path" fill="#000000" points="166.630063 37.525 158.174367 37.525 158.174367 27.1805556 166.365823 27.1805556 166.365823 28.4472222 159.654114 28.4472222 159.654114 31.5611111 165.943038 31.5611111 165.943038 32.775 159.654114 32.775 159.654114 36.2583333 166.630063 36.2583333"></polygon>
            <path d="M25.7898734,9.81666667 C26.0012658,9.18333333 26.3183544,8.60277778 26.6882911,8.075 C27.1639241,7.38888889 27.639557,6.65 27.9566456,5.91111111 C28.4851266,4.69722222 28.8022152,3.37777778 29.1721519,1.95277778 C29.2778481,1.53055556 29.4363924,0.844444444 29.1721519,0.527777778 C29.0664557,0.422222222 28.8550633,0.369444444 28.696519,0.422222222 C28.4851266,0.475 28.4322785,0.738888889 28.3794304,1.05555556 C28.3265823,1.31944444 28.2737342,1.58333333 28.168038,1.79444444 C27.639557,3.16666667 27.1110759,4.53888889 26.2655063,5.54166667 C26.3712025,5.01388889 26.4768987,4.53888889 26.5825949,3.95833333 C26.6882911,3.48333333 27.0582278,2.16388889 26.2655063,2.21666667 C25.6841772,2.26944444 25.578481,3.27222222 25.4727848,3.8 C25.2085443,4.90833333 24.8914557,5.80555556 24.3101266,6.70277778 C24.2044304,6.86111111 24.0987342,7.07222222 23.993038,7.17777778 C23.5702532,7.6 22.8832278,7.6 22.3018987,7.81111111 C22.1962025,7.86388889 22.1433544,7.81111111 22.1433544,7.70555556 C22.0376582,7.17777778 21.5620253,6.86111111 21.5091772,6.33333333 C21.5091772,6.22777778 21.5620253,6.175 21.6677215,6.175 C21.8262658,6.175 22.0905063,6.22777778 22.1433544,6.12222222 C22.0905063,5.85833333 21.931962,5.64722222 21.7734177,5.43611111 C21.6677215,5.27777778 21.5620253,5.17222222 21.5091772,5.06666667 C21.403481,4.96111111 21.403481,4.80277778 21.403481,4.64444444 C21.4563291,4.43333333 21.403481,4.16944444 21.5091772,4.01111111 C21.6677215,3.58888889 22.0376582,3.21944444 22.1962025,3.06111111 C22.3547468,2.90277778 22.6718354,2.74444444 22.6718354,2.53333333 C22.6718354,2.32222222 22.5132911,2.21666667 22.460443,2.21666667 C22.1433544,2.11111111 21.8791139,2.32222222 21.6148734,2.48055556 C20.875,2.85 20.0294304,3.27222222 19.0781646,3.325 C18.8667722,3.325 18.4439873,3.11388889 18.2325949,3.00833333 C17.3870253,2.63888889 15.5373418,1.53055556 15.2202532,2.90277778 C15.1674051,3.06111111 15.0088608,3.21944444 14.8503165,3.21944444 C14.3746835,3.16666667 13.8462025,3.00833333 13.4234177,2.90277778 C13.2120253,2.85 12.7892405,2.42777778 12.3136076,2.58611111 C12.1022152,2.63888889 12.1022152,2.79722222 11.9436709,2.85 C11.6794304,2.90277778 11.3623418,2.74444444 11.0452532,2.74444444 C10.5696203,2.69166667 10.0939873,2.85 9.88259494,3.16666667 C9.82974684,3.27222222 9.77689873,3.53611111 9.98829114,3.58888889 C10.1996835,3.58888889 10.3053797,3.37777778 10.6224684,3.43055556 C10.8867089,3.43055556 11.1509494,3.64166667 11.1509494,3.85277778 C11.1509494,4.16944444 10.7281646,4.16944444 10.6753165,4.43333333 C10.6753165,4.69722222 10.9924051,4.64444444 11.2566456,4.69722222 C11.3094937,4.69722222 11.3094937,4.69722222 11.3623418,4.75 C11.468038,4.90833333 11.468038,5.17222222 11.5737342,5.33055556 C11.5737342,5.38333333 11.6794304,5.43611111 11.5737342,5.48888889 C10.9924051,5.64722222 10.5696203,6.12222222 9.88259494,5.80555556 C9.56550633,5.64722222 9.30126582,5.43611111 9.08987342,5.17222222 C9.03702532,5.11944444 9.03702532,5.01388889 9.08987342,4.96111111 C9.35411392,4.75 9.40696203,3.95833333 9.19556962,3.95833333 C8.98417722,3.90555556 8.93132911,4.16944444 8.71993671,4.22222222 C8.35,4.32777778 8.13860759,4.06388889 7.82151899,3.90555556 C7.34588608,3.64166667 6.87025316,3.69444444 6.55316456,3.48333333 C6.44746835,3.37777778 6.23607595,3.16666667 6.13037975,3.16666667 C5.97183544,3.21944444 5.91898734,3.53611111 5.97183544,3.8 C6.13037975,4.43333333 6.60601266,4.38055556 6.92310127,4.75 C7.13449367,5.01388889 7.24018987,5.43611111 7.50443038,5.64722222 C7.71582278,5.80555556 7.98006329,5.80555556 8.03291139,6.06944444 C8.08575949,6.28055556 7.92721519,6.38611111 7.92721519,6.59722222 C8.2443038,6.70277778 8.5085443,6.43888889 8.56139241,6.12222222 C8.56139241,6.01666667 8.66708861,6.01666667 8.77278481,6.06944444 C8.93132911,6.175 9.03702532,6.33333333 9.19556962,6.38611111 C9.56550633,6.65 10.0939873,6.91388889 10.7281646,6.80833333 C10.9924051,6.75555556 11.2566456,6.70277778 11.5737342,6.65 C12.1550633,6.59722222 12.3664557,6.80833333 12.2607595,7.07222222 C12.1550633,7.23055556 11.8908228,7.23055556 11.9436709,7.49444444 C11.9436709,7.65277778 12.1550633,7.65277778 12.2607595,7.75833333 C12.3664557,7.91666667 12.3136076,8.02222222 12.4193038,8.12777778 C12.6306962,8.28611111 13.1063291,8.28611111 13.3705696,8.18055556 C13.8462025,7.96944444 14.0575949,7.38888889 14.5332278,7.17777778 C15.2731013,6.91388889 15.5373418,7.44166667 15.5373418,7.81111111 C15.4844937,8.075 15.2731013,8.28611111 15.114557,8.44444444 C14.9560127,8.60277778 14.6389241,8.81388889 14.1632911,8.97222222 C13.1063291,9.28888889 11.6794304,9.13055556 9.98829114,11.6111111 C9.93544304,11.6638889 9.88259494,11.6638889 9.82974684,11.6638889 C9.56550633,11.5583333 9.40696203,11.5055556 9.19556962,11.3472222 C8.98417722,11.1888889 8.93132911,10.925 8.71993671,10.7666667 C8.4028481,10.5555556 7.76867089,10.5555556 7.29303797,10.45 C6.65886076,10.2388889 6.07753165,9.975 5.39050633,9.76388889 C5.12626582,9.71111111 4.59778481,9.39444444 3.91075949,9.60555556 C3.69936709,9.65833333 3.48797468,9.86944444 3.27658228,9.86944444 C3.06518987,9.92222222 2.85379747,9.81666667 2.64240506,9.81666667 C2.21962025,9.81666667 1.90253165,9.975 1.53259494,10.0277778 C1.05696203,10.0805556 0.687025316,10.1861111 0.528481013,10.5555556 C0.475632911,10.6611111 0.528481013,10.7138889 0.475632911,10.8194444 C0.42278481,10.925 0.369936709,11.0305556 0.369936709,11.1888889 C0.264240506,11.7694444 0.528481013,11.9277778 0.792721519,12.1916667 C0.951265823,12.35 1.10981013,12.5611111 1.32120253,12.6138889 C1.58544304,12.7194444 2.21962025,12.6666667 2.32531646,12.5083333 C2.48386076,12.2444444 2.21962025,12.1388889 2.21962025,11.875 C2.21962025,11.7166667 2.37816456,11.6638889 2.43101266,11.5055556 C2.53670886,11.4 2.53670886,11.2944444 2.64240506,11.1361111 C3.01234177,11.1361111 3.27658228,11.4527778 3.48797468,11.6638889 C3.69936709,11.9277778 3.96360759,12.0861111 3.91075949,12.5611111 C3.91075949,12.825 3.75221519,12.9305556 3.75221519,13.1944444 C4.0693038,13.2472222 4.38639241,13.0361111 4.54493671,12.8777778 C4.70348101,12.6666667 5.07341772,12.1388889 5.07341772,11.7694444 C5.07341772,11.6111111 4.91487342,11.4 4.96772152,11.2944444 C5.02056962,11.1888889 5.39050633,11.1888889 5.54905063,11.2416667 C5.76044304,11.2944444 5.91898734,11.4 6.13037975,11.5055556 C6.60601266,11.7694444 7.13449367,12.0861111 7.50443038,12.4555556 C7.55727848,12.5083333 7.55727848,12.6138889 7.45158228,12.6666667 C7.02879747,12.8777778 6.71170886,13.3 6.34177215,13.6166667 C5.97183544,13.9861111 5.49620253,14.3027778 5.02056962,14.5666667 C4.54493671,14.8305556 3.64651899,15.2527778 2.90664557,15.8861111 C2.74810127,16.0444444 2.43101266,16.3083333 2.27246835,16.3611111 C2.16677215,16.4138889 1.71251902e-14,16.4138889 0.264240506,17.7861111 C0.264240506,17.8916667 0.687025316,18.6305556 0.792721519,19.6861111 C0.84556962,20.6361111 0.951265823,21.6916667 1.05696203,22.6944444 C1.10981013,23.3805556 1.16265823,24.0666667 1.16265823,24.7527778 C1.16265823,25.4388889 1.10981013,26.125 1.10981013,26.8111111 C1.10981013,26.9694444 1.26835443,27.2333333 1.37405063,27.3916667 C2.00822785,28.6055556 2.69525316,29.8194444 3.32943038,30.9277778 C3.38227848,30.9805556 3.32943038,31.0861111 3.27658228,31.1388889 C2.74810127,31.35 2.27246835,31.9305556 2.53670886,32.6166667 C2.90664557,33.5666667 4.175,33.5666667 4.2806962,33.9888889 C4.43924051,34.675 3.85791139,34.8333333 3.48797468,35.15 C3.06518987,35.5194444 3.32943038,36.2583333 3.43512658,36.4694444 C3.48797468,36.575 3.80506329,37.3666667 4.175,37.3666667 L22.1962025,37.3666667 C22.5132911,37.3666667 22.7775316,36.9972222 22.8832278,36.6805556 C22.9360759,36.5222222 23.0946203,35.4138889 22.8832278,35.2027778 C22.6718354,35.0444444 22.5132911,35.15 22.3547468,35.0444444 C22.1433544,34.9388889 22.0905063,34.675 22.3018987,34.4638889 C22.5132911,34.2527778 23.2531646,33.7777778 23.0417722,32.9333333 C22.9360759,32.4055556 22.5661392,31.4555556 22.460443,31.0861111 C22.0905063,30.0833333 21.1920886,29.3972222 20.875,27.7083333 C20.8221519,27.3388889 20.9806962,26.9694444 20.8221519,26.6527778 C20.6636076,26.3361111 20.1351266,25.9138889 19.8708861,25.3861111 C19.818038,25.2805556 19.9237342,25.1222222 20.0822785,25.175 C21.1392405,25.7555556 21.9848101,26.3888889 23.3588608,26.4944444 C24.2572785,26.5472222 24.8914557,26.3361111 25.3142405,25.9138889 C25.7370253,25.4916667 26.0012658,24.8583333 25.9484177,24.0666667 C25.8427215,22.3777778 24.2572785,21.9027778 23.0946203,21.2166667 C22.7246835,21.0055556 21.8791139,20.6361111 21.8791139,20.1611111 C21.7205696,18.525 24.6800633,19.8444444 25.8427215,19.7388889 C26.0541139,19.7388889 26.2655063,19.8444444 26.2655063,20.1083333 C26.2655063,20.4777778 26.3183544,20.8472222 26.635443,21.0583333 C26.8468354,21.2166667 27.4281646,21.2694444 27.4810127,21.0055556 C27.5338608,20.8472222 27.3224684,20.6888889 27.2696203,20.4777778 C27.2167722,20.0555556 27.4281646,19.8444444 27.5867089,19.5805556 C27.8509494,19.1055556 28.2208861,18.5777778 28.3794304,18.05 C28.6436709,17.1 28.168038,16.2027778 27.4281646,15.9916667 C27.1639241,15.9388889 27.3753165,16.2027778 27.3224684,16.5722222 C27.1110759,18.05 26.0541139,18.3666667 25.6313291,18.2083333 C24.9443038,17.8916667 25.5256329,17.3111111 25.4199367,17.2583333 C25.1028481,17.1 24.6800633,17.4694444 24.6272152,17.9444444 C24.5743671,18.3666667 24.7857595,18.6305556 25.05,18.8416667 C25.1556962,18.9472222 25.1028481,19.1055556 24.9443038,19.1055556 C24.3629747,19.0527778 23.993038,18.9472222 23.464557,18.8416667 C22.7775316,18.7361111 21.2449367,18.6833333 20.9806962,19.7916667 C20.6107595,21.3222222 23.1474684,22.325 24.1515823,23.275 C25.1028481,24.1722222 24.5743671,25.0166667 23.9401899,25.2277778 C23.0946203,25.5444444 21.5620253,25.2277778 20.4522152,23.3805556 C20.2936709,23.1166667 20.3993671,22.9055556 20.346519,22.7472222 C20.2408228,22.5361111 20.0294304,22.4833333 19.9237342,22.2194444 C19.7123418,21.5861111 20.0294304,21.5333333 19.7651899,20.8472222 C19.6594937,20.4777778 19.0781646,19.8972222 19.3952532,19.7916667 C19.5537975,19.7388889 19.6066456,19.6333333 19.6066456,19.475 C19.5009494,19 19.1310127,18.7888889 18.7610759,18.525 C18.7082278,18.4722222 18.6025316,18.4194444 18.5496835,18.3666667 C18.1268987,18.1555556 18.2325949,17.5222222 18.7082278,17.4166667 C19.4481013,17.3111111 19.818038,17.575 20.1879747,17.1527778 C20.346519,16.9944444 20.2408228,16.8361111 20.346519,16.4666667 C20.5050633,15.9916667 21.6148734,16.4666667 21.9848101,16.2555556 C22.4075949,15.9916667 21.5620253,15.3055556 22.460443,15.1472222 C24.3629747,14.6722222 24.3629747,13.8805556 24.3629747,13.5638889 C24.3629747,13.3527778 24.2572785,13.0888889 24.2572785,12.825 C24.3101266,12.2444444 24.7857595,11.6111111 25.3670886,11.5583333 C25.5256329,11.5583333 25.6841772,11.5583333 25.8427215,11.5055556 C25.8955696,11.5055556 25.8955696,11.4527778 25.8955696,11.4527778 C26.0541139,11.1888889 25.7898734,10.8194444 25.8427215,10.3444444 C25.578481,10.2916667 25.7370253,10.0277778 25.7898734,9.81666667 Z M6.28892405,28.7638889 C6.23607595,28.8694444 6.07753165,28.8694444 6.02468354,28.7111111 C5.76044304,27.6555556 5.23196203,25.7555556 5.28481013,24.225 C5.33765823,23.75 5.54905063,23.3277778 5.81329114,23.0111111 C6.39462025,22.325 6.18322785,21.7444444 6.07753165,21.5861111 C5.97183544,21.4805556 5.86613924,21.375 5.70759494,21.3222222 C4.96772152,20.7944444 5.07341772,18.3138889 4.70348101,17.9444444 C4.54493671,17.7333333 4.38639241,17.6805556 4.2806962,17.6805556 C4.175,17.6805556 4.1221519,17.5222222 4.175,17.4694444 C4.2806962,17.3111111 4.43924051,17.2055556 4.59778481,17.0472222 C5.02056962,16.6777778 5.44335443,16.3611111 5.91898734,15.9916667 C6.13037975,15.8333333 6.34177215,15.5694444 6.55316456,15.4638889 C6.87025316,15.3055556 7.34588608,15.2527778 7.71582278,15.2 C8.03291139,15.2 8.35,15.2 8.66708861,15.2 C8.71993671,15.2 8.77278481,15.2527778 8.77278481,15.3583333 C8.77278481,15.8333333 8.93132911,16.2027778 9.08987342,16.625 C9.19556962,16.9944444 9.30126582,17.3111111 9.45981013,17.575 C9.72405063,18.1555556 10.1468354,18.7361111 10.5696203,19.1583333 C10.939557,19.5277778 11.468038,19.7388889 11.7322785,20.2138889 C11.7851266,20.2666667 11.7322785,20.3722222 11.6794304,20.425 C10.939557,20.7416667 10.3053797,21.2166667 9.88259494,21.85 C9.61835443,22.1666667 9.40696203,22.5361111 9.24841772,22.9055556 C8.93132911,23.6444444 9.24841772,24.9638889 8.87848101,25.7027778 C8.66708861,26.125 8.2971519,26.4944444 7.98006329,26.8111111 C7.61012658,27.1805556 7.24018987,27.4444444 6.87025316,27.7611111 C6.65886076,28.025 6.50031646,28.3944444 6.28892405,28.7638889 Z M17.4398734,28.0777778 C17.6512658,28.2361111 17.9155063,28.3416667 18.1268987,28.5 C18.3382911,28.6583333 18.6025316,28.7638889 18.7610759,28.975 C18.8667722,29.0805556 19.1838608,29.5555556 19.289557,29.6611111 C19.6066456,30.1361111 19.7651899,30.7694444 19.818038,31.4027778 C19.818038,31.5611111 19.818038,31.8777778 19.7651899,32.0361111 C19.6594937,32.2472222 19.1838608,32.4583333 18.8667722,32.4583333 C17.8626582,32.4055556 16.5943038,32.5111111 15.8015823,33.8305556 C15.8015823,33.8833333 15.7487342,33.8833333 15.6958861,33.8833333 C14.6389241,33.8833333 10.939557,34.0944444 9.56550633,33.725 C9.08987342,33.6194444 8.98417722,32.9861111 8.93132911,32.7222222 C8.87848101,32.5111111 8.87848101,32.1944444 8.93132911,31.9833333 C8.98417722,31.825 9.14272152,31.7722222 9.19556962,31.6138889 C9.24841772,31.5083333 9.35411392,31.1388889 9.30126582,30.5583333 C9.24841772,30.1361111 8.98417722,29.6083333 8.08575949,29.3444444 C7.98006329,29.3444444 7.92721519,29.2388889 7.98006329,29.1333333 C8.13860759,28.8166667 8.35,28.6055556 8.56139241,28.3944444 C8.77278481,28.1833333 9.08987342,27.9722222 9.40696203,27.8138889 C9.72405063,27.7083333 10.1996835,27.6555556 10.5696203,27.55 C10.8867089,27.4444444 11.3094937,27.3388889 11.5208861,27.075 C12.1550633,26.3361111 11.8908228,25.3333333 12.6835443,25.3861111 C13.3177215,25.4388889 14.2689873,25.65 15.0088608,25.5444444 C15.0617089,25.5444444 15.114557,25.5444444 15.114557,25.5972222 C15.4316456,26.125 15.7487342,26.7583333 16.171519,27.2333333 C16.5414557,27.4972222 16.9642405,27.8138889 17.4398734,28.0777778 Z" id="Shape" fill="url(#linearGradient-1)"></path>
        </g>
    </g>
</svg>