<?xml version="1.0" encoding="UTF-8"?>
<svg width="170px" height="62px" viewBox="0 0 170 62" version="1.1" xmlns="http://www.w3.org/2000/svg" xmlns:xlink="http://www.w3.org/1999/xlink">
    <!-- Generator: Sketch 52.5 (67469) - http://www.bohemiancoding.com/sketch -->
    <title>logo_UKuni</title>
    <desc>Created with Sketch.</desc>
    <defs>
        <polygon id="path-1" points="0.3127625 0.505769231 12.514064 0.505769231 12.514064 12.6816346 0.3127625 12.6816346"></polygon>
        <polygon id="path-3" points="0.874810294 0.480769231 28.2489941 0.480769231 28.2489941 37.5 0.874810294 37.5"></polygon>
    </defs>
    <g id="logo_UKuni" stroke="none" stroke-width="1" fill="none" fill-rule="evenodd">
        <g id="Group-24" transform="translate(20.000000, 6.000000)">
            <path d="M121.5,50 L121.5,38 L121.5,50 Z" id="Fill-1" fill="#BD1A21"></path>
            <g id="Group-23">
                <g id="Group-4" transform="translate(115.588235, 0.000000)">
                    <mask id="mask-2" fill="white">
                        <use xlink:href="#path-1"></use>
                    </mask>
                    <g id="Clip-3"></g>
                    <path d="M6.41389485,12.6816346 C9.78136544,12.6816346 12.514064,9.95663462 12.514064,6.59413462 C12.514064,3.23163462 9.78136544,0.505673077 6.41389485,0.505673077 C3.04449779,0.505673077 0.3127625,3.23163462 0.3127625,6.59413462 C0.3127625,9.95663462 3.04449779,12.6816346 6.41389485,12.6816346" id="Fill-2" fill="#BD1A21" mask="url(#mask-2)"></path>
                </g>
                <path d="M116.638547,48.8840385 L116.638547,37.6590385 C116.258069,37.6590385 115.844841,37.4061538 115.443172,37.0455769 C114.136062,35.8590385 113.449275,34.0792308 113.449275,32.2571154 L113.449275,17.2494231 C114.438518,14.0061538 117.626826,14.2725 117.626826,14.2725 L121.796672,23.9340385 L125.970371,14.2725 C125.970371,14.2725 129.158679,14.0061538 130.144069,17.2494231 L130.144069,32.2571154 C130.144069,34.0792308 129.456319,35.8590385 128.151135,37.0455769 C127.751393,37.4061538 127.335275,37.6590385 126.959613,37.6590385 L126.959613,48.8840385 L116.638547,48.8840385 Z" id="Fill-5" fill="#BD1A21"></path>
                <polygon id="Fill-7" fill="#BD1A21" points="119.716373 15.2958654 121.796961 20.9554808 123.883329 15.2958654 121.796961 13.5756731"></polygon>
                <path d="M0,12.9802885 L10.3547794,12.9802885 L10.3547794,34.1091346 C10.3547794,35.4014423 10.8961176,36.6783654 11.9344853,37.4485577 C12.6424632,37.9764423 13.3369559,38.3639423 14.6816324,38.1331731 C15.5658824,37.9764423 16.4982941,37.1399038 16.4982941,36.24375 L16.4982941,12.9802885 L26.7394118,12.9802885 L26.7394118,25.5764423 L35.9566103,12.9802885 L46.5406397,12.9802885 L35.5019632,29.2235577 L48.4728897,48.0091346 L37.3215147,48.0091346 L27.1959853,34.1091346 L27.1959853,46.71875 C27.1959853,46.71875 24.1232647,49.7581731 13.8811838,49.7581731 C4.15732353,49.7581731 0,43.9918269 0,36.2649038 L0,12.9802885 Z" id="Fill-9" fill="#BD1A21"></path>
                <g id="Group-13" transform="translate(48.161765, 12.500000)">
                    <mask id="mask-4" fill="white">
                        <use xlink:href="#path-3"></use>
                    </mask>
                    <g id="Clip-12"></g>
                    <path d="M28.2489941,34.4365385 C28.2489941,34.4365385 25.1560456,37.5009615 14.8475015,37.5009615 C5.05910441,37.5009615 0.874810294,31.6961538 0.874810294,23.9192308 L0.874810294,0.480769231 L11.2970162,0.480769231 L11.2970162,21.7471154 C11.2970162,23.0480769 11.8422074,24.3346154 12.8873176,25.1115385 C13.6030015,25.6423077 14.3861118,25.7990385 15.5448838,25.7471154 C16.4474353,25.7096154 17.4790603,24.8009615 17.4790603,23.8971154 L17.4790603,0.480769231 L28.2489941,0.681730769 L28.2489941,34.4365385 Z" id="Fill-11" fill="#BD1A21" mask="url(#mask-4)"></path>
                </g>
                <path d="M81.7047963,15.1465385 C81.7047963,15.1465385 85.0173625,12.1215385 93.7240463,12.1215385 C103.449833,12.1215385 108.900782,17.8725 108.900782,25.5965385 L108.900782,48.8840385 L98.5460022,48.8840385 L98.5460022,28.6571154 C98.5460022,26.4244231 98.004664,25.1840385 96.9662963,24.4138462 C96.2583184,23.8869231 95.466539,23.5071154 94.1160831,23.7407692 C93.2308699,23.8955769 92.3562522,24.8119231 92.400561,25.9792308 L92.400561,48.8840385 L81.7047963,48.6878846 L81.7047963,15.1465385 Z" id="Fill-14" fill="#BD1A21"></path>
                <path d="M66.4872199,25.1901923 L66.4872199,12.5805769" id="Fill-16" fill="#BD1A21"></path>
            </g>
        </g>
    </g>
</svg>