<?xml version="1.0" encoding="UTF-8"?>
<svg width="215px" height="80px" viewBox="0 0 215 80" version="1.1" xmlns="http://www.w3.org/2000/svg" xmlns:xlink="http://www.w3.org/1999/xlink">
    <!-- Generator: Sketch 52.5 (67469) - http://www.bohemiancoding.com/sketch -->
    <title>LpoLogo-02-01</title>
    <desc>Created with Sketch.</desc>
    <defs>
        <linearGradient x1="12.1465195%" y1="99.2918349%" x2="88.6673985%" y2="-4.69241905%" id="linearGradient-1">
            <stop stop-color="#7C4B0A" offset="6.080596%"></stop>
            <stop stop-color="#C59517" offset="28.93%"></stop>
            <stop stop-color="#C78903" offset="47.67%"></stop>
            <stop stop-color="#E7C85E" offset="56.42%"></stop>
            <stop stop-color="#F4E182" offset="59.7%"></stop>
            <stop stop-color="#C59517" offset="73.01%"></stop>
            <stop stop-color="#F1C870" offset="94.51%"></stop>
        </linearGradient>
    </defs>
    <g id="UI" stroke="none" stroke-width="1" fill="none" fill-rule="evenodd">
        <g id="LPO" transform="translate(-268.000000, -523.000000)">
            <g id="header" transform="translate(0.000000, 128.000000)">
                <g id="Group-2" transform="translate(0.000000, 369.000000)">
                    <g id="LpoLogo-02-01" transform="translate(268.000000, 26.000000)">
                        <g id="Group">
                            <path d="M54.8289963,20.32 C55.3085502,18.96 55.9479554,17.76 56.6672862,16.64 C57.6263941,15.2 58.6654275,13.68 59.3847584,12.08 C60.5037175,9.52 61.1431227,6.72 61.9423792,3.68 C62.1821561,2.72 62.5018587,1.28 61.8624535,0.72 C61.7026022,0.48 61.2230483,0.4 60.9033457,0.48 C60.5037175,0.64 60.2639405,1.2 60.1840149,1.76 C60.1040892,2.32 59.9442379,2.96 59.7843866,3.36 C58.7453532,6.24 57.6263941,9.2 55.7881041,11.28 C56.027881,10.16 56.267658,9.12 56.5074349,7.92 C56.7472119,6.88 57.4665428,4.16 55.7881041,4.24 C54.5092937,4.32 54.429368,6.48 54.1096654,7.68 C53.5501859,10 52.830855,11.92 51.7118959,13.76 C51.472119,14.16 51.3122677,14.56 51.0724907,14.8 C50.1933086,15.68 48.6747212,15.68 47.4758364,16.16 C47.3159851,16.24 47.1561338,16.08 47.0762082,15.92 C46.8364312,14.72 45.8773234,14.16 45.7174721,13.04 C45.7174721,12.88 45.7973978,12.72 46.0371747,12.72 C46.436803,12.72 46.9163569,12.88 47.0762082,12.56 C46.9962825,12 46.5966543,11.52 46.3568773,11.04 C46.197026,10.72 45.9572491,10.48 45.7174721,10.24 C45.4776952,10 45.4776952,9.68 45.4776952,9.36 C45.5576208,8.88 45.5576208,8.32 45.7174721,8 C46.1171004,7.12 46.8364312,6.32 47.1561338,6 C47.4758364,5.68 48.1152416,5.36 48.1152416,4.88 C48.1152416,4.4 47.795539,4.24 47.7156134,4.16 C47.0762082,3.92 46.436803,4.4 45.8773234,4.64 C44.2788104,5.44 42.5204461,6.32 40.5223048,6.48 C40.0427509,6.56 39.2434944,6 38.6840149,5.84 C36.8457249,5.12 32.929368,2.72 32.2899628,5.68 C32.2100372,6.08 31.8903346,6.32 31.4907063,6.32 C30.4516729,6.24 29.4126394,5.92 28.5334572,5.6 C28.133829,5.44 27.1747212,4.56 26.2156134,4.96 C25.8159851,5.12 25.8159851,5.36 25.4163569,5.44 C24.8568773,5.6 24.2174721,5.28 23.4981413,5.2 C22.4591078,5.04 21.4200743,5.36 21.0204461,6.16 C20.8605948,6.4 20.7806691,6.96 21.260223,7.04 C21.739777,7.12 21.8996283,6.64 22.5390335,6.72 C23.098513,6.8 23.6579926,7.2 23.6579926,7.68 C23.6579926,8.32 22.6988848,8.32 22.6988848,8.88 C22.6988848,9.52 23.4182156,9.36 23.8977695,9.44 C23.9776952,9.44 24.0576208,9.52 24.1375465,9.52 C24.3773234,9.84 24.2973978,10.4 24.5371747,10.72 C24.6171004,10.8 24.7769517,10.96 24.5371747,11.12 C23.33829,11.44 22.3791822,12.4 20.9405204,11.84 C20.3011152,11.52 19.7416357,11.04 19.2620818,10.48 C19.1821561,10.4 19.1821561,10.16 19.2620818,10.08 C19.7416357,9.6 19.901487,8 19.5018587,7.92 C19.1022305,7.84 18.9423792,8.4 18.5427509,8.48 C17.7434944,8.64 17.2639405,8.16 16.6245353,7.84 C15.5855019,7.28 14.6263941,7.44 13.9070632,6.88 C13.6672862,6.72 13.267658,6.16 13.027881,6.24 C12.7081784,6.32 12.5483271,6.96 12.7081784,7.52 C13.027881,8.88 14.0669145,8.72 14.7063197,9.6 C15.105948,10.16 15.3457249,11.04 15.9052045,11.52 C16.3048327,11.84 16.8643123,11.84 17.0241636,12.4 C17.1040892,12.88 16.8643123,13.12 16.7843866,13.52 C17.5037175,13.76 17.9832714,13.2 18.1431227,12.48 C18.2230483,12.32 18.3828996,12.24 18.6226766,12.32 C18.9423792,12.56 19.1821561,12.8 19.5018587,13.04 C20.2211896,13.6 21.4200743,14.16 22.6988848,13.92 C23.2583643,13.84 23.8178439,13.68 24.4572491,13.6 C25.6561338,13.44 26.1356877,14 25.8959108,14.56 C25.7360595,14.96 25.1765799,14.96 25.2565056,15.44 C25.3364312,15.84 25.7360595,15.76 25.8959108,16 C26.1356877,16.32 26.0557621,16.64 26.295539,16.8 C26.7750929,17.12 27.7342007,17.2 28.2936803,16.96 C29.3327138,16.56 29.732342,15.28 30.7713755,14.88 C32.3698885,14.32 32.929368,15.52 32.8494424,16.24 C32.7695167,16.8 32.2899628,17.28 31.9702602,17.6 C31.6505576,17.92 30.9312268,18.4 29.972119,18.72 C27.6542751,19.36 24.7769517,19.04 21.1802974,24.32 C21.1003717,24.48 20.9405204,24.48 20.7806691,24.4 C20.2211896,24.16 19.8215613,24.08 19.4219331,23.76 C19.0223048,23.44 18.8624535,22.8 18.3828996,22.56 C17.7434944,22.16 16.3847584,22.16 15.4256506,21.84 C14.0669145,21.44 12.7881041,20.8 11.429368,20.4 C10.9498141,20.24 9.75092937,19.6 8.31226766,20.08 C7.83271375,20.24 7.4330855,20.56 6.9535316,20.64 C6.4739777,20.72 6.07434944,20.56 5.67472119,20.56 C4.87546468,20.56 4.07620818,20.88 3.27695167,20.96 C2.31784387,21.12 1.43866171,21.28 1.11895911,22.08 C1.03903346,22.24 1.11895911,22.4 1.03903346,22.64 C0.959107807,22.88 0.799256506,23.12 0.799256506,23.36 C0.559479554,24.56 1.11895911,24.88 1.67843866,25.52 C1.99814126,25.92 2.39776952,26.32 2.79739777,26.48 C3.35687732,26.64 4.71561338,26.64 4.87546468,26.32 C5.19516729,25.76 4.63568773,25.52 4.63568773,25.04 C4.63568773,24.64 4.95539033,24.56 5.11524164,24.32 C5.27509294,24.08 5.35501859,23.84 5.51486989,23.52 C6.31412639,23.52 6.87360595,24.16 7.35315985,24.64 C7.83271375,25.12 8.31226766,25.52 8.23234201,26.48 C8.15241636,26.96 7.83271375,27.28 7.91263941,27.84 C8.63197026,28 9.19144981,27.52 9.59107807,27.2 C9.99070632,26.8 10.6301115,25.68 10.6301115,24.88 C10.6301115,24.48 10.3104089,24.16 10.4702602,23.92 C10.6301115,23.68 11.3494424,23.76 11.669145,23.76 C12.0687732,23.84 12.4684015,24.16 12.8680297,24.32 C13.8271375,24.88 15.0260223,25.52 15.7453532,26.32 C15.9052045,26.48 15.8252788,26.72 15.6654275,26.8 C14.7862454,27.28 14.0669145,28.08 13.3475836,28.8 C12.5483271,29.6 11.5892193,30.24 10.5501859,30.88 C9.59107807,31.44 7.67286245,32.32 6.07434944,33.68 C5.67472119,34 5.03531599,34.64 4.71561338,34.72 C4.47583643,34.8 -6.8278716e-14,34.88 0.559479554,37.76 C0.639405204,38 1.43866171,39.6 1.59851301,41.76 C1.75836431,43.76 1.91821561,46 2.07806691,48.08 C2.15799257,49.52 2.31784387,50.96 2.31784387,52.4 C2.31784387,53.92 2.23791822,55.36 2.23791822,56.8 C2.23791822,57.12 2.63754647,57.76 2.79739777,58.08 C4.15613383,60.64 5.59479554,63.2 6.9535316,65.6 C7.03345725,65.76 6.9535316,65.92 6.7936803,66 C5.67472119,66.48 4.63568773,67.68 5.27509294,69.12 C6.07434944,71.12 8.79182156,71.04 8.95167286,72 C9.27137546,73.44 8.07249071,73.76 7.19330855,74.48 C6.31412639,75.28 6.87360595,76.8 7.03345725,77.28 C7.1133829,77.52 7.83271375,79.2 8.55204461,79.2 L46.5966543,79.2 C47.3159851,79.2 47.8754647,78.4 48.035316,77.68 C48.1152416,77.28 48.5148699,75.04 47.9553903,74.64 C47.5557621,74.32 47.1561338,74.48 46.8364312,74.32 C46.3568773,74.08 46.2769517,73.52 46.6765799,73.04 C47.0762082,72.56 48.6747212,71.6 48.1951673,69.76 C47.9553903,68.64 47.2360595,66.64 46.9163569,65.84 C46.1171004,63.76 44.2788104,62.24 43.5594796,58.64 C43.3996283,57.84 43.7992565,57.12 43.4795539,56.4 C43.1598513,55.76 41.9609665,54.8 41.4814126,53.76 C41.3215613,53.52 41.6412639,53.2 41.8810409,53.36 C44.0390335,54.56 45.9572491,55.92 48.7546468,56.16 C50.6728625,56.32 51.9516729,55.84 52.830855,54.96 C53.6301115,54.08 54.2695167,52.8 54.1895911,50.96 C53.9498141,47.44 50.5929368,46.4 48.1152416,44.96 C47.3159851,44.48 45.6375465,43.76 45.4776952,42.64 C45.1579926,39.2 51.472119,41.92 53.7899628,41.68 C54.2695167,41.6 54.7490706,41.92 54.669145,42.48 C54.5892193,43.28 54.8289963,44.08 55.4684015,44.48 C55.9479554,44.8 57.1468401,44.96 57.2267658,44.4 C57.3066914,44.08 56.8271375,43.68 56.8271375,43.36 C56.7472119,42.48 57.2267658,42.08 57.5464684,41.44 C58.105948,40.48 58.9052045,39.28 59.2249071,38.16 C59.7843866,36.16 58.7453532,34.24 57.1468401,33.76 C56.5873606,33.6 57.0669145,34.24 56.9869888,34.96 C56.5873606,38.08 54.3494424,38.8 53.3903346,38.4 C51.9516729,37.76 53.2304833,36.48 52.9107807,36.4 C52.1914498,36 51.3122677,36.88 51.232342,37.92 C51.1524164,38.8 51.5520446,39.36 52.1115242,39.76 C52.3513011,39.92 52.1914498,40.32 51.8717472,40.24 C50.5929368,40.08 49.7936803,39.84 48.7546468,39.68 C47.3159851,39.44 44.1189591,39.28 43.5594796,41.68 C42.760223,44.96 48.1152416,47.12 50.1933086,49.04 C52.1914498,50.88 51.0724907,52.72 49.7936803,53.2 C48.035316,53.84 44.7583643,53.28 42.4405204,49.28 C42.1208178,48.8 42.2806691,48.24 42.2007435,47.92 C42.0408922,47.44 41.4814126,47.36 41.3215613,46.88 C40.8420074,45.52 41.5613383,45.44 41.0018587,43.92 C40.7620818,43.12 39.563197,41.84 40.2026022,41.6 C40.5223048,41.52 40.6821561,41.2 40.6022305,40.96 C40.3624535,40 39.6431227,39.52 38.7639405,38.96 C38.6040892,38.88 38.4442379,38.8 38.2843866,38.64 C37.4052045,38.16 37.6449814,36.8 38.6840149,36.64 C40.2026022,36.4 41.0018587,37.04 41.8011152,36.08 C42.1208178,35.68 41.9609665,35.36 42.2007435,34.64 C42.5204461,33.6 44.83829,34.64 45.6375465,34.16 C46.5167286,33.68 44.7583643,32.24 46.5966543,31.76 C50.5929368,30.8 50.5929368,29.04 50.6728625,28.4 C50.6728625,28 50.4330855,27.36 50.4330855,26.88 C50.5130112,25.6 51.472119,24.32 52.7509294,24.16 C53.1505576,24.08 53.3903346,24.24 53.7899628,24.08 C53.8698885,24.08 53.8698885,24 53.9498141,24 C54.2695167,23.44 53.7899628,22.64 53.8698885,21.68 C54.429368,21.28 54.669145,20.8 54.8289963,20.32 Z M13.6672862,60.48 C13.5074349,60.72 13.1877323,60.72 13.1078067,60.4 C12.5483271,58.08 11.3494424,54.08 11.5892193,50.88 C11.669145,49.84 12.1486989,48.96 12.7081784,48.24 C13.9869888,46.8 13.5074349,45.6 13.267658,45.2 C13.1078067,44.96 12.7881041,44.8 12.4684015,44.64 C10.8698885,43.6 11.1096654,38.32 10.3903346,37.44 C10.070632,36.96 9.75092937,36.88 9.51115242,36.8 C9.27137546,36.8 9.19144981,36.56 9.35130112,36.32 C9.59107807,36 9.99070632,35.76 10.3104089,35.44 C11.1895911,34.64 12.1486989,34 13.1078067,33.2 C13.5873606,32.8 13.9869888,32.32 14.4665428,32.08 C15.105948,31.76 16.1449814,31.6 16.9442379,31.52 C17.5836431,31.44 18.302974,31.52 18.9423792,31.6 C19.1022305,31.6 19.1821561,31.76 19.1821561,31.92 C19.1821561,32.96 19.5018587,33.76 19.8215613,34.64 C20.0613383,35.36 20.3011152,36.08 20.6208178,36.64 C21.1802974,37.84 22.0594796,39.12 22.9386617,40 C23.7379182,40.72 24.7769517,41.28 25.3364312,42.24 C25.4163569,42.4 25.3364312,42.56 25.1765799,42.64 C23.5780669,43.36 22.2992565,44.32 21.3401487,45.6 C20.8605948,46.32 20.3011152,47.04 19.9814126,47.84 C19.3420074,49.44 19.9814126,52.24 19.2620818,53.76 C18.7825279,54.72 17.9832714,55.44 17.3438662,56.16 C16.6245353,56.88 15.7453532,57.44 15.0260223,58.16 C14.3866171,58.88 14.0669145,59.68 13.6672862,60.48 Z M37.1654275,59.04 C37.6449814,59.36 38.1245353,59.6 38.6040892,59.92 C39.0836431,60.24 39.563197,60.56 39.8828996,60.88 C40.0427509,61.04 40.8420074,62.08 40.9219331,62.32 C41.5613383,63.28 41.9609665,64.72 42.0408922,66 C42.0408922,66.32 42.0408922,67.04 41.8810409,67.36 C41.6412639,67.84 40.6821561,68.24 40.0427509,68.24 C37.964684,68.08 35.2472119,68.32 33.5687732,71.12 C33.4888476,71.2 33.4089219,71.28 33.3289963,71.28 C31.0910781,71.2 23.2583643,71.68 20.3011152,70.88 C19.2620818,70.64 19.1022305,69.36 18.9423792,68.72 C18.8624535,68.24 18.7825279,67.6 18.9423792,67.12 C19.0223048,66.72 19.3420074,66.64 19.4219331,66.4 C19.5018587,66.16 19.8215613,65.36 19.66171,64.08 C19.5817844,63.2 18.9423792,62 17.1040892,61.52 C16.9442379,61.44 16.7843866,61.28 16.8643123,61.12 C17.1840149,60.4 17.5836431,60 18.1431227,59.52 C18.6226766,59.04 19.1821561,58.56 19.9814126,58.32 C20.7007435,58.08 21.5799257,57.92 22.4591078,57.76 C23.1784387,57.6 24.0576208,57.28 24.4572491,56.8 C25.7360595,55.28 25.2565056,53.12 26.9349442,53.2 C28.2936803,53.28 30.2918216,53.76 31.8903346,53.6 C31.9702602,53.6 32.1301115,53.6 32.1301115,53.76 C32.8494424,54.88 33.4089219,56.24 34.3680297,57.2 C35.2472119,57.84 36.2063197,58.48 37.1654275,59.04 Z" id="Shape" fill="url(#linearGradient-1)"></path>
                            <g transform="translate(74.330855, 12.000000)" fill="#FFFFFF">
                                <polygon id="Path" points="13.5074349 19.6 0.559479554 19.6 0.559479554 0.56 3.35687732 0.56 3.35687732 17.36 13.5873606 17.36 13.5873606 19.6"></polygon>
                                <path d="M29.0929368,0.24 C30.5315985,0.24 31.8903346,0.48 33.0892193,0.96 C34.2881041,1.44 35.4070632,2.08 36.2862454,2.96 C37.1654275,3.84 37.8847584,4.88 38.3643123,6.08 C38.8438662,7.28 39.0836431,8.64 39.0836431,10.08 C39.0836431,11.52 38.8438662,12.88 38.3643123,14.08 C37.8847584,15.28 37.1654275,16.32 36.2862454,17.2 C35.4070632,18.08 34.3680297,18.72 33.0892193,19.2 C31.8903346,19.68 30.5315985,19.92 29.0130112,19.92 C27.5743494,19.92 26.2156134,19.68 24.936803,19.2 C23.7379182,18.72 22.6189591,18.08 21.739777,17.2 C20.8605948,16.32 20.1412639,15.28 19.66171,14.08 C19.1821561,12.88 18.9423792,11.52 18.9423792,10.08 C18.9423792,8.56 19.1821561,7.28 19.66171,6.08 C20.1412639,4.88 20.8605948,3.84 21.739777,2.96 C22.6189591,2.08 23.6579926,1.44 24.936803,0.96 C26.295539,0.48 27.6542751,0.24 29.0929368,0.24 Z M29.0929368,17.76 C30.1319703,17.76 31.0910781,17.6 31.9702602,17.2 C32.8494424,16.88 33.5687732,16.32 34.2081784,15.68 C34.8475836,15.04 35.3271375,14.24 35.7267658,13.28 C36.0464684,12.32 36.2862454,11.28 36.2862454,10 C36.2862454,8.8 36.1263941,7.68 35.7267658,6.72 C35.4070632,5.76 34.8475836,4.96 34.2081784,4.32 C33.5687732,3.68 32.8494424,3.2 31.9702602,2.8 C31.0910781,2.48 30.1319703,2.32 29.1728625,2.32 C28.133829,2.32 27.1747212,2.48 26.295539,2.88 C25.4163569,3.2 24.697026,3.76 24.0576208,4.4 C23.4182156,5.04 22.9386617,5.84 22.5390335,6.8 C22.1394052,7.76 21.9795539,8.8 21.9795539,10 C21.9795539,11.2 22.1394052,12.32 22.5390335,13.28 C22.8587361,14.24 23.4182156,15.04 24.0576208,15.68 C24.697026,16.32 25.4163569,16.88 26.295539,17.2 C27.0947955,17.6 28.0539033,17.76 29.0929368,17.76 Z" id="Shape" fill-rule="nonzero"></path>
                                <polygon id="Path" points="62.5018587 19.6 59.6245353 19.6 48.6747212 4.56 48.6747212 19.6 46.0371747 19.6 46.0371747 0.56 48.9144981 0.56 59.8643123 15.6 59.8643123 0.56 62.5018587 0.56"></polygon>
                                <path d="M87.7583643,10 C87.7583643,16.4 84.16171,19.6 77.0483271,19.6 L70.4144981,19.6 L70.4144981,0.56 L77.0483271,0.56 C84.16171,0.56 87.7583643,3.68 87.7583643,10 Z M84.8810409,10 C84.8810409,8.88 84.7211896,7.92 84.4814126,6.96 C84.2416357,6.08 83.8420074,5.36 83.2026022,4.72 C82.6431227,4.08 81.7639405,3.6 80.8048327,3.28 C79.7657993,2.96 78.4869888,2.8 76.9684015,2.8 L73.1319703,2.8 L73.1319703,17.28 L76.9684015,17.28 C78.4869888,17.28 79.7657993,17.12 80.8048327,16.8 C81.8438662,16.48 82.6431227,16 83.2026022,15.36 C83.8420074,14.72 84.2416357,13.92 84.4814126,13.04 C84.8011152,12.16 84.8810409,11.12 84.8810409,10 Z" id="Shape" fill-rule="nonzero"></path>
                                <path d="M103.903346,0.24 C105.342007,0.24 106.700743,0.48 107.899628,0.96 C109.098513,1.44 110.217472,2.08 111.096654,2.96 C111.975836,3.84 112.695167,4.88 113.174721,6.08 C113.654275,7.28 113.894052,8.64 113.894052,10.08 C113.894052,11.52 113.654275,12.88 113.174721,14.08 C112.695167,15.28 111.975836,16.32 111.096654,17.2 C110.217472,18.08 109.178439,18.72 107.899628,19.2 C106.700743,19.68 105.342007,19.92 103.82342,19.92 C102.384758,19.92 101.026022,19.68 99.7472119,19.2 C98.5483271,18.72 97.429368,18.08 96.5501859,17.2 C95.6710037,16.32 94.9516729,15.28 94.472119,14.08 C93.9925651,12.88 93.7527881,11.52 93.7527881,10.08 C93.7527881,8.56 93.9925651,7.28 94.472119,6.08 C94.9516729,4.88 95.6710037,3.84 96.5501859,2.96 C97.429368,2.08 98.4684015,1.44 99.7472119,0.96 C101.105948,0.48 102.384758,0.24 103.903346,0.24 Z M103.82342,17.76 C104.862454,17.76 105.821561,17.6 106.700743,17.2 C107.579926,16.88 108.299257,16.32 108.938662,15.68 C109.578067,15.04 110.057621,14.24 110.457249,13.28 C110.776952,12.32 111.016729,11.28 111.016729,10 C111.016729,8.8 110.856877,7.68 110.457249,6.72 C110.137546,5.76 109.578067,4.96 108.938662,4.32 C108.299257,3.68 107.579926,3.2 106.700743,2.8 C105.821561,2.48 104.862454,2.32 103.903346,2.32 C102.864312,2.32 101.905204,2.48 101.026022,2.88 C100.14684,3.2 99.3475836,3.76 98.7081784,4.4 C98.0687732,5.04 97.5892193,5.84 97.1895911,6.8 C96.7899628,7.76 96.6301115,8.8 96.6301115,10 C96.6301115,11.2 96.7899628,12.32 97.1895911,13.28 C97.5092937,14.24 98.0687732,15.04 98.7081784,15.68 C99.3475836,16.32 100.066914,16.88 100.946097,17.2 C101.825279,17.6 102.784387,17.76 103.82342,17.76 Z" id="Shape" fill-rule="nonzero"></path>
                                <polygon id="Path" points="137.312268 19.6 134.434944 19.6 123.48513 4.56 123.48513 19.6 120.847584 19.6 120.847584 0.56 123.724907 0.56 134.674721 15.6 134.674721 0.56 137.312268 0.56"></polygon>
                            </g>
                            <g transform="translate(72.732342, 41.600000)" fill="#FFFFFF">
                                <path d="M0.719330855,0.72 L5.35501859,0.72 C5.99442379,0.72 6.55390335,0.8 7.1133829,0.88 C7.67286245,0.96 8.15241636,1.12 8.63197026,1.36 C9.03159851,1.6 9.43122677,1.92 9.67100372,2.32 C9.91078067,2.72 10.070632,3.28 10.070632,3.92 C10.070632,5.04 9.67100372,5.92 8.87174721,6.48 C8.07249071,7.04 6.9535316,7.36 5.43494424,7.36 L2.31784387,7.36 L2.31784387,11.84 L0.719330855,11.84 L0.719330855,0.72 Z M2.31784387,6.08 L5.43494424,6.08 C5.99442379,6.08 6.39405204,6 6.7936803,5.92 C7.19330855,5.84 7.4330855,5.68 7.67286245,5.52 C7.91263941,5.36 8.07249071,5.12 8.15241636,4.88 C8.23234201,4.64 8.31226766,4.32 8.31226766,4 C8.31226766,3.6 8.23234201,3.28 8.07249071,2.96 C7.91263941,2.72 7.67286245,2.48 7.4330855,2.4 C7.19330855,2.24 6.87360595,2.16 6.4739777,2.08 C6.15427509,2 5.75464684,2 5.35501859,2 L2.31784387,2 L2.31784387,6.08 Z" id="Shape" fill-rule="nonzero"></path>
                                <path d="M22.3791822,11.84 L20.6208178,11.84 L19.5018587,8.88 C19.4219331,8.64 19.2620818,8.4 19.1022305,8.16 C18.9423792,7.92 18.7026022,7.76 18.4628253,7.6 C18.2230483,7.44 17.9832714,7.36 17.6635688,7.2 C17.3438662,7.12 17.1040892,7.04 16.7843866,7.04 L13.7472119,7.04 L13.7472119,11.84 L12.1486989,11.84 L12.1486989,0.64 L17.5836431,0.64 C17.9033457,0.64 18.2230483,0.64 18.5427509,0.64 C18.8624535,0.64 19.1022305,0.72 19.4219331,0.72 C19.66171,0.8 19.9814126,0.8 20.2211896,0.96 C20.4609665,1.04 20.7007435,1.2 20.9405204,1.36 C21.3401487,1.68 21.5799257,2 21.8197026,2.48 C21.9795539,2.88 22.1394052,3.36 22.1394052,3.76 C22.1394052,4.16 22.0594796,4.48 21.9795539,4.8 C21.8197026,5.12 21.6598513,5.44 21.4200743,5.68 C21.1802974,5.92 20.8605948,6.16 20.5408922,6.32 C20.2211896,6.48 19.8215613,6.64 19.4219331,6.72 C20.3011152,6.96 20.9405204,7.6 21.4200743,8.72 L22.3791822,11.84 Z M13.7472119,5.76 L17.4237918,5.76 C17.9033457,5.76 18.3828996,5.76 18.7026022,5.68 C19.0223048,5.6 19.3420074,5.52 19.5817844,5.36 C19.8215613,5.2 19.9814126,5.04 20.0613383,4.72 C20.1412639,4.48 20.2211896,4.16 20.2211896,3.84 C20.2211896,3.2 19.9814126,2.72 19.5817844,2.4 C19.1821561,2.08 18.4628253,1.92 17.5836431,1.92 L13.6672862,1.92 L13.6672862,5.76 L13.7472119,5.76 Z" id="Shape" fill-rule="nonzero"></path>
                                <polygon id="Path" points="26.3754647 11.84 24.7769517 11.84 24.7769517 0.64 26.3754647 0.64"></polygon>
                                <polygon id="Path" points="39.3234201 0.72 34.527881 11.92 32.8494424 11.92 28.0539033 0.72 29.8122677 0.72 33.6486989 10.32 37.5650558 0.72"></polygon>
                                <path d="M50.8327138,11.84 L48.9944238,11.84 L47.5557621,8.48 L42.4405204,8.48 L41.0817844,11.84 L39.4033457,11.84 L44.1189591,0.64 L45.8773234,0.64 L50.8327138,11.84 Z M47.1561338,7.28 L44.9981413,2.08 L42.9200743,7.28 L47.1561338,7.28 Z" id="Shape" fill-rule="nonzero"></path>
                                <polygon id="Path" points="60.9832714 2 56.9070632 2 56.9070632 11.84 55.3085502 11.84 55.3085502 2 51.232342 2 51.232342 0.64 60.9832714 0.64"></polygon>
                                <polygon id="Path" points="71.8531599 11.84 62.66171 11.84 62.66171 0.64 71.5334572 0.64 71.5334572 2 64.260223 2 64.260223 5.36 71.0539033 5.36 71.0539033 6.72 64.260223 6.72 64.260223 10.48 71.7732342 10.48 71.7732342 11.84"></polygon>
                                <path d="M85.4405204,0.48 C86.3197026,0.48 87.0390335,0.64 87.7583643,0.88 C88.4776952,1.12 89.1171004,1.52 89.5966543,2.08 C90.1561338,2.56 90.5557621,3.2 90.795539,3.92 C91.1152416,4.64 91.1951673,5.44 91.1951673,6.32 C91.1951673,7.2 91.035316,7.92 90.795539,8.64 C90.4758364,9.36 90.0762082,9.92 89.5966543,10.48 C89.1171004,10.96 88.4776952,11.36 87.7583643,11.68 C87.0390335,12 86.239777,12.08 85.3605948,12.08 C84.4814126,12.08 83.6821561,11.92 82.9628253,11.68 C82.2434944,11.44 81.6040892,11.04 81.1245353,10.48 C80.5650558,10 80.1654275,9.36 79.9256506,8.64 C79.605948,7.92 79.5260223,7.12 79.5260223,6.24 C79.5260223,5.36 79.6858736,4.56 80.0055762,3.84 C80.3252788,3.12 80.7249071,2.56 81.204461,2 C81.7639405,1.52 82.3234201,1.12 83.0427509,0.8 C83.7620818,0.64 84.5613383,0.48 85.4405204,0.48 Z M85.4405204,10.8 C86.0799257,10.8 86.6394052,10.72 87.1189591,10.48 C87.598513,10.24 88.0780669,10 88.4776952,9.6 C88.8773234,9.2 89.1171004,8.72 89.3568773,8.16 C89.5966543,7.6 89.6765799,6.96 89.6765799,6.24 C89.6765799,5.52 89.5966543,4.88 89.3568773,4.32 C89.1171004,3.76 88.8773234,3.28 88.4776952,2.88 C88.0780669,2.48 87.6784387,2.24 87.1189591,2 C86.6394052,1.76 86.0799257,1.68 85.4405204,1.68 C84.8011152,1.68 84.2416357,1.76 83.7620818,2 C83.2825279,2.24 82.802974,2.48 82.4033457,2.88 C82.0037175,3.28 81.7639405,3.76 81.5241636,4.32 C81.2843866,4.88 81.204461,5.52 81.204461,6.24 C81.204461,6.96 81.2843866,7.6 81.5241636,8.16 C81.7639405,8.72 82.0037175,9.2 82.4033457,9.6 C82.802974,10 83.2026022,10.24 83.7620818,10.48 C84.2416357,10.72 84.8011152,10.8 85.4405204,10.8 Z" id="Shape" fill-rule="nonzero"></path>
                                <polygon id="Path" points="101.745353 2 95.1115242 2 95.1115242 5.44 100.866171 5.44 100.866171 6.8 95.1115242 6.8 95.1115242 11.84 93.5130112 11.84 93.5130112 0.64 101.825279 0.64 101.825279 2"></polygon>
                                <polygon id="Path" points="112.215613 2 105.581784 2 105.581784 5.44 111.336431 5.44 111.336431 6.8 105.581784 6.8 105.581784 11.84 103.983271 11.84 103.983271 0.64 112.295539 0.64 112.295539 2"></polygon>
                                <polygon id="Path" points="116.211896 11.84 114.613383 11.84 114.613383 0.64 116.211896 0.64"></polygon>
                                <path d="M129.319703,4.08 L127.641264,4.08 C127.641264,3.76 127.481413,3.44 127.321561,3.12 C127.16171,2.8 126.921933,2.56 126.60223,2.4 C126.282528,2.16 125.962825,2.08 125.563197,1.92 C125.163569,1.84 124.763941,1.76 124.284387,1.76 C123.644981,1.76 123.085502,1.84 122.605948,2.08 C122.126394,2.24 121.64684,2.56 121.327138,2.96 C121.007435,3.36 120.687732,3.84 120.527881,4.4 C120.36803,4.96 120.208178,5.6 120.208178,6.32 C120.208178,7.04 120.288104,7.68 120.527881,8.24 C120.687732,8.8 121.007435,9.28 121.327138,9.68 C121.64684,10.08 122.126394,10.32 122.605948,10.56 C123.085502,10.8 123.644981,10.88 124.284387,10.88 C124.763941,10.88 125.163569,10.8 125.563197,10.72 C125.962825,10.64 126.282528,10.48 126.60223,10.24 C126.921933,10 127.16171,9.76 127.321561,9.44 C127.481413,9.12 127.641264,8.8 127.641264,8.4 L129.319703,8.4 C129.239777,8.96 129.079926,9.52 128.840149,10 C128.600372,10.48 128.200743,10.88 127.801115,11.2 C127.401487,11.52 126.842007,11.76 126.282528,11.92 C125.723048,12.08 125.083643,12.16 124.364312,12.16 C123.48513,12.16 122.685874,12 121.966543,11.76 C121.247212,11.52 120.687732,11.12 120.128253,10.56 C119.648699,10.08 119.249071,9.44 119.009294,8.72 C118.769517,8 118.609665,7.2 118.609665,6.32 C118.609665,5.44 118.769517,4.64 119.009294,3.92 C119.249071,3.2 119.648699,2.64 120.128253,2.08 C120.607807,1.6 121.247212,1.2 121.966543,0.96 C122.685874,0.64 123.48513,0.56 124.364312,0.56 C125.003717,0.56 125.643123,0.64 126.202602,0.8 C126.762082,0.96 127.321561,1.2 127.72119,1.52 C128.200743,1.84 128.520446,2.24 128.840149,2.64 C129.079926,3.04 129.239777,3.52 129.319703,4.08 Z" id="Path"></path>
                                <polygon id="Path" points="140.749071 11.84 131.557621 11.84 131.557621 0.64 140.429368 0.64 140.429368 2 133.156134 2 133.156134 5.36 139.949814 5.36 139.949814 6.72 133.156134 6.72 133.156134 10.48 140.669145 10.48 140.669145 11.84"></polygon>
                            </g>
                            <g transform="translate(73.531599, 61.600000)" fill="#FFFFFF">
                                <path d="M0.639405204,3.28 L3.43680297,0.64 L3.43680297,12.88 L2.47769517,12.88 L2.47769517,2.88 C2.07806691,3.2 1.67843866,3.68 1.27881041,4 L0.639405204,3.28 Z M4.47583643,4.16 L5.91449814,1.76 C6.31412639,1.04 6.71375465,0.56 7.7527881,0.56 L9.99070632,0.56 C10.9498141,0.56 11.3494424,1.04 11.7490706,1.76 L13.1877323,4.16 L12.3884758,4.64 L10.8698885,2.24 C10.5501859,1.84 10.3903346,1.52 9.91078067,1.52 L7.67286245,1.52 C7.19330855,1.52 6.9535316,1.84 6.71375465,2.24 L5.27509294,4.64 L4.47583643,4.16 Z M13.267658,6.64 C11.1096654,7.76 8.71189591,8.48 6.07434944,8.88 L6.07434944,10.96 C6.07434944,11.44 6.4739777,11.76 6.87360595,11.76 L13.3475836,11.76 L13.3475836,12.72 L6.87360595,12.72 C5.91449814,12.72 5.11524164,11.92 5.11524164,10.96 L5.11524164,5.12 L6.07434944,5.12 L6.07434944,7.84 C8.55204461,7.44 10.7899628,6.72 12.8680297,5.68 L13.267658,6.64 Z" id="Shape" fill-rule="nonzero"></path>
                                <path d="M25.7360595,0 L25.7360595,1.04 L28.6133829,1.04 L28.6133829,2 L21.8197026,2 L21.8197026,1.04 L24.7769517,1.04 L24.7769517,0 L25.7360595,0 Z M21.8996283,9.84 L25.3364312,9.44 L25.3364312,9.36 C25.8959108,8.88 26.295539,8.32 26.535316,7.84 L22.2193309,7.84 L22.2193309,6.88 L27.9739777,6.88 C27.6542751,7.76 27.2546468,8.56 26.7750929,9.28 L28.6133829,9.04 L28.6933086,10 L26.295539,10.32 L26.295539,11.52 C26.295539,12.32 25.5762082,13.04 24.7769517,13.04 L23.4182156,13.04 L23.4182156,12.08 L24.7769517,12.08 C25.0966543,12.08 25.3364312,11.84 25.3364312,11.52 L25.3364312,10.4 L21.9795539,10.8 L21.8996283,9.84 Z M28.4535316,5.04 C28.4535316,5.76 27.894052,6.32 27.1747212,6.32 L23.2583643,6.32 C22.5390335,6.32 21.9795539,5.76 21.9795539,5.04 L21.9795539,4 C21.9795539,3.28 22.5390335,2.72 23.2583643,2.72 L27.1747212,2.72 C27.894052,2.72 28.4535316,3.28 28.4535316,4 L28.4535316,5.04 Z M27.4944238,4 C27.4944238,3.84 27.3345725,3.68 27.1747212,3.68 L23.2583643,3.68 C23.098513,3.68 22.9386617,3.84 22.9386617,4 L22.9386617,5.04 C22.9386617,5.2 23.098513,5.36 23.2583643,5.36 L27.1747212,5.36 C27.3345725,5.36 27.4944238,5.2 27.4944238,5.04 L27.4944238,4 Z M29.8122677,3.76 L31.7304833,7.2 C32.2899628,5.92 32.6895911,4.32 33.0092937,2.48 L28.9330855,2.48 L29.2527881,0.16 L30.2118959,0.32 L30.0520446,1.6 L34.527881,1.6 L34.527881,2.56 L33.9684015,2.56 C33.5687732,4.88 32.929368,6.8 32.2899628,8.4 L34.6877323,12.64 L33.8884758,13.12 L31.8104089,9.44 C31.0111524,10.96 30.1319703,12.16 29.2527881,13.12 L28.5334572,12.48 C29.4925651,11.44 30.4516729,10.16 31.2509294,8.4 L29.0130112,4.32 L29.8122677,3.76 Z" id="Shape" fill-rule="nonzero"></path>
                                <path d="M43.1598513,12.64 C43.5594796,11.04 43.8791822,8.4 43.8791822,5.28 L43.8791822,4.48 L44.83829,4.48 L44.83829,5.28 C44.83829,8.48 44.5185874,11.28 44.1189591,12.88 L43.1598513,12.64 Z M45.8773234,12.88 L45.8773234,3.68 L43.3197026,3.68 L43.3197026,2.72 L45.8773234,2.72 L45.8773234,1.44 L43.5594796,1.6 L43.4795539,0.64 L48.9944238,0.24 L49.0743494,1.2 L46.8364312,1.36 L46.8364312,2.72 L49.3141264,2.72 L49.3141264,3.68 L46.8364312,3.68 L46.8364312,12.88 L45.8773234,12.88 Z M48.1152416,12.72 L48.1152416,4.48 L49.0743494,4.48 L49.0743494,12.72 L48.1152416,12.72 Z M55.9479554,5.52 L55.9479554,11.04 C55.9479554,12 55.2286245,12.8 54.2695167,12.8 L49.7936803,12.8 L51.5520446,0.24 L52.5111524,0.4 L50.9126394,11.92 L54.2695167,11.92 C54.669145,11.92 54.9888476,11.52 54.9888476,11.12 L54.9888476,5.6 L55.9479554,5.6 L55.9479554,5.52 Z" id="Shape" fill-rule="nonzero"></path>
                                <path d="M71.3736059,0.64 C71.2137546,1.6 71.0539033,2.48 70.8141264,3.36 L77.2881041,12.32 L76.4888476,12.88 L70.4144981,4.48 C69.3754647,7.68 67.697026,10.56 64.9795539,12.96 L64.3401487,12.24 C67.936803,9.04 69.6152416,5.04 70.3345725,0.4 L71.3736059,0.64 Z" id="Path"></path>
                                <path d="M88.1579926,3.76 C87.9981413,7.28 87.4386617,9.84 86.6394052,12 L85.760223,11.68 C86.5594796,9.6 87.1189591,7.12 87.1988848,3.76 L88.1579926,3.76 Z M91.5148699,0.08 C91.5148699,0.64 91.5148699,1.12 91.4349442,1.68 L93.8327138,1.68 C94.7918216,1.68 95.5910781,2.48 95.5910781,3.44 L95.5910781,11.2 C95.5910781,12.16 94.7918216,12.96 93.8327138,12.96 L92.4739777,12.96 L92.4739777,12 L93.8327138,12 C94.3122677,12 94.6319703,11.6 94.6319703,11.2 L94.6319703,3.44 C94.6319703,2.96 94.232342,2.64 93.8327138,2.64 L91.3550186,2.64 C91.035316,7.12 89.9962825,10.32 88.7174721,12.96 L87.83829,12.56 C89.0371747,10.08 89.9962825,6.96 90.3159851,2.64 L86.9591078,2.64 L86.9591078,1.68 L90.3959108,1.68 C90.3959108,1.12 90.4758364,0.64 90.4758364,0.08 L91.5148699,0.08 Z M97.5892193,2.4 L98.5483271,11.76 L97.5892193,11.84 L96.6301115,2.48 L97.5892193,2.4 Z" id="Shape" fill-rule="nonzero"></path>
                                <path d="M110.936803,0.32 C110.297398,2.8 109.258364,4.88 107.739777,6.48 L107.020446,5.84 C108.459108,4.32 109.418216,2.4 109.977695,0.08 L110.936803,0.32 Z M118.849442,8.24 L118.849442,11.04 C118.849442,12 118.050186,12.8 117.091078,12.8 L107.579926,12.8 L111.256506,4.96 L112.135688,5.36 L109.098513,11.84 L117.091078,11.84 C117.570632,11.84 117.890335,11.44 117.890335,11.04 L117.890335,8.24 L118.849442,8.24 Z M116.771375,0.16 L119.888476,6.16 L119.009294,6.64 L115.972119,0.64 L116.771375,0.16 Z" id="Shape" fill-rule="nonzero"></path>
                                <path d="M135.234201,0 L135.234201,1.12 L139.390335,1.12 C140.349442,1.12 141.148699,1.92 141.148699,2.88 L141.148699,3.36 L140.189591,3.36 L140.189591,2.88 C140.189591,2.4 139.869888,2.08 139.390335,2.08 L130.118959,2.08 C129.639405,2.08 129.319703,2.48 129.319703,2.88 L129.319703,3.36 L128.360595,3.36 L128.360595,2.88 C128.360595,1.92 129.159851,1.12 130.118959,1.12 L134.275093,1.12 L134.275093,0 L135.234201,0 Z M141.068773,13.04 L128.360595,13.04 L128.360595,12.08 L134.195167,12.08 L134.195167,10.32 L128.840149,10.32 L128.840149,9.36 L134.195167,9.36 L134.195167,7.92 L129.479554,7.92 L130.118959,4.88 L128.840149,4.88 L128.840149,3.92 L140.429368,3.92 L140.429368,4.88 L131.078067,4.88 L130.678439,6.96 L138.511152,6.96 C138.830855,6.96 139.070632,6.72 139.070632,6.4 L139.070632,5.68 L140.02974,5.68 L140.02974,6.4 C140.02974,7.2 139.310409,7.92 138.511152,7.92 L135.154275,7.92 L135.154275,9.36 L140.509294,9.36 L140.509294,10.32 L135.154275,10.32 L135.154275,12.08 L140.988848,12.08 L140.988848,13.04 L141.068773,13.04 Z" id="Shape" fill-rule="nonzero"></path>
                            </g>
                        </g>
                    </g>
                </g>
            </g>
        </g>
    </g>
</svg>