<?xml version="1.0" encoding="UTF-8"?>
<svg width="64px" height="94px" viewBox="0 0 64 94" version="1.1" xmlns="http://www.w3.org/2000/svg" xmlns:xlink="http://www.w3.org/1999/xlink">
    <!-- Generator: Sketch 52.5 (67469) - http://www.bohemiancoding.com/sketch -->
    <title>OISC</title>
    <desc>Created with Sketch.</desc>
    <g id="UI" stroke="none" stroke-width="1" fill="none" fill-rule="evenodd">
        <g id="LPO" transform="translate(-600.000000, -638.000000)">
            <g id="Certification" transform="translate(0.000000, 628.000000)">
                <g id="OISC" transform="translate(600.000000, 10.000000)">
                    <path d="M2.4817,93.4417 L2.4817,93.7507 L0.0307,93.7507 L0.0307,93.4417 L0.3857,93.4417 C0.5577,93.4417 0.6787,93.4067 0.7497,93.3407 C0.8107,93.2697 0.8507,93.1687 0.8507,93.0317 L0.8507,85.7217 C0.8507,85.5847 0.8107,85.4837 0.7397,85.4117 C0.6697,85.3467 0.5377,85.3107 0.3547,85.3107 L0.0307,85.3107 L0.0307,85.0017 L5.3977,85.0017 L6.0157,86.8507 L5.7627,86.9467 C5.4887,86.4047 5.1647,85.9947 4.7907,85.7217 C4.4157,85.4477 4.0007,85.3107 3.5647,85.3107 L2.1267,85.3107 C1.9957,85.3107 1.8837,85.3467 1.7937,85.4117 C1.7117,85.4837 1.6707,85.5847 1.6707,85.7217 L1.6707,88.9917 L3.3517,88.9917 C3.6957,88.9917 3.9397,88.9157 4.1017,88.7637 C4.2537,88.6067 4.3237,88.3687 4.3237,88.0197 L4.3237,87.7667 L4.6387,87.7667 L4.6387,90.7387 L4.3237,90.7387 L4.3237,90.5307 C4.3237,90.1157 4.2537,89.8117 4.1017,89.6047 C3.9397,89.4017 3.6957,89.3007 3.3517,89.3007 L1.6707,89.3007 L1.6707,93.0317 C1.6707,93.1687 1.7117,93.2697 1.7937,93.3407 C1.8837,93.4067 1.9957,93.4417 2.1267,93.4417 L2.4817,93.4417 Z" id="Fill-5" fill="#4364AD"></path>
                    <path d="M10.9768,87.1184 C10.9768,86.5004 10.8348,86.0304 10.5618,85.7014 C10.2888,85.3714 9.8838,85.2104 9.3358,85.2104 C8.9318,85.2104 8.5768,85.3204 8.2938,85.5494 C7.9998,85.7724 7.8578,86.0604 7.8578,86.4094 C7.8578,86.6174 7.9188,86.7894 8.0308,86.9314 C8.1518,87.0684 8.2118,87.2044 8.2118,87.3464 C8.2118,87.5184 8.1718,87.6504 8.0908,87.7364 C8.0098,87.8224 7.8888,87.8684 7.7268,87.8684 C7.5348,87.8684 7.3718,87.8064 7.2608,87.6904 C7.1498,87.5684 7.0888,87.3714 7.0888,87.0984 C7.0888,86.3844 7.3418,85.8374 7.8578,85.4624 C8.3648,85.0884 8.9218,84.9004 9.4878,84.9004 C10.3088,84.9004 10.9158,85.1084 11.3108,85.5134 C11.6958,85.9234 11.8988,86.4354 11.8988,87.0474 C11.8988,87.4574 11.7968,87.8684 11.6148,88.2784 C11.4228,88.6884 11.1288,89.0784 10.7238,89.4524 C9.7308,90.4094 8.9718,91.1834 8.4458,91.7814 C7.9188,92.3784 7.6048,92.7784 7.4938,92.9814 L10.5108,92.9814 C10.8248,92.9814 11.0788,92.8644 11.2808,92.6214 C11.4828,92.3834 11.6248,92.0294 11.6958,91.5434 L11.9998,91.5434 L11.6958,93.7504 L6.9358,93.7504 L6.9358,93.0824 C7.1088,92.7784 7.3828,92.3834 7.7768,91.9074 C8.1718,91.4324 8.6878,90.8704 9.3358,90.2224 C9.9038,89.6344 10.3188,89.0824 10.5818,88.5664 C10.8448,88.0504 10.9768,87.5684 10.9768,87.1184" id="Fill-7" fill="#4364AD"></path>
                    <path d="M16.0906,85.311 C15.5946,85.311 15.1896,85.676 14.8556,86.41 C14.5206,87.144 14.3486,88.126 14.3486,89.351 C14.3486,90.647 14.5206,91.649 14.8556,92.369 C15.1896,93.082 15.5946,93.442 16.0906,93.442 C16.6166,93.442 17.0316,93.082 17.3256,92.369 C17.6296,91.649 17.7806,90.647 17.7806,89.351 C17.7806,88.126 17.6396,87.144 17.3566,86.41 C17.0726,85.676 16.6576,85.311 16.0906,85.311 M16.0906,93.852 C15.3406,93.852 14.7136,93.457 14.1966,92.672 C13.6906,91.893 13.4276,90.784 13.4276,89.351 C13.4276,88.019 13.6806,86.946 14.1766,86.131 C14.6626,85.311 15.3006,84.901 16.0906,84.901 C16.8396,84.901 17.4576,85.296 17.9536,86.075 C18.4496,86.86 18.7026,87.954 18.7026,89.351 C18.7026,90.748 18.4496,91.847 17.9536,92.647 C17.4576,93.452 16.8396,93.852 16.0906,93.852" id="Fill-9" fill="#4364AD"></path>
                    <path d="M22.6418,85.311 C22.1448,85.311 21.7308,85.676 21.3958,86.41 C21.0618,87.144 20.8998,88.126 20.8998,89.351 C20.8998,90.647 21.0618,91.649 21.3958,92.369 C21.7308,93.082 22.1448,93.442 22.6418,93.442 C23.1678,93.442 23.5738,93.082 23.8768,92.369 C24.1708,91.649 24.3228,90.647 24.3228,89.351 C24.3228,88.126 24.1808,87.144 23.8968,86.41 C23.6238,85.676 23.1988,85.311 22.6418,85.311 M22.6318,93.852 C21.8828,93.852 21.2548,93.457 20.7478,92.672 C20.2318,91.893 19.9788,90.784 19.9788,89.351 C19.9788,88.019 20.2218,86.946 20.7178,86.131 C21.2138,85.311 21.8518,84.901 22.6318,84.901 C23.3808,84.901 24.0088,85.296 24.5048,86.075 C25.0008,86.86 25.2448,87.954 25.2448,89.351 C25.2448,90.748 25.0008,91.847 24.5048,92.647 C24.0088,93.452 23.3808,93.852 22.6318,93.852" id="Fill-11" fill="#4364AD"></path>
                    <path d="M31.6843,85.3618 C30.9553,86.5208 30.3683,87.6548 29.9423,88.7638 C29.5073,89.8728 29.2843,90.8348 29.2843,91.6498 C29.2843,91.7868 29.2943,91.9838 29.3143,92.2418 C29.3253,92.4948 29.3353,92.7938 29.3353,93.1328 C29.3353,93.4068 29.2943,93.5938 29.2133,93.6948 C29.1323,93.8018 28.9903,93.8518 28.7983,93.8518 C28.6363,93.8518 28.4943,93.7908 28.3833,93.6748 C28.2713,93.5528 28.2113,93.3358 28.2113,93.0318 C28.2113,92.3788 28.3523,91.5688 28.6463,90.6118 C28.9403,89.6498 29.7093,88.0188 30.9753,85.7208 L28.4133,85.7208 C28.0393,85.7208 27.7453,85.8378 27.5223,86.0748 C27.3003,86.3188 27.1373,86.6728 27.0363,87.1538 L26.7323,87.1028 L27.0873,85.0018 L31.6843,85.0018 L31.6843,85.3618 Z" id="Fill-13" fill="#4364AD"></path>
                    <path d="M35.7341,85.311 C35.2381,85.311 34.8231,85.676 34.4891,86.41 C34.1541,87.144 33.9931,88.126 33.9931,89.351 C33.9931,90.647 34.1541,91.649 34.4891,92.369 C34.8231,93.082 35.2381,93.442 35.7341,93.442 C36.2611,93.442 36.6661,93.082 36.9701,92.369 C37.2631,91.649 37.4151,90.647 37.4151,89.351 C37.4151,88.126 37.2741,87.144 36.9901,86.41 C36.7161,85.676 36.2911,85.311 35.7341,85.311 M35.7241,93.852 C34.9751,93.852 34.3471,93.457 33.8411,92.672 C33.3241,91.893 33.0711,90.784 33.0711,89.351 C33.0711,88.019 33.3141,86.946 33.8101,86.131 C34.3061,85.311 34.9441,84.901 35.7241,84.901 C36.4841,84.901 37.1011,85.296 37.5971,86.075 C38.0931,86.86 38.3371,87.954 38.3371,89.351 C38.3371,90.748 38.0931,91.847 37.5971,92.647 C37.1011,93.452 36.4841,93.852 35.7241,93.852" id="Fill-15" fill="#4364AD"></path>
                    <path d="M42.2756,85.311 C41.7796,85.311 41.3646,85.676 41.0296,86.41 C40.6966,87.144 40.5336,88.126 40.5336,89.351 C40.5336,90.647 40.6966,91.649 41.0296,92.369 C41.3646,93.082 41.7796,93.442 42.2756,93.442 C42.8016,93.442 43.2076,93.082 43.5106,92.369 C43.8046,91.649 43.9566,90.647 43.9566,89.351 C43.9566,88.126 43.8146,87.144 43.5306,86.41 C43.2576,85.676 42.8326,85.311 42.2756,85.311 M42.2656,93.852 C41.5166,93.852 40.8886,93.457 40.3816,92.672 C39.8656,91.893 39.6126,90.784 39.6126,89.351 C39.6126,88.019 39.8556,86.946 40.3526,86.131 C40.8486,85.311 41.4856,84.901 42.2656,84.901 C43.0146,84.901 43.6426,85.296 44.1386,86.075 C44.6346,86.86 44.8786,87.954 44.8786,89.351 C44.8786,90.748 44.6346,91.847 44.1386,92.647 C43.6426,93.452 43.0146,93.852 42.2656,93.852" id="Fill-17" fill="#4364AD"></path>
                    <path d="M49.2727,84.9009 L49.2727,92.6269 C49.2727,92.9009 49.3637,93.1029 49.5357,93.2399 C49.6977,93.3769 49.9407,93.4419 50.2447,93.4419 L50.7617,93.4419 L50.7617,93.7509 L47.0247,93.7509 L47.0247,93.4419 L47.4907,93.4419 C47.8247,93.4419 48.0777,93.3769 48.2297,93.2399 C48.3817,93.1029 48.4627,92.9009 48.4627,92.6269 L48.4627,86.4859 C48.4627,86.3489 48.4117,86.2379 48.3307,86.1509 C48.2497,86.0709 48.1187,86.0249 47.9457,86.0249 L47.0247,86.0249 L47.0247,85.7209 L47.4907,85.7209 C47.8957,85.7209 48.2297,85.6499 48.4827,85.5139 C48.7357,85.3819 48.9387,85.1739 49.0697,84.9009 L49.2727,84.9009 Z" id="Fill-19" fill="#4364AD"></path>
                    <path d="M54.8621,84.9009 L54.8621,92.6269 C54.8621,92.9009 54.9531,93.1029 55.1261,93.2399 C55.2871,93.3769 55.5301,93.4419 55.8341,93.4419 L56.3511,93.4419 L56.3511,93.7509 L52.6141,93.7509 L52.6141,93.4419 L53.0801,93.4419 C53.4141,93.4419 53.6671,93.3769 53.8191,93.2399 C53.9711,93.1029 54.0521,92.9009 54.0521,92.6269 L54.0521,86.4859 C54.0521,86.3489 54.0021,86.2379 53.9201,86.1509 C53.8391,86.0709 53.7081,86.0249 53.5351,86.0249 L52.6141,86.0249 L52.6141,85.7209 L53.0801,85.7209 C53.4851,85.7209 53.8191,85.6499 54.0721,85.5139 C54.3251,85.3819 54.5281,85.1739 54.6591,84.9009 L54.8621,84.9009 Z" id="Fill-21" fill="#4364AD"></path>
                    <path d="M60.9578,85.311 C60.4618,85.311 60.0468,85.676 59.7118,86.41 C59.3778,87.144 59.2158,88.126 59.2158,89.351 C59.2158,90.647 59.3778,91.649 59.7118,92.369 C60.0468,93.082 60.4618,93.442 60.9578,93.442 C61.4838,93.442 61.8888,93.082 62.1928,92.369 C62.4868,91.649 62.6388,90.647 62.6388,89.351 C62.6388,88.126 62.4968,87.144 62.2128,86.41 C61.9398,85.676 61.5148,85.311 60.9578,85.311 M60.9478,93.852 C60.1988,93.852 59.5708,93.457 59.0638,92.672 C58.5478,91.893 58.2948,90.784 58.2948,89.351 C58.2948,88.019 58.5378,86.946 59.0338,86.131 C59.5298,85.311 60.1678,84.901 60.9478,84.901 C61.6968,84.901 62.3248,85.296 62.8208,86.075 C63.3168,86.86 63.5598,87.954 63.5598,89.351 C63.5598,90.748 63.3168,91.847 62.8208,92.647 C62.3248,93.452 61.6968,93.852 60.9478,93.852" id="Fill-23" fill="#4364AD"></path>
                    <path d="M60.4314,37.8821 L60.4314,2.6041 C60.4314,2.1381 60.4924,2.1831 60.0364,2.1831 L8.1314,2.1831 C7.6764,2.1831 7.7264,2.1321 7.7264,2.5991 L7.7264,73.1851 C7.7264,73.6461 7.6654,73.6011 8.1314,73.6011 L60.0264,73.6011 C60.5024,73.6011 60.4314,73.6461 60.4314,73.1851 L60.4314,37.8821 M6.4404,74.8821 L6.4404,0.9431 L61.6964,0.9431 C61.7074,1.0641 61.7174,1.1861 61.7174,1.3081 L61.7174,74.4511 C61.7174,74.5721 61.7074,74.6991 61.7074,74.8211 C61.6964,74.8361 61.6764,74.8511 61.6664,74.8661 C61.5354,74.8711 61.4034,74.8821 61.2624,74.8821 L6.4404,74.8821" id="Fill-25" fill="#4666AF"></path>
                    <path d="M61.7273,0.8774 C61.7173,0.8974 61.7073,0.9224 61.6963,0.9434 L6.4403,0.9434 C6.4513,0.9224 6.4103,0.8724 6.4713,0.8774 L6.7243,0.8774 L61.7273,0.8774 Z" id="Fill-27" fill="#4667AF"></path>
                    <path d="M61.7073,74.8208 C61.7173,74.8558 61.7073,74.8708 61.6663,74.8658 L61.7073,74.8208" id="Fill-29" fill="#4667AF"></path>
                    <path d="M15.9485,29.1079 C16.4855,29.6239 17.0825,30.0649 17.6595,30.5359 C19.7255,32.2169 21.7815,33.8869 23.8465,35.5629 C25.3155,36.7479 26.7835,37.9429 28.2515,39.1329 C28.4335,39.2849 28.5355,39.2489 28.6665,39.0869 C29.4465,38.1649 30.2365,37.2539 31.0155,36.3429 L34.3575,32.4189 C35.7345,30.8189 37.1015,29.2199 38.4685,27.6199 C40.1385,25.6649 41.8205,23.7159 43.4905,21.7619 C44.8575,20.1769 46.2045,18.5869 47.5515,17.0029 C48.7565,15.6049 49.9505,14.2129 51.1565,12.8209 C52.4215,11.3269 53.6985,9.8339 54.9735,8.3399 C55.7535,7.4239 56.5325,6.5069 57.3225,5.5909 C57.3525,5.5549 57.3935,5.5349 57.4845,5.5499 C47.8245,21.3059 38.1445,37.0609 28.4535,52.8429 C28.1405,52.4419 27.9685,52.0079 27.7555,51.5979 C26.4895,49.2279 25.2545,46.8479 23.9985,44.4789 C22.7435,42.1189 21.4875,39.7599 20.2415,37.4009 C19.0365,35.1329 17.8425,32.8589 16.6365,30.5909 C16.4145,30.1809 16.2015,29.7759 15.9895,29.3659 C15.9485,29.2899 15.8875,29.2139 15.9485,29.1129 L15.9485,29.1079 Z" id="Fill-31" fill="#4666AF"></path>
                    <path d="M26.1047,8.5725 C26.0337,8.5885 25.9627,8.5975 25.9017,8.6235 C24.7487,9.1045 23.6337,9.6615 22.5707,10.3295 C20.4647,11.6565 18.6427,13.3165 17.1037,15.2865 C16.8907,15.5545 16.8907,15.5745 17.2147,15.6865 C17.9737,15.9385 18.7437,16.1875 19.5127,16.4405 C19.7057,16.5005 19.8367,16.4805 19.9387,16.2535 C20.4547,15.1445 21.0827,14.0765 21.7807,13.0785 C22.4287,12.1365 23.1477,11.2665 23.9577,10.4705 C24.6257,9.7925 25.3347,9.1705 26.1047,8.5725 M30.9557,7.3325 C30.0737,7.3875 29.2437,7.5745 28.4637,7.9805 C26.4697,8.9925 24.7987,10.3755 23.3707,12.0715 C22.2367,13.4125 21.3257,14.9015 20.5357,16.4705 C20.4447,16.6635 20.4957,16.7035 20.6777,16.7545 C22.2877,17.1495 23.9277,17.4685 25.5677,17.7115 C25.9217,17.7565 25.9837,17.6655 26.0437,17.3815 C26.4897,15.4935 27.0367,13.6455 27.8357,11.8785 C28.3937,10.6485 29.0417,9.4835 29.9017,8.4405 C30.2257,8.0465 30.5807,7.6865 30.9557,7.3325 M33.4967,12.6735 L33.4967,12.2135 L33.4967,7.4085 C33.4967,7.3015 33.5677,7.1195 33.3747,7.1195 C32.9897,7.1145 32.5957,7.0695 32.2407,7.2765 C31.0157,7.9705 30.1657,9.0225 29.4457,10.1925 C28.0597,12.4915 27.2597,15.0125 26.6417,17.6045 C26.6107,17.7875 26.6417,17.8425 26.8437,17.8685 C27.9777,18.0305 29.1227,18.0915 30.2567,18.1715 C31.2177,18.2425 32.1807,18.2175 33.1427,18.2585 C33.4157,18.2675 33.5067,18.1975 33.5067,17.9085 C33.4967,16.1615 33.4967,14.4205 33.4967,12.6735 M34.0337,12.6785 C34.0337,14.4355 34.0437,16.1875 34.0227,17.9395 C34.0227,18.1715 34.0837,18.2735 34.3367,18.2585 C35.2287,18.2025 36.1287,18.1975 37.0307,18.1365 C38.2057,18.0605 39.3697,17.9595 40.5337,17.8225 C41.3237,17.7315 41.3237,17.7365 41.1307,16.9675 C40.6857,15.1955 40.1387,13.4635 39.3497,11.8125 C38.6807,10.4105 37.9117,9.0995 36.7567,8.0465 C36.3327,7.6665 35.9067,7.2665 35.3097,7.1655 C34.9947,7.1145 34.6617,7.1355 34.3367,7.1045 C34.0837,7.0835 34.0227,7.1705 34.0227,7.4135 C34.0437,9.1755 34.0337,10.9265 34.0337,12.6785 M21.3967,28.2875 L24.6257,28.2875 C24.7887,28.2875 24.8997,28.2875 24.8997,28.0705 C24.8897,26.5455 24.9707,25.0275 25.0927,23.5085 C25.1637,22.6525 25.2537,21.8015 25.3857,20.9515 C25.5177,20.1765 25.6487,19.4025 25.7707,18.6225 C25.8007,18.4755 25.8007,18.3795 25.5887,18.3495 C23.8467,18.1165 22.1157,17.7825 20.4137,17.3415 C20.2417,17.2955 20.1607,17.3065 20.0797,17.4985 C19.6847,18.4045 19.3407,19.3465 19.0677,20.2985 C18.3587,22.7835 17.9737,25.3155 17.9537,27.9075 C17.9537,28.2425 18.0647,28.2975 18.3587,28.2925 C19.3717,28.2775 20.3737,28.2875 21.3967,28.2875 M33.4967,23.5895 L33.4967,22.5815 L33.4967,19.1945 C33.4967,19.0885 33.5577,18.9365 33.3547,18.9165 C33.1727,18.9055 32.9897,18.8705 32.8087,18.8655 C31.9477,18.8555 31.0967,18.8505 30.2357,18.8045 C29.0917,18.7435 27.9477,18.6425 26.8137,18.5055 C26.5297,18.4705 26.4487,18.5465 26.3977,18.8095 C26.0847,20.4655 25.8517,22.1355 25.7197,23.8015 C25.6087,25.1995 25.5377,26.5865 25.5477,27.9785 C25.5577,28.2165 25.6087,28.2925 25.8617,28.2925 C28.3017,28.2825 30.7427,28.2825 33.1827,28.2925 C33.4457,28.2925 33.5067,28.2165 33.5067,27.9685 C33.4967,26.5105 33.4967,25.0525 33.4967,23.5895 M42.0937,8.9215 C42.6707,9.3265 43.1867,9.7925 43.6827,10.2785 C45.1217,11.6865 46.2957,13.3065 47.2877,15.0635 C47.3587,15.1745 47.3897,15.2755 47.2677,15.3725 C47.1467,15.4835 47.0747,15.6405 46.9027,15.7265 C46.3157,14.6535 45.6777,13.6205 44.9287,12.6635 C43.2777,10.5575 41.3137,8.8415 38.8537,7.7575 C38.3067,7.5245 37.7087,7.4795 37.0307,7.3675 C37.3447,7.7225 37.6277,7.9705 37.8707,8.2485 C38.7617,9.2765 39.4307,10.4305 39.9977,11.6515 C40.8377,13.4685 41.4357,15.3725 41.8707,17.3165 C41.9317,17.5695 42.0227,17.6155 42.2547,17.5745 C43.4507,17.3775 44.6547,17.1545 45.8297,16.8555 C45.8707,16.8455 45.9007,16.8405 45.9517,16.8305 C45.7087,17.3565 45.3337,17.6455 44.7867,17.7515 C43.9667,17.9235 43.1467,18.0915 42.3167,18.2075 C42.1237,18.2325 42.0937,18.3185 42.1337,18.5015 C42.2547,19.1445 42.3367,19.7915 42.4887,20.4295 C42.5697,20.7735 42.4887,21.0375 42.2257,21.2705 C42.1537,21.3315 42.0837,21.4065 41.9817,21.5185 C41.8607,20.7335 41.7387,19.9945 41.6177,19.2555 C41.5767,19.0225 41.5167,18.7945 41.4857,18.5675 C41.4657,18.3845 41.3747,18.3435 41.2227,18.3645 C39.7337,18.5825 38.2457,18.7235 36.7367,18.7995 C35.9377,18.8455 35.1467,18.8705 34.3467,18.8605 C34.1247,18.8605 34.0227,18.9005 34.0227,19.1645 C34.0437,22.1055 34.0437,25.0525 34.0227,27.9995 C34.0227,28.2215 34.0837,28.2975 34.3167,28.2925 C34.9247,28.2775 35.5217,28.2875 36.1597,28.2875 C35.9067,28.6975 35.6737,29.0165 35.1467,28.9305 C34.8837,28.8845 34.6097,28.9355 34.3467,28.9205 C34.1137,28.9055 34.0127,28.9655 34.0227,29.2245 C34.0537,29.6195 34.0027,30.0235 34.0437,30.4245 C34.0937,30.8695 33.8107,31.1025 33.4967,31.4265 L33.4967,29.4925 C33.4967,28.9205 33.4967,28.9205 32.9297,28.9205 C30.6007,28.9205 28.2717,28.9305 25.9427,28.9155 C25.6287,28.9155 25.5377,28.9915 25.5477,29.3105 C25.6287,31.2185 25.7297,33.1175 26.0137,35.0105 C26.0437,35.2235 26.0637,35.4365 26.0947,35.6495 C25.5987,35.4715 25.3347,35.0925 25.2737,34.5255 C25.1027,32.8995 24.9397,31.2745 24.9397,29.6295 C24.9397,29.5835 24.9097,29.5385 24.9097,29.4875 C24.8597,29.3105 24.9907,29.0725 24.8387,28.9605 C24.6767,28.8495 24.4337,28.9255 24.2317,28.9255 C22.2977,28.9205 20.3537,28.9205 18.4197,28.9255 C18.2567,28.9255 18.0647,28.8295 17.9437,29.0415 C17.9227,29.0775 17.8727,29.0415 17.8427,29.0115 C17.5687,28.7835 17.2647,28.5965 16.9717,28.2725 C17.3357,28.3585 17.3057,28.1505 17.3057,27.9685 C17.3357,24.6625 17.8927,21.4575 19.0367,18.3595 C19.1687,18.0145 19.2997,17.6755 19.4417,17.3265 C19.5127,17.1795 19.5127,17.0935 19.3107,17.0325 C18.4197,16.7895 17.5487,16.5065 16.6877,16.1675 C16.5457,16.1165 16.4757,16.1315 16.3947,16.2585 C15.0677,18.2225 14.0647,20.3435 13.4477,22.6425 C13.1127,23.8675 12.9107,25.1135 12.7797,26.3735 C12.7187,26.9665 12.7387,27.5635 12.7087,28.1505 C12.7087,28.3085 12.8097,28.2825 12.8907,28.2875 C13.1947,28.2875 13.4877,28.2825 13.7917,28.2875 C13.9437,28.2925 14.2877,28.7075 14.2577,28.8595 C14.2277,28.9565 14.1357,28.9205 14.0757,28.9205 C13.7507,28.9255 13.4167,28.9205 13.0927,28.9205 C12.7187,28.9255 12.7087,28.9255 12.7387,29.3305 C12.8307,30.5655 12.9817,31.7865 13.2647,32.9965 C13.8827,35.5985 14.9667,37.9885 16.4757,40.1905 C16.7887,40.6465 16.7887,40.6465 17.3157,40.4685 C18.1157,40.2005 18.9257,39.9325 19.7457,39.7195 C19.9277,39.6695 20.2827,39.9985 20.2417,40.1855 C20.2217,40.2915 20.1207,40.2665 20.0497,40.2915 C19.1887,40.5345 18.3387,40.7925 17.4977,41.0765 C17.2447,41.1625 17.2547,41.2385 17.3967,41.4205 C19.0977,43.4865 21.1027,45.1925 23.4417,46.5035 C23.5937,46.5895 23.7147,46.6915 23.7957,46.8435 C24.3227,47.8615 24.8597,48.8735 25.3857,49.8915 C25.4167,49.9315 25.4257,49.9725 25.4667,50.0635 C24.6467,49.7645 23.8967,49.4255 23.1577,49.0505 C21.3257,48.1145 19.6547,46.9595 18.1157,45.5825 C15.8677,43.5675 14.0757,41.2135 12.7487,38.5145 C11.9187,36.8445 11.3007,35.0925 10.8957,33.2595 C10.6227,31.9985 10.4597,30.7285 10.3897,29.4415 C10.2577,27.1895 10.4507,24.9765 10.9667,22.7795 C11.6657,19.8225 12.8907,17.1035 14.6427,14.6385 C15.7157,13.1085 16.9807,11.7375 18.3787,10.5065 C19.9997,9.0845 21.7807,7.9145 23.7257,6.9925 C25.8117,6.0055 28.0087,5.3275 30.2967,4.9985 C31.5527,4.8155 32.7977,4.7095 34.0637,4.7295 C36.6867,4.7755 39.2377,5.2205 41.7087,6.1175 C43.4907,6.7655 45.1717,7.6005 46.7307,8.6545 C47.7337,9.3115 48.6747,10.0365 49.5357,10.8455 C49.7787,11.0835 50.0317,11.3165 50.2747,11.5495 C50.3757,11.6405 50.4167,11.7065 50.2947,11.8435 C49.8597,12.3345 49.4247,12.8455 48.9997,13.3575 C48.8577,13.5345 48.7867,13.4235 48.6857,13.3265 C47.9057,12.5065 47.0347,11.7775 46.1137,11.1035 C44.9287,10.2535 43.6727,9.5245 42.3467,8.9325 C42.2757,8.8965 42.1947,8.8505 42.0937,8.9215" id="Fill-33" fill="#4667AF"></path>
                    <path d="M36.8889,48.9746 C37.2229,48.9236 37.4859,48.8936 37.7389,48.8426 C38.6509,48.6606 39.5419,48.4636 40.3619,47.9566 C41.9009,46.9896 43.2579,45.8206 44.4329,44.4326 C45.4149,43.2586 46.2549,41.9826 46.9639,40.6156 C47.0749,40.3926 47.0049,40.3376 46.8019,40.2866 C45.2629,39.8866 43.7029,39.5476 42.1239,39.3046 C41.8699,39.2646 41.7799,39.3146 41.7089,39.5726 C41.3649,41.0606 40.8989,42.5046 40.3009,43.9116 C39.6739,45.3996 38.9039,46.8026 37.8409,48.0276 C37.5569,48.3466 37.2429,48.6306 36.8889,48.9746 M54.7909,29.1786 C54.8319,28.9716 54.7309,28.9156 54.5379,28.9206 C54.2239,28.9306 53.9199,28.9256 53.6069,28.9256 L50.7819,28.9256 C50.6299,28.9256 50.5079,28.9156 50.5079,29.1376 C50.4779,29.7456 50.4369,30.3586 50.3869,30.9656 C50.2649,32.4436 50.0119,33.9026 49.6469,35.3346 C49.2729,36.8486 48.7659,38.3226 48.1179,39.7396 C48.0269,39.9426 48.0779,39.9986 48.2599,40.0486 C48.9589,40.2666 49.6579,40.4986 50.3459,40.7776 C50.5079,40.8486 50.6099,40.8136 50.7209,40.6566 C51.5199,39.5266 52.2399,38.3526 52.8369,37.0976 C54.0119,34.5856 54.6499,31.9476 54.7909,29.1786 M42.4179,47.2736 C42.4779,47.3186 42.5389,47.3186 42.5989,47.2636 C42.6609,47.2376 42.7219,47.2176 42.7719,47.1926 C44.1489,46.5396 45.4349,45.7496 46.6299,44.8226 C47.8659,43.8656 48.9789,42.7876 49.9819,41.5926 C50.1339,41.4056 50.0929,41.3496 49.8899,41.2836 C49.2319,41.0606 48.5739,40.8386 47.9259,40.6106 C47.7939,40.5646 47.7139,40.5856 47.6529,40.7166 C47.6119,40.8236 47.5409,40.9096 47.4809,41.0156 C46.4069,43.0666 45.0709,44.9236 43.3489,46.4886 L42.5589,47.2176 C42.5189,47.2336 42.4689,47.2536 42.4179,47.2736 C42.4379,47.2786 42.3969,47.3396 42.4579,47.3186 C42.4479,47.3036 42.4279,47.2886 42.4179,47.2736 M34.0339,46.2816 C34.0339,47.1826 34.0439,48.0336 34.0339,48.8836 C34.0229,49.1366 34.0839,49.1976 34.3469,49.2226 C35.3289,49.2936 36.0689,48.8326 36.7469,48.2056 C37.9109,47.1266 38.7009,45.8006 39.3799,44.3776 C40.1089,42.8286 40.6349,41.2036 41.0609,39.5526 C41.1619,39.1676 41.1719,39.1576 40.7869,39.1126 C40.1389,39.0306 39.4909,38.9556 38.8429,38.9046 C38.6099,38.8846 38.5699,38.8336 38.6909,38.6166 C38.8429,38.3526 38.9739,38.2356 39.3289,38.2926 C39.8959,38.3786 40.4729,38.4236 41.0299,38.4946 C41.2219,38.5196 41.3239,38.4846 41.3649,38.2666 C41.6069,37.1476 41.7999,36.0186 41.9509,34.8896 C42.0329,34.3126 42.0739,33.7306 42.1339,33.1526 C42.1439,33.0826 42.1539,33.0006 42.1949,32.9456 C42.4069,32.5756 42.6299,32.2216 42.9139,31.8726 C42.8729,32.3526 42.8429,32.8396 42.7919,33.3206 C42.6199,35.0266 42.3669,36.7226 42.0019,38.3936 C41.9509,38.6006 42.0229,38.6256 42.2049,38.6616 C43.6729,38.9046 45.1309,39.1936 46.5789,39.5676 C46.7819,39.6186 46.9839,39.6536 47.1659,39.7346 C47.3589,39.8156 47.4099,39.7296 47.4809,39.5826 C48.3209,37.7456 48.9279,35.8416 49.3129,33.8666 C49.5659,32.5956 49.7589,31.3146 49.7989,30.0146 C49.8089,29.7406 49.8299,29.4626 49.8499,29.1886 C49.8699,28.9256 49.7279,28.9206 49.5359,28.9206 C48.0369,28.9256 46.5389,28.9256 45.0399,28.9256 L44.6959,28.9256 C44.9189,28.3386 44.9789,28.2876 45.5569,28.2876 C46.8929,28.2876 48.2399,28.2826 49.5869,28.2926 C49.8189,28.2976 49.8799,28.2216 49.8799,27.9936 C49.8299,26.3236 49.7079,24.6526 49.3839,23.0016 C49.3029,22.6116 49.2219,22.2276 49.1409,21.8326 C49.1209,21.7306 49.1209,21.6356 49.1809,21.5386 C49.3029,21.3566 49.4249,21.1636 49.5659,20.9316 C49.7889,21.5186 49.8799,22.1006 49.9919,22.6726 C50.2349,23.9996 50.4169,25.3306 50.4679,26.6776 C50.4879,27.1386 50.4979,27.5996 50.5079,28.0596 C50.5079,28.2316 50.5579,28.2926 50.7309,28.2926 C52.0069,28.2876 53.2829,28.2826 54.5479,28.2926 C54.7709,28.2926 54.8019,28.2066 54.8019,28.0196 C54.8219,26.5156 54.6389,25.0426 54.3259,23.5796 C53.8389,21.4126 53.0299,19.3766 51.8949,17.4736 C51.8239,17.3566 51.8039,17.2606 51.8859,17.1336 C52.2799,16.5006 52.6649,15.8686 53.0589,15.2246 C53.1609,15.0526 53.2219,15.1036 53.3029,15.2406 C54.0419,16.3646 54.6799,17.5386 55.2269,18.7746 C55.8239,20.1466 56.2899,21.5586 56.6139,23.0216 C56.8569,24.1156 57.0289,25.2246 57.1199,26.3536 C57.2009,27.4366 57.2109,28.5206 57.1509,29.6036 C57.0389,31.4716 56.6949,33.3096 56.1379,35.1016 C55.6519,36.6816 55.0039,38.1906 54.1939,39.6336 C53.4239,41.0156 52.5129,42.2916 51.4799,43.4916 C49.6779,45.5626 47.5919,47.2636 45.2129,48.6096 C43.4199,49.6076 41.5369,50.3616 39.5519,50.8636 C37.9319,51.2676 36.2819,51.4956 34.6099,51.5666 C33.4359,51.6226 32.2719,51.5516 31.0969,51.4406 C30.9139,51.4206 30.8539,51.3846 30.9749,51.1966 C31.3699,50.5546 31.7649,49.9066 32.1499,49.2576 C32.2509,49.0956 32.3419,48.9946 32.5549,49.1216 C32.7979,49.2576 33.0719,49.2026 33.3449,49.2076 C33.5169,49.2076 33.4969,49.0806 33.4969,48.9746 C33.4969,48.5746 33.5269,48.1746 33.4869,47.7746 C33.4259,47.1976 33.6389,46.7416 34.0339,46.2816" id="Fill-35" fill="#4667AF"></path>
                    <path d="M14.5007,62.9585 C14.4797,64.0625 14.5007,65.1355 14.6027,66.2035 C14.6927,66.9685 14.8047,67.7275 15.0777,68.4465 C15.2807,68.9935 15.5747,69.5095 16.1107,69.8185 C17.2747,70.4715 19.2697,70.3755 19.9277,68.3405 C20.3737,66.9375 20.4137,65.4895 20.4647,64.0465 C20.5247,62.7045 20.4747,61.3635 20.3537,60.0265 C20.2827,59.2015 20.1607,58.3865 19.8877,57.6025 C19.5427,56.5995 19.0267,55.7795 17.8327,55.6725 C16.7387,55.5765 15.9077,55.8505 15.3407,56.9385 C15.0777,57.4395 14.9257,57.9865 14.8147,58.5325 C14.5207,60.0065 14.4707,61.4945 14.5007,62.9585 M11.0877,62.9535 C11.0987,61.0845 11.5637,59.3535 12.6577,57.8195 C14.7327,54.9385 18.5307,54.4175 21.1837,56.6295 C22.5097,57.7285 23.2697,59.1865 23.6337,60.8465 C23.9787,62.3765 23.9887,63.9105 23.5027,65.4135 C22.8447,67.4845 21.6487,69.1455 19.6347,70.0665 C17.7807,70.9165 15.9797,70.6735 14.3287,69.4895 C12.4557,68.1525 11.4727,66.2695 11.1487,64.0265 C11.0987,63.6725 11.0587,63.3125 11.0877,62.9535" id="Fill-37" fill="#4667AF"></path>
                    <path d="M33.7297,67.4695 L33.7297,64.9735 C33.7297,64.8465 33.6987,64.6995 33.9117,64.6895 C34.0737,64.6845 34.1247,64.7715 34.1647,64.9225 C34.4687,66.1985 34.9347,67.3985 35.7447,68.4465 C36.4537,69.3575 37.3137,70.0255 38.5087,70.1375 C40.0577,70.2895 41.4247,69.4745 41.6677,67.7885 C41.8707,66.3305 41.3137,65.3635 39.9567,64.8065 C39.1057,64.4675 38.2147,64.2945 37.3337,64.0415 C36.6557,63.8445 35.9877,63.6165 35.3897,63.2315 C34.5697,62.7155 34.0437,61.9765 33.8407,61.0345 C33.5677,59.7335 33.6387,58.4675 34.3067,57.2875 C34.8837,56.2705 35.7747,55.6675 36.9187,55.4095 C38.2457,55.0955 39.4807,55.3035 40.6557,56.0115 C40.9287,56.1685 41.2127,56.3355 41.5567,56.3815 C41.9417,56.4325 42.1947,56.2855 42.2857,55.9165 C42.2957,55.8545 42.3367,55.7995 42.3367,55.7385 C42.3267,55.5615 42.4477,55.5865 42.5587,55.5815 C42.7107,55.5715 42.7107,55.6675 42.7107,55.7795 L42.7107,60.0575 C42.7107,60.1835 42.6907,60.2695 42.5387,60.2805 C42.3667,60.2845 42.3057,60.2145 42.2657,60.0525 C42.1137,59.3335 41.8707,58.6395 41.5367,57.9815 C41.0007,56.9435 40.2707,56.1235 39.1167,55.7795 C37.7087,55.3545 36.2007,55.9815 35.7247,57.2325 C35.4307,58.0215 35.3797,58.8215 35.9067,59.5465 C36.2917,60.0725 36.8887,60.3005 37.4857,60.4825 C38.5187,60.8065 39.5827,60.9535 40.6147,61.2775 C41.6477,61.6115 42.5697,62.1025 43.1367,63.0845 C43.5517,63.8245 43.6727,64.6345 43.6527,65.4545 C43.6427,66.3305 43.5007,67.1905 43.1367,67.9955 C42.4477,69.5255 41.2527,70.3295 39.5927,70.5125 C38.4587,70.6385 37.4157,70.3145 36.3827,69.9245 C36.0277,69.7875 35.6737,69.6565 35.3097,69.5405 C34.6507,69.3325 34.3567,69.4845 34.1347,70.1375 C34.0837,70.2895 33.9827,70.2435 33.8917,70.2485 C33.7697,70.2635 33.7297,70.1985 33.7297,70.0865 L33.7297,69.0385 L33.7297,67.4695" id="Fill-39" fill="#4667AF"></path>
                    <path d="M56.9988,67.6768 C56.9988,68.4308 56.9988,69.1958 56.9888,69.9558 C56.9888,70.0418 57.0598,70.1728 56.8868,70.1978 C56.7348,70.2238 56.6848,70.1478 56.6238,70.0208 C56.3308,69.3278 56.0268,69.2158 55.3578,69.5808 C54.6398,69.9758 53.9108,70.3248 53.0798,70.4618 C50.5888,70.8668 48.2698,69.8488 46.9138,67.6218 C45.8508,65.8998 45.4758,64.0268 45.7388,62.0318 C45.9818,60.1438 46.7108,58.4468 48.0578,57.0858 C49.3228,55.7938 50.8928,55.1208 52.7358,55.3138 C53.5058,55.3948 54.2038,55.7488 54.9128,56.0478 C55.1558,56.1588 55.4188,56.2498 55.6918,56.3058 C56.1678,56.4068 56.4218,56.2808 56.5628,55.8298 C56.6138,55.6578 56.7258,55.7138 56.8268,55.7078 C56.9578,55.6978 56.9578,55.8048 56.9578,55.8958 L56.9578,60.4218 C56.9578,60.5278 56.9578,60.6138 56.8068,60.6288 C56.6138,60.6498 56.5628,60.5488 56.5328,60.3908 C56.2898,59.1968 55.7938,58.1188 55.0138,57.1718 C54.4068,56.4418 53.6978,55.8498 52.7148,55.7078 C51.4998,55.5258 50.5888,56.0018 50.0018,57.0958 C49.4858,58.0828 49.3128,59.1608 49.1708,60.2498 C49.0098,61.5558 49.0398,62.8668 49.0698,64.1788 C49.1008,65.4338 49.1918,66.6898 49.5758,67.8998 C49.9208,68.9528 50.4368,69.8698 51.6518,70.1018 C52.6138,70.2898 53.5058,70.0518 54.2948,69.4888 C55.6828,68.5078 56.3808,67.0948 56.6438,65.4488 C56.6438,65.4388 56.6438,65.4288 56.6548,65.4188 C56.6948,65.3018 56.6138,65.0998 56.8568,65.1208 C57.0898,65.1458 56.9888,65.3228 56.9888,65.4338 C56.9988,66.1788 56.9988,66.9328 56.9988,67.6768" id="Fill-41" fill="#4667AF"></path>
                    <path d="M27.0569,62.9077 L27.0569,56.4477 C27.0569,55.9767 27.1379,56.0167 26.6009,56.0117 C26.3279,56.0067 26.0439,56.0117 25.7709,56.0117 C25.6189,56.0067 25.4369,56.0627 25.4469,55.7897 C25.4469,55.5257 25.6189,55.5817 25.7609,55.5817 C26.3689,55.5767 26.9659,55.5817 27.5729,55.5817 L31.5119,55.5817 C31.6539,55.5817 31.8259,55.5307 31.8259,55.7897 C31.8259,56.0427 31.6739,56.0117 31.5219,56.0117 C31.1979,56.0117 30.8639,56.0277 30.5399,56.0067 C30.2769,55.9917 30.1849,56.0577 30.1849,56.3357 C30.2059,59.2417 30.2059,62.1427 30.2059,65.0497 C30.2059,66.5277 30.2059,68.0007 30.1849,69.4797 C30.1849,69.7377 30.2459,69.8487 30.5299,69.8287 C30.8939,69.8037 31.2489,69.8237 31.6029,69.8187 C31.7349,69.8187 31.8159,69.8337 31.8259,69.9957 C31.8259,70.1627 31.7649,70.2027 31.6029,70.2027 C29.6289,70.1977 27.6439,70.1977 25.6599,70.2027 C25.5079,70.2027 25.4469,70.1577 25.4469,69.9957 C25.4469,69.8287 25.5379,69.8187 25.6599,69.8187 C25.9939,69.8237 26.3169,69.8187 26.6519,69.8187 C27.0569,69.8187 27.0569,69.8187 27.0569,69.4287 L27.0569,62.9077" id="Fill-43" fill="#4666AF"></path>
                    <polygon id="Fill-45" fill="#4666AF" points="15.9485 29.1125 15.9385 29.1175 15.9485 29.1075"></polygon>
                    <path d="M42.4177,47.2737 C42.4687,47.2577 42.5187,47.2377 42.5587,47.2177 C42.5797,47.2377 42.5897,47.2487 42.5997,47.2637 C42.5387,47.3137 42.4787,47.3187 42.4177,47.2737" id="Fill-47" fill="#FDFDFF"></path>
                    <path d="M42.4177,47.2737 C42.4277,47.2887 42.4377,47.3037 42.4477,47.3137 C42.3967,47.3397 42.4377,47.2787 42.4177,47.2737" id="Fill-49" fill="#FDFDFF"></path>
                </g>
            </g>
        </g>
    </g>
</svg>