<?xml version="1.0" encoding="UTF-8"?>
<svg width="122px" height="37px" viewBox="0 0 122 37" version="1.1" xmlns="http://www.w3.org/2000/svg" xmlns:xlink="http://www.w3.org/1999/xlink">
    <!-- Generator: Sketch 52.5 (67469) - http://www.bohemiancoding.com/sketch -->
    <title>UCAS</title>
    <desc>Created with Sketch.</desc>
    <g id="UI" stroke="none" stroke-width="1" fill="none" fill-rule="evenodd">
        <g id="LPO" transform="translate(-313.000000, -667.000000)">
            <g id="Certification" transform="translate(0.000000, 628.000000)">
                <g id="UCAS" transform="translate(313.000000, 39.000000)">
                    <path d="M117.6296,11.0164 C117.0366,11.0164 116.4536,10.9974 115.8606,11.0264 C115.5786,11.0364 115.4716,10.9434 115.4426,10.6614 C115.3556,9.9374 115.1806,9.2334 114.9076,8.5524 C114.1116,6.5114 112.6536,5.1464 110.5536,4.5194 C107.8036,3.6984 105.0526,3.7174 102.3956,4.8644 C99.7666,5.9964 98.9506,8.4414 99.3486,10.7344 C99.6306,12.2944 100.7966,13.1544 102.1376,13.7864 C103.8586,14.5974 105.7236,14.9664 107.5706,15.3744 C110.1076,15.9384 112.6626,16.4294 115.0836,17.4064 C117.1726,18.2524 119.0386,19.4134 120.1856,21.4494 C122.0126,24.6654 122.0126,30.6484 116.8226,33.7964 C113.8676,35.5944 110.6226,36.2074 107.2106,36.1194 C104.5476,36.0564 101.9676,35.5854 99.5816,34.3214 C95.8886,32.3634 93.9746,29.2484 93.6776,25.1134 C93.5946,24.0154 93.6146,24.0154 94.7176,24.0154 C95.6846,24.0154 96.6326,24.0204 97.5996,24.0104 C97.8176,24.0104 97.9486,24.0244 97.9596,24.3064 C98.0806,28.7964 101.2246,31.2404 105.0146,31.9894 C107.5216,32.4894 110.0196,32.4314 112.4686,31.6494 C116.0166,30.4974 117.1046,27.7174 116.5506,24.8654 C116.2586,23.3194 115.1806,22.3584 113.8486,21.6484 C112.0896,20.7104 110.1746,20.2884 108.2606,19.8504 C105.7626,19.2764 103.2316,18.8354 100.8166,17.9504 C99.5376,17.4894 98.3476,16.8914 97.2886,16.0364 C95.3636,14.4714 94.6156,12.3814 94.6886,9.9664 C94.8296,5.6314 97.3076,2.4304 101.5886,1.0304 C105.3256,-0.1846 109.0866,-0.2336 112.8086,1.0354 C116.7546,2.3864 119.0086,5.2094 119.6506,9.3254 C119.7186,9.7624 119.7286,10.2094 119.7966,10.6474 C119.8556,10.9724 119.7286,11.0304 119.4266,11.0204 C118.8246,11.0014 118.2216,11.0164 117.6296,11.0164" id="Fill-51" fill="#232226"></path>
                    <path d="M27.6545,13.6597 C27.6145,16.7217 27.7655,20.5067 27.5815,24.2777 C27.4405,27.4207 26.5125,30.3077 24.2335,32.6057 C22.4935,34.3607 20.3215,35.3227 17.9255,35.7647 C14.5295,36.3817 11.1475,36.2747 7.8425,35.2157 C3.3865,33.7827 1.0005,30.5897 0.2575,26.0607 C0.0625,24.8897 0.0185,23.7037 0.0185,22.5137 C0.0185,15.5057 0.0185,8.5037 0.0095,1.4967 C0.0095,1.0497 0.0925,0.8897 0.5825,0.9037 C1.7155,0.9527 2.8525,0.9427 3.9885,0.9087 C4.4555,0.8997 4.6115,1.0067 4.6115,1.5117 C4.5775,5.1997 4.5925,8.8927 4.5925,12.5757 C4.6015,16.3327 4.5485,20.0987 4.6405,23.8597 C4.6935,26.2457 5.4865,28.4127 7.3225,30.0697 C8.5225,31.1527 9.9705,31.7417 11.5505,32.0277 C13.4065,32.3677 15.2535,32.3777 17.0805,31.9117 C20.3115,31.0907 22.1145,28.9277 22.8005,25.7497 C23.0475,24.6267 23.0865,23.4997 23.0865,22.3627 L23.0865,1.6087 C23.0865,0.9237 23.0865,0.9237 23.8055,0.9237 C24.8605,0.9237 25.9285,0.9477 26.9925,0.9037 C27.5125,0.8897 27.6735,0.9967 27.6735,1.5597 C27.6445,5.3597 27.6545,9.1547 27.6545,13.6597" id="Fill-53" fill="#232226"></path>
                    <path d="M61.3484,24 C60.6194,27.82 59.0454,31.11 55.8674,33.437 C53.8844,34.89 51.6304,35.677 49.2004,35.974 C46.1584,36.338 43.1844,36.134 40.3124,35.007 C36.7214,33.588 34.1124,31.056 32.6494,27.528 C30.0064,21.128 29.9574,14.67 33.0474,8.407 C35.4684,3.504 39.5884,0.851 45.0024,0.262 C48.3644,-0.102 51.6204,0.287 54.6524,1.871 C58.1994,3.713 60.2894,6.662 61.1054,10.55 C61.1354,10.69 61.1354,10.836 61.1544,11.016 C59.7064,11.016 58.2774,11.006 56.8394,11.021 C56.4944,11.026 56.5474,10.778 56.4944,10.598 C55.7804,8.057 54.2734,6.152 51.8824,5.01 C49.9294,4.077 47.8394,3.839 45.7114,4.053 C41.1144,4.514 38.0484,7.041 36.5174,11.308 C34.7094,16.352 34.8554,21.425 37.1194,26.303 C39.3064,31.027 43.7004,32.63 48.2384,32.227 C52.8064,31.814 55.7314,28.661 56.6544,24.53 C56.7424,24.112 56.8884,23.976 57.3294,23.986 C58.6564,24.024 59.9884,24 61.3484,24" id="Fill-55" fill="#232226"></path>
                    <path d="M90.9323,35.3223 C90.3003,35.3223 89.6593,35.2983 89.0173,35.3373 C88.6383,35.3563 88.4733,35.2163 88.3373,34.8563 C86.5103,30.0843 84.6733,25.3173 82.8363,20.5503 C81.2723,16.4783 79.7073,12.4013 78.1423,8.3193 C77.9623,7.8483 77.7343,7.4203 77.1563,7.4303 C76.6163,7.4343 76.4023,7.8523 76.2283,8.3093 C72.8263,17.1443 69.4343,25.9683 66.0423,34.8023 C65.8973,35.1913 65.7363,35.3523 65.2993,35.3423 C64.0213,35.2983 62.7483,35.3033 61.4743,35.3373 C60.9983,35.3463 60.9113,35.2783 61.0963,34.8023 C63.4483,28.9273 65.7703,23.0383 68.1033,17.1543 C69.9303,12.5373 71.7573,7.9163 73.5893,3.2903 C74.1383,1.8953 75.0713,0.9283 76.6163,0.6903 C78.4053,0.4183 79.9983,1.3703 80.6893,3.1203 C81.9033,6.1423 83.0993,9.1653 84.2943,12.1923 C87.2733,19.7053 90.2423,27.2123 93.2253,34.7293 C93.4593,35.3223 93.4593,35.3223 92.7983,35.3223 L90.9323,35.3223" id="Fill-57" fill="#B8232D"></path>
                </g>
            </g>
        </g>
    </g>
</svg>